<?xml version="1.0" encoding="UTF-8" standalone="no"?>

<svg
   viewBox="0 0 135.46669 135.5993"
   version="1.1"
   id="svg5"
   xmlns="http://www.w3.org/2000/svg"
   xmlns:svg="http://www.w3.org/2000/svg">
  <defs
     id="defs2" />
  <g
     id="layer1">
    <path
       style="stroke-width:0.178807;fill:BOTTLE_LIQUID_COLOR"
       d="m 68.357574,135.39678 c -0.229069,-0.0905 -0.540703,-0.28702 -0.692524,-0.43664 -0.708549,-0.69823 -1.898302,-1.0042 -5.195302,-1.3361 -1.089746,-0.10969 -2.589274,-0.28087 -3.332278,-0.38036 -1.600666,-0.21436 -2.851451,-0.33716 -3.962716,-0.38907 -0.445803,-0.0208 -1.038729,-0.13413 -1.317617,-0.2518 -0.278882,-0.11766 -0.658622,-0.21394 -0.843862,-0.21394 -0.185234,0 -0.560473,-0.0838 -0.833868,-0.18624 -0.273388,-0.10243 -1.086641,-0.25991 -1.807227,-0.34993 -1.239463,-0.15487 -3.445615,-1.03982 -4.203582,-1.68618 -0.148601,-0.12673 -0.667274,-0.43736 -1.152596,-0.69031 -0.485328,-0.25294 -0.748764,-0.45989 -0.585403,-0.45989 0.429307,0 0.367451,-0.1789 -0.336872,-0.97433 -1.033731,-1.16742 -0.714118,-1.87702 0.725557,-1.61086 0.699005,0.12922 0.778799,0.041 1.102912,-1.22 0.488031,-1.89869 0.973741,-3.42082 1.391243,-4.35991 0.238709,-0.53695 0.820191,-1.89483 1.292176,-3.01753 0.471986,-1.12271 1.037183,-2.28091 1.256,-2.5738 0.457083,-0.6118 1.160656,-1.88549 1.470758,-2.66253 0.128518,-0.32202 0.217925,-0.40972 0.226217,-0.22187 0.0081,0.18388 0.155558,0.31062 0.361372,0.31062 0.294138,0 0.325488,0.0752 0.203574,0.48814 -0.281067,0.95207 -0.75596,1.91407 -1.161024,2.35191 -0.225801,0.24406 -0.51096,0.80319 -0.633684,1.24251 -0.122731,0.43931 -0.454557,1.12311 -0.737408,1.51954 -0.977084,1.36947 -2.112333,6.82182 -1.73162,8.31661 0.06522,0.25599 0.473932,0.82068 0.908311,1.25488 0.48458,0.48438 0.90279,1.12476 1.08223,1.65714 0.199843,0.59293 0.435904,0.93208 0.745489,1.07109 0.635114,0.28517 1.110408,0.2532 1.303994,-0.0876 0.130404,-0.22964 0.356995,-0.27294 1.073367,-0.20511 l 0.908059,0.0859 0.266505,-0.66857 c 0.320859,-0.80493 0.51917,-0.84629 4.456765,-0.92928 1.440566,-0.0303 2.717187,-0.11487 2.836943,-0.18781 0.388671,-0.23671 0.233113,-0.4315 -0.592824,-0.74234 -0.940812,-0.35408 -1.029708,-0.69611 -0.37558,-1.44507 0.413377,-0.47329 0.504193,-0.49623 1.828686,-0.46189 1.415826,0.0367 2.059293,-0.13253 2.059293,-0.54167 0,-0.43573 -0.866674,-1.9828 -1.332002,-2.3777 -0.258077,-0.21902 -0.469228,-0.47861 -0.469228,-0.57688 0,-0.0983 -0.172809,-0.17868 -0.384014,-0.17868 -0.211213,0 -0.646497,-0.15986 -0.967301,-0.35525 -0.657144,-0.40022 -1.997894,-0.63339 -2.676728,-0.46549 -0.648444,0.16038 -1.220164,1.05697 -1.351827,2.11999 -0.103117,0.83257 -0.156477,0.91953 -0.564197,0.91953 -0.431138,0 -0.447803,-0.0401 -0.391442,-0.94165 0.06774,-1.08351 -0.182891,-1.54421 -0.693572,-1.27488 -0.179678,0.0947 -0.383565,0.43256 -0.453087,0.75065 -0.06951,0.3181 -0.247028,0.818 -0.394471,1.11088 -0.382933,0.76065 -1.685211,2.04127 -2.075803,2.04127 -0.282238,0 -0.314404,-0.0979 -0.218721,-0.66563 0.06168,-0.3661 0.225665,-1.02508 0.364368,-1.4644 0.138702,-0.43932 0.464803,-1.55758 0.724677,-2.48503 0.477894,-1.70555 0.911211,-2.97641 1.785395,-5.23632 0.264347,-0.68338 0.599203,-1.56202 0.744134,-1.95252 0.261141,-0.70364 1.456939,-3.50802 2.005723,-4.7038 0.156817,-0.34169 0.514261,-1.26027 0.794329,-2.04129 0.280066,-0.78101 0.633262,-1.5103 0.784885,-1.62064 0.151617,-0.11034 0.473558,-0.69822 0.715419,-1.3064 0.241861,-0.60817 0.53265,-1.21608 0.646197,-1.3509 0.297338,-0.35306 1.226658,-8.752053 1.242091,-11.225743 0.0027,-0.442439 0.09539,-0.617127 0.363945,-0.686333 0.376874,-0.09713 0.417298,-0.20156 0.368977,-0.953107 -0.0162,-0.25186 0.09679,-0.561178 0.251092,-0.687372 0.154306,-0.126195 0.28055,-0.459289 0.28055,-0.740217 0,-0.392289 0.08349,-0.510778 0.359935,-0.510778 0.197971,0 1.000673,-0.339463 1.783788,-0.754382 1.374381,-0.728168 1.444787,-0.745587 2.026691,-0.501304 0.428565,0.179919 1.800535,0.288475 4.745681,0.375499 3.033546,0.08964 4.302861,0.192406 4.740487,0.383844 0.328702,0.143793 0.582619,0.334253 0.564259,0.423274 -0.03989,0.193454 1.552356,0.781354 2.119004,0.782372 0.219416,3.49e-4 0.474892,0.140579 0.56773,0.311513 0.254258,0.468174 0.307305,1.569895 0.08878,1.843746 -0.106099,0.132952 -0.289985,0.633518 -0.408645,1.112372 -0.11866,0.478854 -0.573592,1.63996 -1.010966,2.580239 -0.437374,0.94028 -0.893191,2.127848 -1.012934,2.639055 -0.119742,0.511196 -0.272182,0.842594 -0.338763,0.736434 -0.114439,-0.182464 -0.895934,1.364741 -0.895934,1.773778 0,0.10545 -0.327633,0.82538 -0.728068,1.59985 -1.181849,2.28577 -1.971289,4.85085 -1.388377,4.5112 0.123834,-0.0722 -0.03363,0.11065 -0.349928,0.40626 -0.647947,0.60551 -0.951527,1.4398 -0.601504,1.65298 0.170958,0.10413 0.17492,0.22459 0.01695,0.51547 -0.113384,0.20877 -0.182544,0.50786 -0.153693,0.66466 0.164579,0.89437 -1.903974,0.61787 -2.60172,-0.34776 -0.25342,-0.35072 -0.382197,-0.77537 -0.364885,-1.2032 0.02723,-0.67273 1.84608,-5.48268 2.744677,-7.25825 0.666097,-1.316143 1.793769,-3.963313 2.608704,-6.123812 0.368241,-0.976266 0.786588,-2.083228 0.929654,-2.459915 0.359758,-0.947217 0.126707,-1.178883 -1.185968,-1.178883 -0.566518,0 -1.681113,-0.08635 -2.476864,-0.191877 -1.388922,-0.184201 -1.483183,-0.17373 -2.355359,0.261812 -0.499693,0.249524 -1.259716,0.506575 -1.688941,0.571209 -0.429226,0.06468 -0.942521,0.200851 -1.140655,0.302679 -0.198135,0.101828 -0.806051,0.273871 -1.350928,0.382317 -1.221143,0.243036 -1.355618,0.667128 -0.257341,0.8116 0.471461,0.06199 1.000944,0.315556 1.482767,0.710011 0.804567,0.658673 0.926624,0.954764 0.465463,1.129162 -0.378187,0.143005 -0.03819,0.585265 0.528701,0.687702 0.34613,0.06249 0.323439,0.09713 -0.193198,0.294274 -0.677541,0.258558 -0.673075,0.246809 -0.30433,0.801398 0.227442,0.342069 0.239206,0.488806 0.06161,0.769006 -0.279317,0.440742 -0.0812,0.971314 0.332208,0.88967 0.219858,-0.04342 0.31177,-0.222632 0.30262,-0.590006 -0.008,-0.31889 0.116761,-0.619393 0.315215,-0.759573 0.351358,-0.248196 0.446,-1.006721 0.148233,-1.188077 -0.281741,-0.171593 -0.212818,-0.41402 0.175996,-0.619073 0.283688,-0.149623 0.432016,-0.113028 0.729293,0.179928 0.3505,0.345403 0.407161,0.351033 0.932417,0.09283 0.703111,-0.345652 0.733916,-0.343566 0.528239,0.03564 -0.418224,0.771221 -2.827446,7.394498 -3.212189,8.830738 -0.235366,0.87864 -0.75229,2.5755 -1.148722,3.7708 -0.571223,1.72236 -0.680644,2.24718 -0.527367,2.52942 0.106372,0.19587 0.277269,0.35611 0.379767,0.35611 0.270508,0 1.734575,-1.02091 1.842424,-1.28475 0.05038,-0.12321 0.09798,0.1257 0.105793,0.55314 0.01028,0.56154 -0.14037,1.04342 -0.542984,1.73688 -0.640873,1.10383 -0.590638,1.47977 0.197713,1.47977 0.486336,0 0.597262,0.10086 0.927271,0.84313 0.20616,0.46373 0.428537,1.32471 0.494165,1.9133 0.08479,0.76047 0.235087,1.18426 0.519367,1.4644 0.460487,0.45379 0.521376,1.23331 0.135591,1.73594 -0.290394,0.37835 -0.335985,1.0169 -0.161937,2.26821 0.152985,1.09993 0.397671,0.89788 0.28701,-0.237 -0.06801,-0.69742 -0.01593,-0.97575 0.233528,-1.24735 0.285363,-0.31073 0.307672,-0.58056 0.200674,-2.42679 -0.07892,-1.3616 -0.212485,-2.2157 -0.387725,-2.47926 -0.147035,-0.22114 -0.267336,-0.49388 -0.267336,-0.6061 0,-0.33288 1.812388,-2.2935 2.120116,-2.2935 0.29505,0 1.842594,-1.48276 1.842594,-1.76545 0,-0.27763 0.550581,-0.71958 0.896438,-0.71958 0.181687,0 0.674858,0.28365 1.095927,0.63033 0.617557,0.50845 0.890775,0.61999 1.413001,0.57688 l 0.647402,-0.0535 0.0073,-1.09774 c 0.007,-1.05609 0.03921,-1.13186 0.84781,-1.99689 1.383387,-1.47995 1.588262,-1.21078 0.956769,1.25702 -0.253509,0.99064 -0.556034,1.91412 -0.672284,2.05216 -0.162142,0.19252 -0.157716,0.45729 0.01899,1.13684 0.136061,0.52315 0.181176,1.20927 0.110184,1.67577 -0.107093,0.70376 -0.157097,0.77046 -0.458424,0.61155 -0.51405,-0.27111 -0.605887,0.0446 -0.564353,1.94021 0.0386,1.76117 0.137899,2.38131 0.359724,2.24621 0.07123,-0.0434 0.09705,0.19509 0.05739,0.52992 -0.05474,0.46219 -0.0048,0.60881 0.207135,0.60881 0.153597,0 0.324684,0.0725 0.380202,0.16095 0.05548,0.0885 -0.06127,0.11914 -0.259554,0.0681 -0.225788,-0.0582 -0.368963,-0.002 -0.383171,0.14969 -0.04718,0.50476 0.06236,3.44086 0.130996,3.51157 0.146858,0.15126 0.281196,-0.15165 0.438389,-0.98849 l 0.161637,-0.86049 -0.07448,0.9234 c -0.05058,0.62718 0.02049,1.11102 0.221649,1.50834 0.179004,0.35361 0.299911,1.04144 0.305704,1.73914 0.0078,0.93799 -0.06999,1.26413 -0.415235,1.74114 -0.412669,0.57017 -0.435039,0.57786 -0.781733,0.26866 -0.282545,-0.25197 -0.334325,-0.45749 -0.248513,-0.98634 0.09552,-0.58866 0.06481,-0.66803 -0.258431,-0.66803 -0.440703,0 -0.623125,0.42341 -0.802565,1.86278 -0.07676,0.61572 -0.389434,1.58797 -0.742106,2.30753 -0.498603,1.01733 -0.921334,1.526 -2.324123,2.79665 -1.424997,1.29076 -1.813396,1.55268 -2.299079,1.55043 -0.431111,-0.002 -0.514868,-0.0461 -0.31928,-0.16796 0.462312,-0.28812 -0.263087,-0.42125 -1.618753,-0.29709 -1.409992,0.12914 -2.231762,0.3853 -2.068933,0.64493 0.134189,0.21396 -0.0384,0.21128 -0.596398,-0.009 z m 5.829376,-6.99601 c 0.3968,-0.93586 0.348995,-3.212 -0.07871,-3.74784 -0.412594,-0.51689 -0.583,-0.35742 -0.916617,0.85773 -0.16396,0.59718 -0.32331,0.84313 -0.546266,0.84313 -0.173129,0 -0.420103,0.12505 -0.548818,0.27789 -0.194342,0.23076 -0.178487,0.37377 0.0935,0.84314 0.446327,0.77024 1.191946,1.5415 1.490243,1.5415 0.135122,0 0.363122,-0.277 0.506672,-0.61555 z m -3.636391,-1.4701 c 0.05977,-0.56135 0.159412,-1.32017 0.221479,-1.68628 0.10595,-0.62492 0.08463,-0.66562 -0.348696,-0.66562 -0.379188,0 -0.495751,-0.11877 -0.653216,-0.66564 -0.470678,-1.63457 -1.095996,-5.12659 -1.314955,-7.34318 -0.173803,-1.75949 -0.318735,-2.49626 -0.532493,-2.7069 -0.388739,-0.38308 -0.75167,-0.37535 -0.600523,0.0128 0.06474,0.16622 0.196119,1.18464 0.291986,2.26315 0.09587,1.07851 0.260433,2.81342 0.365695,3.85534 0.139138,1.37725 0.136715,1.99508 -0.0089,2.26316 -0.275178,0.50669 -0.621797,0.46188 -0.923424,-0.1194 -0.240765,-0.46396 -0.257798,-0.41343 -0.344135,1.02065 -0.102049,1.69514 -0.06542,1.95252 0.278058,1.95252 0.13216,0 0.28503,0.0714 0.33971,0.15853 0.05732,0.0914 -0.166791,0.0993 -0.529743,0.0187 -0.62,-0.13779 -0.629164,-0.13132 -0.629164,0.44374 0,0.61767 0.304432,0.86254 0.855585,0.68822 0.238573,-0.0755 0.219184,-0.0202 -0.07973,0.22745 -0.383804,0.31792 -0.385744,0.33815 -0.06885,0.71721 l 0.326101,0.39007 0.388058,-0.35628 c 0.213432,-0.19595 0.340949,-0.43138 0.283368,-0.52318 -0.222901,-0.35542 0.4222,-0.13952 1.357559,0.45434 0.538191,0.34169 1.032315,0.62125 1.098051,0.62125 0.0657,0 0.168398,-0.45928 0.228143,-1.02064 z M 60.38291,118.63245 c -0.0085,-0.4572 -0.03179,-0.4823 -0.164701,-0.17751 -0.08515,0.19525 -0.159262,0.55469 -0.164708,0.79876 -0.0078,0.34974 0.02709,0.38736 0.164708,0.1775 0.09603,-0.14644 0.170147,-0.50587 0.164701,-0.79875 z m 3.446527,-0.77007 c 0.377663,-0.30136 0.393634,-0.38615 0.208959,-1.10938 -0.212288,-0.83143 -0.09257,-1.69403 0.39456,-2.84294 0.32399,-0.76414 0.778683,-3.44964 0.944923,-5.58091 0.100558,-1.2892 0.0783,-1.53492 -0.132725,-1.4656 -0.305575,0.10038 -0.751561,1.22142 -1.435147,3.60742 -0.666783,2.32734 -0.903552,3.85031 -0.876409,5.63733 0.03315,2.18248 0.127489,2.3672 0.895839,1.75408 z m 13.21784,15.57165 c -0.172578,-0.27518 0.270202,-0.51114 0.913063,-0.48658 0.526992,0.0202 0.524766,0.0235 -0.09006,0.1361 -0.354496,0.065 -0.610722,0.21006 -0.585396,0.33163 0.0563,0.27016 -0.07353,0.28046 -0.237607,0.0189 z m 1.183251,-2.11018 c 0,-0.0976 0.08584,-0.1775 0.190755,-0.1775 0.104915,0 0.140656,0.0798 0.07943,0.1775 -0.0612,0.0976 -0.147062,0.1775 -0.190748,0.1775 -0.04371,0 -0.07943,-0.0798 -0.07943,-0.1775 z m -36.818573,-3.68864 c -0.365422,-0.55268 -0.456592,-0.82301 -0.308094,-0.91346 0.116012,-0.0707 0.262108,-0.5543 0.324658,-1.07476 0.08349,-0.69469 0.05828,-0.91254 -0.09482,-0.81928 -0.154592,0.0941 -0.208551,-0.59124 -0.208551,-2.64896 0,-2.62116 0.02941,-2.85682 0.527653,-4.22615 1.7175,-4.72034 4.926497,-11.46524 6.596677,-13.86538 1.089446,-1.56559 1.248851,-2.32 0.620967,-2.93875 -0.198135,-0.19525 -0.279195,-0.35501 -0.180128,-0.35501 0.373817,0 0.107604,-1.533485 -0.929088,-5.351932 -0.520505,-1.917144 -0.60774,-2.114032 -0.695935,-1.570643 -0.0915,0.563713 -0.419681,-3.269298 -0.597331,-6.976414 -0.03649,-0.761799 -0.159323,-1.476691 -0.272932,-1.588641 -0.23523,-0.231816 -0.285921,-1.089354 -0.0561,-0.949394 0.08274,0.05041 0.284069,-0.18452 0.447389,-0.522037 0.34681,-0.716669 0.95521,-0.823109 1.474257,-0.257909 0.289884,0.315656 0.300749,0.433166 0.09647,1.043156 -0.283763,0.847286 -0.173408,4.290334 0.256682,8.008719 0.308441,2.666635 0.618679,3.579214 1.258035,3.700548 0.309605,0.0588 0.323506,-0.04662 0.210626,-1.596937 -0.34986,-4.804814 -0.351984,-5.0924 -0.04092,-5.560184 0.337354,-0.507374 0.853897,-0.5819 1.198358,-0.172891 0.190646,0.226375 0.178467,0.443218 -0.06823,1.21442 -0.32947,1.029999 -0.25517,2.843658 0.149847,3.657564 0.430532,0.865174 0.671433,1.696419 0.720184,2.485029 0.105119,1.700272 0.825828,5.442946 1.450342,7.531696 0.143944,0.48144 0.261719,1.14041 0.261719,1.46438 0,0.49172 -0.06699,0.5895 -0.405275,0.59176 -0.623344,0.004 -0.775314,0.16855 -1.392503,1.50605 -2.201427,4.77067 -2.959578,6.25094 -4.119696,8.04365 -0.530254,0.81937 -1.113199,1.82091 -1.295444,2.22563 -0.182238,0.40473 -0.667138,1.05536 -1.077553,1.44588 -1.481863,1.40997 -2.200713,3.49253 -2.450757,7.10008 -0.07961,1.14852 -0.173286,1.4903 -0.489938,1.7876 l -0.39151,0.36757 z m 0.2508,-4.68786 c 0.0014,-0.26271 -0.0783,-0.52703 -0.177364,-0.58735 -0.110668,-0.0674 -0.179059,0.21943 -0.177364,0.7439 0.002,0.61658 0.05126,0.77968 0.177364,0.58736 0.09604,-0.14644 0.175853,-0.4812 0.177364,-0.74391 z M 76.00138,108.11543 c 0.354414,-1.44996 1.594865,-3.59442 2.079172,-3.59442 0.318265,0 0.129185,0.53775 -0.282571,0.80362 -0.606419,0.39156 -1.426188,3.02181 -0.828313,2.65768 0.09907,-0.0603 0.180121,-0.0539 0.180121,0.0143 0,0.20819 -0.611008,0.59529 -0.949076,0.60128 -0.257124,0.005 -0.295609,-0.0886 -0.199333,-0.48249 z m 2.735744,-1.58565 c 0.130023,-0.0512 0.285384,-0.0449 0.345238,0.0141 0.05984,0.059 -0.0465,0.10093 -0.236415,0.0932 -0.20983,-0.009 -0.252515,-0.0506 -0.108823,-0.10724 z M 79.50561,106.37 c 0.0086,-0.20678 0.05133,-0.24885 0.108823,-0.10724 0.05201,0.12813 0.04561,0.28123 -0.01423,0.3402 -0.05984,0.059 -0.102431,-0.0458 -0.09461,-0.23296 z m 0.04745,-1.13216 c 0.06515,-0.32101 0.333494,-1.07291 0.596309,-1.67088 0.262816,-0.59797 0.74199,-1.68629 1.064823,-2.41849 0.807433,-1.831297 1.99114,-6.483384 1.816813,-7.14029 -0.126762,-0.477687 0.248798,-1.835251 0.428456,-1.548793 0.06853,0.109275 0.122377,-0.02765 0.119667,-0.304296 -0.0054,-0.55392 0.539308,-2.655585 0.797474,-3.076772 0.11,-0.17946 0.128946,-0.09263 0.05814,0.266254 l -0.105093,0.532508 0.378725,-0.426248 c 0.39343,-0.442809 0.397222,-0.854273 0.007,-0.764634 -0.152535,0.03504 -0.179882,-0.05051 -0.08513,-0.266254 0.07679,-0.174837 0.178018,-0.589007 0.224958,-0.920375 l 0.08536,-0.602494 -0.816495,0.09074 c -1.00136,0.111232 -1.38579,-0.07107 -1.101884,-0.522546 0.268636,-0.427187 0.858437,-0.486401 1.534466,-0.154065 0.30804,0.15144 0.937775,0.32471 1.399413,0.385062 1.226848,0.160374 2.022838,-0.339962 2.344364,-1.473587 0.236149,-0.832612 0.24325,-0.838851 0.388426,-0.34139 0.154129,0.528147 0.0852,0.67157 -0.69505,1.446166 l -0.413676,0.410696 0.45871,0.452033 c 0.260242,0.256451 0.458717,0.655119 0.458717,0.921413 0,0.530522 -0.50179,1.676784 -0.734038,1.676784 -0.18554,0 -0.706951,1.672302 -0.706951,2.267368 0,0.23536 -0.167738,0.63807 -0.372748,0.894901 -0.268534,0.336419 -0.343998,0.618076 -0.269889,1.00735 0.08614,0.452462 0.02376,0.58766 -0.38349,0.831175 -0.492531,0.294494 -0.98238,1.381392 -1.317685,2.923736 -0.08796,0.404627 -0.366621,0.955452 -0.619238,1.224052 -0.252611,0.26861 -0.459289,0.569083 -0.459289,0.667727 0,0.09862 -0.392395,0.945639 -0.871984,1.882239 -0.479597,0.93657 -0.928789,1.90256 -0.998209,2.14663 -0.06943,0.24406 -0.621947,0.83621 -1.227835,1.31588 l -1.101605,0.87213 z m -0.740873,-3.05763 c 0.03921,-0.11594 0.167608,-0.24242 0.285322,-0.28109 0.131622,-0.0432 0.171876,0.0379 0.104561,0.21078 -0.125638,0.32265 -0.49795,0.38979 -0.389883,0.0703 z m -20.306068,-0.72226 c -0.170113,-0.41428 -0.315351,-1.24636 -0.322744,-1.849068 -0.01355,-1.107372 0.220137,-1.655442 0.705977,-1.655442 0.196297,0 0.248131,0.424202 0.248131,2.030791 0,1.116949 -0.07247,2.074929 -0.161038,2.128889 -0.08856,0.0539 -0.300212,-0.24089 -0.470326,-0.65517 z m 19.724422,-0.19899 c 0,-0.0368 0.12344,-0.16798 0.274307,-0.29136 0.229362,-0.18758 0.255715,-0.1766 0.160855,0.067 -0.09689,0.24882 -0.435162,0.42321 -0.435162,0.22435 z m -6.52947,-7.312101 c -0.272434,-0.14565 -0.495336,-0.3022 -0.495336,-0.347898 0,-0.171454 0.284682,-0.06399 0.720491,0.271924 0.535305,0.412623 0.455149,0.439674 -0.225155,0.07596 z M 60.758592,87.635377 c -0.544876,-0.08585 -1.88229,-0.146508 -2.972037,-0.134729 -2.415866,0.02615 -4.37955,-0.213998 -4.603575,-0.562904 -0.246688,-0.384224 -0.203124,-0.818647 0.113364,-1.13053 0.394818,-0.389075 0.788459,-0.350035 1.796593,0.178192 0.802586,0.420538 1.107562,0.465348 3.809411,0.559749 2.335507,0.08156 2.936983,0.0556 2.936983,-0.126943 0,-0.126244 -0.141847,-0.34693 -0.315215,-0.490424 -0.225467,-0.186596 -0.187003,-0.181355 0.135088,0.01837 0.823615,0.510817 2.37992,1.179472 2.768646,1.189524 0.253094,0.007 0.10787,0.123889 -0.42704,0.345083 -0.873877,0.361355 -1.684925,0.400016 -3.242218,0.154574 z m 28.781957,-0.691554 c 0.06454,-0.433386 0.128027,-0.497681 0.329048,-0.333265 0.413547,0.338216 0.190469,0.870245 -0.364891,0.870245 -0.0243,0 -0.0082,-0.241638 0.03581,-0.53698 z M 49.521967,86.438745 c -0.404561,-0.440532 -0.438158,-1.090112 -0.06861,-1.326639 0.459643,-0.294204 1.12817,0.393806 0.97334,1.0017 -0.145218,0.570191 -0.546987,0.714483 -0.90473,0.324939 z m 25.038901,-0.183911 -0.563223,-0.249714 0.747483,-0.171144 c 0.592055,-0.135548 0.921001,-0.105831 1.581964,0.142915 0.458962,0.172731 0.873353,0.376038 0.920872,0.451812 0.147314,0.234901 -2.091916,0.09004 -2.687096,-0.173869 z m -14.54575,-1.214689 c -0.224045,-0.281527 -0.217679,-0.287806 0.06801,-0.06698 0.300041,0.231886 0.395459,0.377645 0.247205,0.377645 -0.03737,0 -0.179249,-0.13979 -0.315215,-0.310634 z m -0.697514,-0.399377 c -0.162346,-0.103385 -0.184559,-0.17315 -0.05569,-0.174787 0.117986,-9.99e-4 0.26462,0.07716 0.325849,0.174787 0.138205,0.220376 0.07585,0.220376 -0.270188,0 z m 29.545725,-2.751283 c 0,-0.195252 0.07857,-0.474822 0.174606,-0.62126 0.144584,-0.220476 0.174607,-0.205214 0.174607,0.08874 0,0.195251 -0.07858,0.474822 -0.174607,0.62126 -0.144591,0.220476 -0.174606,0.205223 -0.174606,-0.08874 z M 57.606434,78.844446 c -0.198135,-0.04133 -0.540281,-0.112839 -0.760323,-0.159016 -0.220042,-0.04612 -0.493396,-0.262711 -0.607454,-0.48121 -0.171101,-0.327805 -0.165709,-0.35848 0.03084,-0.175407 0.13101,0.122032 0.607005,0.222403 1.057757,0.223042 0.51469,6.68e-4 1.020578,0.132363 1.359934,0.353837 l 0.54037,0.35267 -0.630431,-0.01946 c -0.346742,-0.01068 -0.792544,-0.0532 -0.990679,-0.09453 z m -2.791909,-0.308519 c 0,-0.03833 0.125788,-0.11733 0.279536,-0.175466 0.160296,-0.06069 0.232602,-0.03084 0.169494,0.06977 -0.10578,0.168668 -0.44903,0.249474 -0.44903,0.105711 z m -5.555381,-1.705263 c 0,-0.244064 0.04092,-0.343905 0.09085,-0.221873 0.04997,0.122032 0.04997,0.321725 0,0.443757 -0.04997,0.122032 -0.09085,0.02216 -0.09085,-0.221884 z m 7.714157,-0.005 c -0.107522,-0.197986 -0.283375,-0.306452 -0.390782,-0.241049 -0.130349,0.07936 -0.16368,-0.05171 -0.100231,-0.394405 0.05228,-0.282336 0.232745,-1.431912 0.401021,-2.554616 0.438055,-2.922547 0.414166,-2.840045 0.822274,-2.840045 0.560146,0 0.588732,0.364259 0.176458,2.248443 -0.627435,2.867506 -0.755769,3.63145 -0.653931,3.892973 0.146423,0.376018 -0.03261,0.297808 -0.254809,-0.111301 z m 28.594422,-2.673842 c 0.109421,-0.412353 0.662842,-0.594248 1.079943,-0.354946 0.248635,0.142635 0.25935,0.184351 0.04868,0.189422 -0.148608,0.003 -0.482858,0.115833 -0.742787,0.249494 -0.432718,0.222502 -0.465273,0.215415 -0.385826,-0.08395 z m 4.802793,-1.653096 c -0.05344,-0.137155 -0.06876,-0.516557 -0.03411,-0.843134 0.05521,-0.520619 0.07358,-0.489894 0.149084,0.249355 0.0883,0.864655 0.05582,1.032375 -0.114964,0.593779 z m -34.832743,-1.21503 c 0.0048,-0.37466 0.30612,-0.717877 0.517475,-0.589147 0.351664,0.214177 0.23393,0.811021 -0.159983,0.811021 -0.198135,0 -0.35901,-0.09984 -0.357492,-0.221874 z m 35.166693,-2.351907 c 0.002,-0.390503 0.03887,-0.529354 0.08197,-0.308559 0.04309,0.220795 0.04146,0.540305 -0.0034,0.710011 -0.04507,0.169707 -0.08033,-0.01098 -0.07833,-0.401452 z m -0.03118,-1.079801 c 0.0086,-0.20679 0.05133,-0.248845 0.108823,-0.107238 0.05201,0.128131 0.04561,0.281227 -0.01423,0.340202 -0.05984,0.05899 -0.102424,-0.04582 -0.0946,-0.232964 z m -2.310794,-1.079032 c -0.123834,-0.04921 -0.225155,-0.270177 -0.225155,-0.490982 0,-0.406135 -0.499985,-0.988983 -0.848383,-0.988983 -0.104275,0 -0.281434,-0.359438 -0.393688,-0.798763 -0.112254,-0.439315 -0.251215,-0.798753 -0.308796,-0.798753 -0.05759,0 -0.320192,0.139781 -0.583579,0.310625 -0.263387,0.170845 -0.640648,0.399047 -0.838361,0.507114 -0.197712,0.108067 -0.400557,0.427576 -0.450772,0.710011 -0.08743,0.491702 -0.141344,0.517775 -1.268696,0.613524 -0.647565,0.055 -1.275047,0.159465 -1.394402,0.232155 -0.119348,0.07267 -0.39729,0.008 -0.617645,-0.144372 -0.458649,-0.316574 -1.698813,-0.373013 -1.797322,-0.08175 -0.0467,0.138164 -0.273551,0.142616 -0.780535,0.01537 -0.393063,-0.09862 -1.34284,-0.233044 -2.110611,-0.298646 -1.104049,-0.09433 -1.396533,-0.06968 -1.398711,0.117769 -0.002,0.195291 -0.02995,0.194722 -0.15722,-0.003 -0.124712,-0.193944 -0.23395,-0.198276 -0.567185,-0.02256 -0.284485,0.150032 -0.826407,0.180727 -1.74408,0.09882 -1.494674,-0.133481 -2.227078,-0.389454 -2.093775,-0.731782 0.147165,-0.377915 -0.289222,-1.009456 -0.61294,-0.887035 -0.157853,0.05969 -0.343713,0.01807 -0.413023,-0.09243 -0.264674,-0.422026 -2.462275,-0.859764 -3.77275,-0.751497 -0.689181,0.057 -1.210257,0.171763 -1.157946,0.255174 0.05235,0.08345 -0.117435,0.07197 -0.377214,-0.02526 -0.259779,-0.09733 -1.090005,-0.176974 -1.84495,-0.176974 -1.138646,0 -1.440034,0.06239 -1.768123,0.366156 -0.450418,0.416995 -1.260424,0.484215 -2.329557,0.193345 -1.027346,-0.279511 -2.241757,-0.258668 -2.358238,0.04043 -0.130274,0.334552 -1.054945,0.11745 -2.766509,-0.649569 l -1.336842,-0.599089 1.069316,0.07307 c 1.052092,0.07187 1.08078,0.06139 1.78133,-0.651915 0.82512,-0.840149 1.460595,-0.952668 1.711245,-0.303009 0.09247,0.239692 0.413404,0.508062 0.742908,0.62126 0.895771,0.30772 1.05005,0.221774 0.301198,-0.1678 -0.743773,-0.386949 -0.932969,-0.817988 -0.270181,-0.61555 0.222901,0.06808 0.607916,0.168898 0.855584,0.22404 0.247668,0.0551 0.610192,0.208437 0.805603,0.340671 0.195411,0.132234 0.549349,0.24042 0.786533,0.24042 0.361325,0 0.412526,-0.06478 0.315835,-0.399376 -0.392062,-1.356786 -0.4055,-1.324184 0.639709,-1.552636 0.827822,-0.180946 1.079745,-0.16745 1.775278,0.09503 0.445803,0.168269 1.540055,0.363001 2.431667,0.432756 0.891605,0.06978 1.848373,0.218689 2.126139,0.330979 0.748348,0.302529 6.161978,0.359238 6.460003,0.06768 0.42834,-0.419051 -0.06025,-0.834 -1.031037,-0.875586 -2.013047,-0.08624 -2.343737,-0.59831 -2.189417,-3.390411 0.101232,-1.831657 0.623901,-4.376859 1.372059,-6.681401 0.191673,-0.590425 0.403185,-1.471002 0.470024,-1.956844 0.06685,-0.485831 0.275921,-1.181568 0.464619,-1.546067 0.188699,-0.364509 0.343652,-0.8057 0.344346,-0.980438 6.81e-4,-0.174728 0.20333,-0.904454 0.45031,-1.621582 0.68249,-1.981739 0.522363,-3.522536 -0.266335,-2.562701 -0.259766,0.316125 -0.33907,0.330719 -0.635687,0.116991 -0.18639,-0.13431 -0.505772,-0.250992 -0.709741,-0.259297 -0.203968,-0.008 0.03445,-0.11712 0.529763,-0.241818 1.336564,-0.336478 1.891299,-0.592241 1.891299,-0.872051 0,-0.537739 0.894797,-0.860313 2.459816,-0.886746 1.704471,-0.02875 1.928237,0.108097 1.663522,1.017672 -0.241289,0.829078 -0.210783,0.908846 0.435563,1.139174 0.514439,0.183313 0.629825,0.340332 0.841432,1.145044 0.134883,0.512923 0.255449,1.053817 0.267921,1.201972 0.01246,0.148155 0.08095,0.362293 0.152182,0.47587 0.07123,0.113567 0.05045,0.254645 -0.04623,0.3135 -0.245912,0.149772 -0.05582,2.217986 0.351371,3.822569 0.528456,2.082539 0.690053,3.16219 0.90684,6.058814 0.254612,3.401881 0.190925,3.774275 -0.724173,4.234323 -0.931893,0.468503 -1.026917,0.673856 -0.420069,0.907798 0.826005,0.318431 1.736603,0.366415 2.21735,0.116851 0.752562,-0.390672 1.116644,-2.087679 0.447899,-2.087679 -0.145374,0 -0.198359,-0.1345 -0.139846,-0.354996 0.05896,-0.222263 0.0054,-0.355005 -0.14295,-0.355005 -0.184457,0 -0.189121,-0.04732 -0.02104,-0.213 0.312798,-0.308249 0.265293,-1.059606 -0.09907,-1.56691 -0.28089,-0.391071 -0.316114,-0.960793 -0.323466,-5.231432 -0.0075,-4.356326 -0.04439,-4.928074 -0.405282,-6.281336 -0.218361,-0.818827 -0.397018,-1.627771 -0.397018,-1.797667 0,-0.426658 -0.418898,-0.746337 -0.688759,-0.525631 -0.146831,0.120095 -0.161754,0.113008 -0.04861,-0.02306 0.08979,-0.108007 0.767546,-0.21816 1.506138,-0.244803 1.506575,-0.0543 2.411931,-0.38564 2.330469,-0.852816 -0.06392,-0.366784 0.03349,-0.377615 0.554605,-0.06169 0.455558,0.276216 1.929986,0.187534 1.929986,-0.116083 0,-0.105551 -0.167302,-0.779467 -0.371781,-1.497584 -0.20448,-0.718127 -0.346327,-1.482042 -0.315216,-1.697597 0.03111,-0.215554 0.252904,0.477727 0.492879,1.540618 0.419341,1.857371 0.423602,1.94171 0.109551,2.168006 -0.179726,0.129498 -0.402362,0.260284 -0.494751,0.29064 -0.09239,0.03035 -0.214105,0.556436 -0.27048,1.169101 -0.125911,1.368355 0.133433,2.241694 1.080256,3.63777 0.624004,0.920076 0.716856,1.201343 0.849656,2.573791 0.082,0.847455 0.269963,1.900264 0.4177,2.339579 0.147729,0.439315 0.319633,1.357894 0.382006,2.041282 0.21433,2.348424 0.47253,4.61711 0.670011,5.887021 0.108789,0.69957 0.14329,1.558246 0.07668,1.90814 -0.106501,0.559451 -0.185315,0.636183 -0.653318,0.636183 -0.442024,0 -0.532207,0.07237 -0.532207,0.426968 0,0.23483 0.278807,0.755819 0.619578,1.157761 0.340765,0.401941 0.673851,0.899303 0.740186,1.105265 0.09489,0.294643 0.15421,0.322164 0.278276,0.129129 0.100544,-0.15645 0.159561,0.140529 0.16289,0.819675 0.0027,0.585764 0.05412,1.244736 0.113827,1.464404 0.102076,0.375349 0.05589,0.398527 -0.767982,0.385361 -0.482129,-0.008 -0.977914,-0.0543 -1.101748,-0.103545 z m 0.982979,-6.847334 c -0.04309,-0.220796 -0.07997,-0.08195 -0.08197,0.308558 -0.002,0.390513 0.03329,0.57116 0.07834,0.401453 0.04507,-0.169707 0.0467,-0.489216 0.0034,-0.710011 z m -41.650264,5.996525 c 0.0027,-0.424182 0.06529,-0.734548 0.13956,-0.689718 0.17492,0.105551 0.169889,0.974349 -0.0072,1.248888 -0.07524,0.116632 -0.134788,-0.134998 -0.13233,-0.55917 z m 2.382835,-3.997517 c 0.06644,-0.250483 -0.03526,-0.406564 -0.360031,-0.552383 L 49.265333,61.169 49.610005,59.94329 c 0.189577,-0.674135 0.760207,-2.082608 1.268083,-3.129937 0.50787,-1.047338 1.195723,-2.566853 1.528557,-3.376726 1.202517,-2.926041 2.552526,-5.664718 3.21788,-6.527905 0.231173,-0.299904 1.026059,-1.697737 1.766415,-3.10628 1.906411,-3.627029 2.278458,-4.266815 2.831129,-4.86853 0.26901,-0.292877 0.578371,-0.692253 0.687466,-0.887504 0.196453,-0.351582 0.19842,-0.351452 0.203846,0.01338 0.0054,0.386399 0.595349,1.010694 1.13015,1.196642 0.28234,0.09812 0.257805,0.204125 -0.242453,1.047089 -0.306113,0.515828 -0.701081,1.097628 -0.877696,1.292879 -0.176615,0.195251 -0.658322,0.954066 -1.07046,1.686267 -0.412131,0.732202 -1.064189,1.850464 -1.449008,2.48503 -1.303566,2.149569 -1.939565,3.296998 -2.070186,3.734886 -0.15549,0.521288 -1.007385,2.729552 -1.811768,4.696468 -0.628014,1.535656 -0.867526,2.398514 -1.249131,4.500158 -0.336666,1.854167 -0.698099,2.618601 -1.405785,2.973267 -0.321628,0.161192 -0.524691,0.230359 -0.451248,0.153706 0.152903,-0.159595 -0.178079,-0.61579 -0.446783,-0.61579 -0.09849,0 -0.136701,0.159675 -0.08491,0.354826 0.104827,0.395024 0.06284,0.435402 -0.620456,0.596045 -0.41145,0.09673 -0.465314,0.06369 -0.385601,-0.236687 z M 66.06154,59.985645 c -0.754932,-0.109924 -1.41665,-0.528746 -2.581861,-1.63416 -0.371148,-0.352101 -0.789181,-0.677749 -0.928959,-0.723667 -0.207019,-0.06798 -0.181809,-0.229041 0.135993,-0.868588 0.214568,-0.431809 0.968628,-2.542377 1.67568,-4.690149 1.349212,-4.098407 2.147849,-5.891543 3.181587,-7.143426 0.644093,-0.780026 0.680236,-1.106273 0.315188,-2.845166 -0.0629,-0.299485 0.0209,-0.443238 0.325052,-0.557763 0.404704,-0.152388 0.403546,-0.155881 -0.09398,-0.283473 -0.277051,-0.07107 -0.467608,-0.164786 -0.423459,-0.208298 0.128123,-0.126255 1.434493,0.280069 1.809494,0.562824 0.272666,0.205593 0.298298,0.309647 0.12651,0.513632 -0.17219,0.204465 -0.144687,0.304646 0.137007,0.499078 0.339879,0.234601 0.323677,0.281058 -0.454496,1.302892 -0.705548,0.926465 -0.79298,1.137677 -0.695765,1.680867 0.3209,1.793096 0.293893,2.129465 -0.43587,5.429827 -0.408203,1.846091 -0.913349,4.035479 -1.122552,4.865296 -0.613867,2.434999 -0.618517,2.614968 -0.07834,3.033679 0.526856,0.408391 0.617529,0.955254 0.185478,1.118632 -0.156702,0.05919 -0.298549,0.09573 -0.315215,0.08106 -0.01668,-0.01467 -0.359336,-0.07457 -0.761493,-0.133122 z M 52.754708,51.040788 c 0.06767,-0.175057 0.168357,-0.273571 0.22382,-0.218919 0.05548,0.0547 1.09e-4,0.197877 -0.12299,0.318282 -0.177888,0.173999 -0.198577,0.153615 -0.10083,-0.09932 z M 66.52255,41.063936 c -0.192225,-0.228242 -0.137524,-0.262801 0.383225,-0.242078 0.42717,0.01707 0.486384,0.04712 0.19951,0.101439 -0.224379,0.04242 -0.36144,0.151439 -0.304588,0.242088 0.164633,0.26251 -0.03207,0.190779 -0.278147,-0.101449 z m -0.823417,-1.331261 c 0,-0.22991 0.06086,-0.289922 0.177547,-0.174968 0.116652,0.114955 0.116652,0.23498 0,0.349935 -0.116651,0.114955 -0.177547,0.0549 -0.177547,-0.174967 z M 89.578325,6.2185806 c 0,-0.1115706 -0.303961,-0.3609749 -0.675463,-0.5542496 -0.717271,-0.3731532 -0.551385,-0.5059559 0.206773,-0.1655442 0.442188,0.1985453 0.747252,0.6481219 0.562992,0.8297074 -0.05187,0.051109 -0.0943,0.002 -0.0943,-0.1099136 z M 86.195552,5.202636 c 0.26944,-0.2793009 0.522187,-0.4721263 0.561665,-0.4284843 0.03949,0.043622 -0.180965,0.2721537 -0.489877,0.5078226 l -0.561664,0.4284943 z m 2.613866,-1.6946418 c 0.06372,-0.2400211 0.145339,-0.3204873 0.190305,-0.1875449 0.0433,0.1280612 -0.0069,0.3172232 -0.111553,0.4203689 -0.133664,0.1317246 -0.157103,0.062388 -0.07875,-0.232824 z M 73.547356,2.1373534 c 0,-0.2728924 0.07988,-0.3488067 0.285288,-0.2711355 0.156906,0.059294 0.2177,0.1576084 0.135094,0.2183698 -0.08261,0.060791 -0.210987,0.1827834 -0.285288,0.2711355 -0.0743,0.088342 -0.135094,-0.00998 -0.135094,-0.2183698 z M 72.826865,1.5580286 c 0,-0.2993052 -0.08553,-0.71864586 -0.190061,-0.93189481 -0.183599,-0.37452077 -0.180536,-0.37598814 0.09006,-0.0431229 0.254408,0.31292084 0.405318,1.51921531 0.190061,1.51921531 -0.04956,0 -0.09006,-0.2448725 -0.09006,-0.5441776 z"
       id="bottle-liquid" />
    <path
       style="fill:#ffffff;stroke:#ffffff;stroke-width:0.169263;fill-opacity:1"
       d="m 64.065269,136.50798 c -0.03803,-0.0379 -1.164636,-0.0738 -2.503499,-0.0796 -1.884875,-0.008 -2.663709,-0.0821 -3.450776,-0.32797 -0.559063,-0.17462 -1.435779,-0.32181 -1.948259,-0.32709 -0.512474,-0.005 -1.198598,-0.113 -1.524724,-0.23937 -0.326119,-0.12637 -1.088478,-0.41237 -1.694135,-0.63554 -2.417928,-0.891 -2.725338,-1.26008 -1.453407,-1.74497 0.70048,-0.26704 0.815261,-0.2697 1.32201,-0.0307 1.023865,0.48281 2.580028,0.93318 3.519674,1.01865 0.512473,0.0466 1.274838,0.20466 1.694135,0.3512 0.419296,0.14653 1.234339,0.26754 1.811202,0.26889 0.576856,9.9e-4 1.09595,0.0786 1.153539,0.17158 0.166594,0.26907 3.392746,0.2157 3.621904,-0.0599 0.135437,-0.1629 0.698252,-0.2352 1.94938,-0.25041 0.967428,-0.0118 1.963351,-0.0989 2.213152,-0.19375 0.249802,-0.0948 0.820819,-0.17238 1.268922,-0.17238 0.448111,0 1.138858,-0.11415 1.535001,-0.25366 0.396137,-0.13952 1.140029,-0.25368 1.653085,-0.25368 0.653923,0 1.106099,-0.10689 1.512334,-0.3575 0.318724,-0.19664 0.620813,-0.31629 0.671307,-0.26589 0.05046,0.0504 -0.201292,0.27401 -0.55951,0.49691 -2.183833,1.35883 -3.858548,1.95207 -6.107564,2.16352 -1.005693,0.0945 -2.171597,0.25497 -2.590893,0.3565 -1.266054,0.30656 -2.019845,0.43809 -2.092878,0.36519 z m -16.768393,-3.38436 c -0.403699,-0.1175 -1.14891,-0.57256 -1.669362,-1.01937 -0.51707,-0.44391 -1.343043,-1.11152 -1.835488,-1.48357 -1.607233,-1.21426 -1.923748,-1.53514 -1.808935,-1.8338 0.1854,-0.48228 0.760181,-0.30862 1.582856,0.47823 0.43606,0.41707 0.920725,0.79884 1.077036,0.84836 0.156311,0.0495 0.383536,0.27532 0.504938,0.50177 0.242892,0.45303 2.301072,1.61201 2.862708,1.61201 0.19455,0 0.599088,0.21884 0.898974,0.48631 l 0.545238,0.4863 -0.714368,0.068 c -0.392903,0.0374 -1.042523,-0.0275 -1.443597,-0.14424 z m 21.317572,-0.55847 c -0.161958,-0.26159 0.693929,-0.51232 2.124842,-0.62247 0.869449,-0.0669 1.338017,-0.038 1.415616,0.0874 0.06823,0.1102 -0.0438,0.22364 -0.272117,0.27549 -1.486254,0.33755 -1.986593,0.42133 -2.538138,0.42497 -0.343914,0.003 -0.672505,-0.0721 -0.730203,-0.1653 z M 65.5652,132.23876 c -0.186354,-0.0749 -0.76962,-0.14564 -1.296135,-0.15721 -0.546532,-0.012 -1.307386,-0.17083 -1.773155,-0.37012 -0.852712,-0.36487 -1.079431,-0.38577 -2.606069,-0.24029 -1.245058,0.11865 -2.964741,-0.3805 -2.964741,-0.86052 0,-0.37523 0.31428,-0.38837 2.4565,-0.10272 0.698827,0.0932 2.109199,0.25495 3.134153,0.35945 1.024953,0.10453 2.282849,0.27079 2.795323,0.36949 0.940068,0.18106 2.202382,0.76657 2.202382,1.02155 0,0.17575 -1.4997,0.16063 -1.948258,-0.0197 z m 12.197788,-1.53929 c -0.372715,-0.0748 -0.868246,-0.0942 -1.101188,-0.0433 -0.292971,0.0642 -0.371313,0.0378 -0.254124,-0.0853 0.09318,-0.0978 0.398121,-0.20281 0.677653,-0.23322 0.440221,-0.0479 0.553593,-0.17408 0.84707,-0.94286 0.186354,-0.48815 0.466532,-0.92905 0.622613,-0.97976 0.210423,-0.0684 0.314645,-0.38537 0.40318,-1.22634 0.07679,-0.72939 0.24758,-1.31519 0.478582,-1.64146 0.283712,-0.40075 0.355183,-0.7383 0.340168,-1.60657 -0.01044,-0.60458 -0.119372,-1.32753 -0.242041,-1.60656 -0.151272,-0.34411 -0.207286,-1.09579 -0.17408,-2.33625 0.04655,-1.73887 0.03137,-1.8335 -0.30855,-1.92223 -0.473645,-0.12364 -0.481719,-0.93987 -0.01364,-1.37521 0.317034,-0.29483 0.342204,-0.51011 0.322099,-2.75465 -0.01197,-1.33917 -0.103742,-2.79164 -0.203866,-3.22775 -0.135534,-0.59032 -0.13125,-0.854 0.01678,-1.03201 0.109338,-0.13152 0.393883,-1.01134 0.632312,-1.95517 0.603468,-2.38881 0.420341,-2.59686 -0.984351,-1.11826 -0.961442,1.01201 -1.719255,1.28092 -2.008922,0.71284 -0.083,-0.16277 -0.220047,-0.42913 -0.304554,-0.5919 -0.08451,-0.16277 -0.236976,-0.27692 -0.338823,-0.25366 -0.520189,0.11875 0.161645,-2.18081 0.7633,-2.57434 0.223754,-0.14635 0.40683,-0.37849 0.40683,-0.51585 0,-0.89247 -1.279142,0.80633 -1.876212,2.49175 -0.703073,1.98466 -1.338767,2.52974 -1.733335,1.48627 -0.11423,-0.30208 -0.313896,-0.50733 -0.493527,-0.50733 -0.174617,0 -0.301416,-0.12465 -0.301051,-0.29595 6.4e-4,-0.3738 0.616113,-1.39518 0.840501,-1.39518 0.256819,0 0.760534,-1.0918 1.447528,-3.13753 0.675745,-2.01226 0.982822,-2.612267 1.336897,-2.612267 0.126204,0 0.324372,-0.114156 0.440369,-0.253677 0.346597,-0.416866 0.492887,-0.290232 0.39072,0.338227 -0.05295,0.325539 -0.02907,0.587657 0.05302,0.582487 0.179599,-0.0113 1.196561,-1.56765 2.119169,-3.2431 0.369333,-0.670714 0.776375,-1.335757 0.904531,-1.477883 0.128164,-0.142127 0.485882,-0.752348 0.794931,-1.356041 0.672127,-1.312927 0.818341,-1.040064 0.394197,0.735647 -0.763434,3.196138 -0.999521,4.005514 -1.511469,5.181675 -0.303639,0.697582 -0.754317,1.734452 -1.001506,2.304162 -0.247183,0.5697 -0.449429,1.1121 -0.449429,1.20535 0,0.0932 -0.114358,0.26427 -0.254124,0.38007 -0.139765,0.11578 -0.254117,0.3534 -0.254117,0.52804 0,0.17463 -0.114359,0.31751 -0.254124,0.31751 -0.139766,0 -0.254118,0.11416 -0.254118,0.25368 0,0.17107 0.171455,0.25365 0.526606,0.25365 0.472653,0 0.516052,-0.042 0.42358,-0.40974 -0.0869,-0.34564 0.04937,-0.53747 0.871056,-1.22606 0.535749,-0.44898 1.050316,-0.9003 1.143493,-1.00297 0.233378,-0.25711 0.978397,-0.74346 1.13889,-0.74346 0.229997,0 0.143293,0.83868 -0.242368,2.34446 -0.313173,1.22275 -0.370839,1.88734 -0.354165,4.08179 0.01095,1.44168 0.103057,3.60258 0.204673,4.80198 0.10161,1.19941 0.184747,3.52757 0.184747,5.17371 0,2.61078 -0.04546,3.12055 -0.355804,3.99185 -0.629963,1.76855 -1.002876,3.65946 -1.097475,5.56489 -0.110631,2.2284 -0.162016,2.51839 -0.507332,2.86308 -0.28464,0.28414 -0.768761,0.30784 -1.851195,0.0906 z m 0.490229,-29.85663 c 0.06333,-0.16469 0.02542,-0.242 -0.09834,-0.20081 -0.253246,0.0842 -0.392685,0.46862 -0.170007,0.46862 0.09097,0 0.211729,-0.12052 0.268351,-0.26781 z m -25.255652,29.51012 c -0.105983,-0.10579 -0.752254,-0.20931 -1.43615,-0.23002 -1.375244,-0.0416 -2.424907,-0.43093 -5.055263,-1.87483 -1.548818,-0.85021 -2.202376,-1.35932 -2.202376,-1.71559 0,-0.45504 1.207773,-0.0633 2.519884,0.81735 1.518628,1.01925 3.048115,1.66964 4.304404,1.83038 0.672575,0.0861 1.451575,0.23021 1.731106,0.32034 0.279531,0.0901 0.791454,0.21076 1.137602,0.26804 0.552186,0.0913 0.958996,0.35218 0.785269,0.50342 -0.209354,0.18223 -1.618938,0.24616 -1.784476,0.081 z m -1.699584,-2.38817 c -0.230964,-0.11133 -0.481265,-0.49938 -0.650843,-1.00903 -0.169271,-0.50871 -0.562059,-1.11823 -1.018371,-1.58027 -0.408552,-0.41368 -0.792991,-0.95168 -0.854306,-1.19555 -0.358077,-1.42414 0.709674,-6.61878 1.628664,-7.92351 0.266033,-0.37769 0.579718,-1.02916 0.697092,-1.44771 0.117368,-0.41856 0.411197,-0.99217 0.65295,-1.27473 0.241753,-0.28254 0.575415,-0.89134 0.741459,-1.35289 0.16605,-0.46155 0.413143,-1.04429 0.549099,-1.29499 0.393018,-0.72472 1.086045,-2.64855 1.086045,-3.01485 0,-0.18389 -0.07789,-0.33436 -0.173106,-0.33436 -0.26686,0 -1.467353,1.94986 -1.781178,2.89302 -0.300783,0.90397 -0.932046,2.1212 -1.525383,2.94134 -0.201869,0.27904 -0.730248,1.38249 -1.17417,2.45213 -0.443923,1.06963 -0.990832,2.36334 -1.215348,2.87491 -0.396521,0.90344 -0.854127,2.35965 -1.317726,4.1933 -0.124539,0.49261 -0.279243,0.94835 -0.343786,1.01278 -0.06454,0.0644 -0.5303,0.11799 -1.035025,0.11903 -1.065063,0.002 -1.058583,0.0113 -1.202036,-1.68276 -0.08494,-1.00308 -0.03656,-1.39959 0.280734,-2.30035 0.560638,-1.5916 0.904846,-2.19233 1.689474,-2.94857 0.386014,-0.37205 0.842083,-0.99194 1.013486,-1.37753 0.171409,-0.38559 0.719695,-1.33978 1.218421,-2.12044 1.091142,-1.70796 1.804216,-3.11826 3.874754,-7.66342 0.580493,-1.27428 0.723428,-1.43088 1.30971,-1.43486 0.318205,-0.002 0.381179,-0.0953 0.381179,-0.5638 0,-0.30865 -0.110773,-0.93649 -0.246159,-1.39517 -0.587382,-1.99001 -1.26524,-5.555765 -1.364109,-7.175675 -0.04585,-0.75133 -0.27243,-1.543287 -0.677365,-2.367566 -0.380936,-0.775436 -0.450819,-2.503363 -0.140937,-3.484672 0.232027,-0.73475 0.243482,-0.941341 0.06417,-1.157016 -0.323981,-0.389685 -0.809811,-0.318672 -1.127108,0.164716 -0.292542,0.445675 -0.290544,0.719666 0.03848,5.297358 0.106169,1.477005 0.09309,1.577436 -0.198104,1.521456 -0.601341,-0.115594 -0.893134,-0.985043 -1.183237,-3.52563 -0.404518,-3.542619 -0.508311,-6.822926 -0.24142,-7.630166 0.192136,-0.581153 0.181917,-0.693103 -0.09073,-0.993847 -0.487572,-0.5378 -1.044297,-0.435093 -1.400722,0.258399 l -0.306987,0.597325 -0.38004,-0.513115 c -0.287119,-0.387658 -0.405415,-0.841528 -0.483807,-1.856328 -0.103102,-1.334629 -0.101008,-1.343912 0.3282,-1.45143 0.494225,-0.123829 1.060107,0.181786 2.029104,1.095865 0.661191,0.623727 1.769025,1.101355 4.194842,1.808563 1.080295,0.314938 1.9173,0.430971 3.350659,0.464501 1.177269,0.02755 1.986863,0.120755 2.109205,0.242887 0.109204,0.109005 0.363258,0.198206 0.564563,0.198206 0.201305,0 0.624418,0.174848 0.940248,0.388567 0.315829,0.213718 0.898237,0.570182 1.294246,0.792146 0.396002,0.221964 0.720009,0.515381 0.720009,0.652047 0,0.212401 -0.401087,0.234282 -2.762361,0.150711 -2.541206,-0.08994 -2.828049,-0.132633 -3.582916,-0.533288 -0.948194,-0.503253 -1.318431,-0.540456 -1.689775,-0.169768 -0.297671,0.29714 -0.338644,0.711032 -0.106623,1.077089 0.205819,0.32471 2.084567,0.571909 3.991039,0.525123 0.838593,-0.02056 2.363317,0.055 3.388271,0.16797 1.644421,0.181237 1.94069,0.173041 2.519544,-0.06968 0.360792,-0.15131 0.787798,-0.275109 0.948892,-0.275109 0.1611,0 0.651362,-0.19025 1.08947,-0.422775 0.999694,-0.530594 1.412658,-0.531203 2.129741,-0.003 0.436335,0.321346 0.623598,0.37518 0.799105,0.22979 0.129956,-0.107658 0.184267,-0.331279 0.125423,-0.516369 -0.11489,-0.361345 0.340104,-0.978674 0.721315,-0.978674 0.128605,0 0.402847,0.110553 0.609435,0.245672 0.314261,0.205533 0.564895,0.213299 1.53445,0.04752 1.090456,-0.186447 1.198431,-0.175397 1.830014,0.187456 0.476181,0.273562 1.025363,0.405586 1.890221,0.454429 0.990083,0.0559 1.274724,0.136886 1.515516,0.431171 0.631001,0.771184 0.1867,1.415185 -0.688461,0.997899 -0.30408,-0.144981 -1.748036,-0.254725 -4.351601,-0.33073 -2.776024,-0.08105 -4.059565,-0.183073 -4.463519,-0.354857 -0.547307,-0.232734 -0.613527,-0.216144 -1.906191,0.477608 -0.736555,0.395305 -1.491531,0.718728 -1.677731,0.718728 -0.260008,0 -0.338535,0.112888 -0.338535,0.486642 0,0.267642 -0.118738,0.584986 -0.263869,0.705211 -0.145125,0.120236 -0.251403,0.41493 -0.236163,0.654882 0.04546,0.716032 0.0074,0.815535 -0.347039,0.90806 -0.252587,0.06598 -0.339713,0.232365 -0.342306,0.653893 -0.01454,2.356765 -0.888582,10.358745 -1.168241,10.695125 -0.106796,0.12845 -0.380296,0.70762 -0.607776,1.28705 -0.227481,0.57943 -0.530281,1.13952 -0.672883,1.24465 -0.142608,0.10512 -0.474804,0.79994 -0.738219,1.54403 -0.263415,0.7441 -0.599606,1.61925 -0.7471,1.94479 -0.516155,1.13927 -1.640855,3.81108 -1.88647,4.48147 -0.136314,0.37204 -0.45126,1.20915 -0.69989,1.86023 -0.822208,2.15308 -1.229761,3.36387 -1.679242,4.98881 -0.244423,0.8836 -0.551135,1.94901 -0.68159,2.36756 -0.130456,0.41856 -0.284673,1.04639 -0.342704,1.39517 -0.09,0.54091 -0.05974,0.63418 0.205717,0.63418 0.367368,0 1.592218,-1.22009 1.952382,-1.94479 0.138677,-0.27903 0.305637,-0.75529 0.371018,-1.05836 0.06539,-0.30306 0.257152,-0.62489 0.426148,-0.71517 0.480317,-0.2566 0.716045,0.18232 0.652335,1.21462 -0.05302,0.85894 -0.03733,0.89713 0.368168,0.89713 0.383478,0 0.433665,-0.0828 0.530652,-0.87605 0.123835,-1.01278 0.661562,-1.86699 1.271452,-2.01979 0.638472,-0.15996 1.899506,0.0622 2.517578,0.4435 0.301731,0.18614 0.711134,0.33844 0.909789,0.33844 0.198648,0 0.361182,0.0766 0.361182,0.17024 0,0.0936 0.198597,0.34095 0.44133,0.54961 0.43766,0.37624 1.252805,1.85017 1.252805,2.26532 0,0.38979 -0.605208,0.55104 -1.936855,0.51605 -1.245743,-0.0327 -1.331159,-0.0109 -1.719958,0.44007 -0.615236,0.71355 -0.531625,1.03941 0.353249,1.37675 0.776829,0.29614 0.923139,0.48173 0.557577,0.70726 -0.112636,0.0695 -1.313353,0.15001 -2.668268,0.17893 -3.703479,0.0791 -3.89,0.11847 -4.191781,0.88536 l -0.25066,0.63697 -0.854069,-0.082 c -0.673779,-0.0646 -0.886898,-0.0234 -1.009548,0.19541 -0.175136,0.31239 -0.716103,0.34356 -1.276299,0.0736 z m 0.730875,-4.78503 c 0.173113,-0.4932 0.107315,-1.44001 -0.118975,-1.71219 -0.249699,-0.30033 -0.141174,-0.951 0.522936,-3.13524 0.846732,-2.78489 1.667646,-4.97271 2.718129,-7.24408 2.47626,-5.3542 2.516637,-5.47509 1.951992,-5.84441 -0.237579,-0.15538 -0.431962,-0.36128 -0.431962,-0.45756 0,-0.0963 -0.204456,-0.57812 -0.454347,-1.07075 -0.462267,-0.91134 -0.731547,-1.03542 -0.731547,-0.33713 0,0.65375 -0.349849,1.43341 -0.691816,1.54175 -0.178568,0.0566 -0.324667,0.25232 -0.324667,0.435 0,0.39657 0.486548,0.63018 0.675816,0.32449 0.216173,-0.34915 0.510328,-0.0263 0.507005,0.55662 -0.0026,0.4983 -0.56145,1.94988 -2.608848,6.77929 -1.431373,3.37634 -2.954176,8.00259 -3.21761,9.77501 -0.117419,0.79005 -0.114435,0.79647 0.522373,1.1226 0.63983,0.32767 0.640919,0.32764 1.101636,-0.0335 0.253644,-0.19887 0.514593,-0.51378 0.579885,-0.69981 z M 59.3816,98.817647 c 0,-1.530649 -0.04873,-1.934798 -0.233378,-1.934798 -0.456953,0 -0.676782,0.522159 -0.664002,1.577196 0.013,1.072037 0.475836,2.552475 0.745916,2.385855 0.0833,-0.0514 0.151464,-0.964102 0.151464,-2.028253 z m -3.973073,-1.114881 c 0.05468,-0.171923 0.165045,-0.312582 0.245288,-0.312582 0.404909,0 0.678338,-0.580265 0.678338,-1.439551 0,-0.852919 -0.158783,-1.172299 -0.586205,-1.179097 -0.08946,-9.98e-4 -0.333694,-0.255923 -0.542728,-0.565561 L 54.823155,93.643 l -0.26198,0.625903 c -0.172722,0.412634 -0.261987,1.162416 -0.261987,2.200504 v 1.5746 l 0.504976,-0.01427 c 0.334142,-0.009 0.538598,-0.120086 0.604363,-0.326917 z M 51.188726,85.602855 c 0.0757,-0.301043 0.0026,-0.521948 -0.257933,-0.782274 -0.715655,-0.714385 -1.283182,0.33057 -0.593005,1.091852 0.336473,0.371138 0.714355,0.233663 0.850938,-0.309578 z M 42.05517,125.80099 c -0.236913,-0.18602 -0.575006,-0.33822 -0.751326,-0.33822 -0.176314,0 -0.412062,-0.0913 -0.523871,-0.20293 -0.276426,-0.27594 -0.24249,-2.38192 0.06895,-4.27854 0.137455,-0.8371 0.315203,-2.54936 0.394998,-3.80502 0.07979,-1.25565 0.25833,-2.62546 0.396757,-3.04401 0.406184,-1.22818 1.435818,-3.79089 2.265684,-5.63924 1.145388,-2.55107 1.732079,-4.39484 1.938993,-6.09357 0.101764,-0.83542 0.234889,-5.095572 0.295853,-9.466992 l 0.11083,-7.948049 0.465078,-0.123979 c 0.290448,-0.07746 0.509458,-0.05231 0.583272,0.06688 0.065,0.105002 0.174124,1.334948 0.242483,2.733233 0.26814,5.484544 0.489352,9.34859 0.586064,10.236925 0.102007,0.936968 0.56252,1.691113 1.032669,1.691113 0.41945,0 0.902239,0.661149 0.902239,1.235559 0,0.39989 -0.262787,0.94164 -0.922869,1.90251 -1.570877,2.28669 -4.589077,8.71276 -6.204461,13.20998 -0.470406,1.30962 -0.496281,1.5227 -0.496281,4.08714 0,1.48803 -0.04629,2.82587 -0.102833,2.973 -0.05654,0.14712 -0.285268,0.2675 -0.508241,0.2675 -0.24742,0 -0.405408,0.0988 -0.405408,0.25366 0,0.13952 0.147334,0.25367 0.327406,0.25367 0.193097,0 0.373797,0.1561 0.440485,0.3805 0.06217,0.20928 0.303299,0.66141 0.535806,1.00474 0.626973,0.92584 0.203392,1.33168 -0.672274,0.6441 z m 24.950047,-0.99396 c 0,-0.21094 0.435035,-0.54475 0.55451,-0.42548 0.163693,0.1634 -0.06413,0.57388 -0.318519,0.57388 -0.129796,0 -0.235991,-0.0668 -0.235991,-0.1484 z m -0.804714,-0.81085 c -0.116478,-0.0459 -0.211768,-0.33043 -0.211768,-0.63212 0,-0.51437 0.03195,-0.54383 0.512941,-0.47335 0.52202,0.0765 0.990371,0.64035 0.731003,0.88009 -0.210801,0.19485 -0.789482,0.3212 -1.032176,0.22538 z m 4.300184,-4.39527 c -0.163694,-1.19217 -0.120819,-1.80054 0.152309,-2.161 0.362848,-0.47887 0.305585,-1.22155 -0.127529,-1.65389 -0.267372,-0.2669 -0.408738,-0.67065 -0.488488,-1.39518 -0.06172,-0.56077 -0.270874,-1.38105 -0.464784,-1.82286 -0.310387,-0.70718 -0.414718,-0.80328 -0.872138,-0.80328 -0.741479,0 -0.78872,-0.35816 -0.185957,-1.40982 0.346801,-0.60506 0.524082,-1.14413 0.524082,-1.59358 0,-0.37358 0.188941,-1.33008 0.419879,-2.12557 0.230932,-0.79548 0.568187,-2.11673 0.74945,-2.93609 0.181264,-0.81938 0.557743,-2.18117 0.836615,-3.02621 0.53596,-1.624066 1.300303,-5.686907 1.145587,-6.089369 -0.119564,-0.311015 -0.599318,-0.301822 -1.253677,0.02406 -0.494026,0.246011 -0.547319,0.24064 -0.876979,-0.08844 -0.279602,-0.279102 -0.419111,-0.31397 -0.685932,-0.171424 -0.365697,0.195361 -0.430521,0.426339 -0.165531,0.589817 0.280062,0.172772 0.191053,0.895452 -0.13942,1.131921 -0.186655,0.133551 -0.303946,0.41984 -0.296474,0.723668 0.0086,0.350006 -0.07784,0.520731 -0.284628,0.562107 -0.388818,0.07776 -0.575159,-0.427696 -0.312455,-0.847617 0.16701,-0.266944 0.155952,-0.406744 -0.05795,-0.732653 -0.346821,-0.528377 -0.351021,-0.517177 0.286235,-0.763518 0.48592,-0.187845 0.507268,-0.220776 0.181718,-0.280359 -0.533181,-0.09763 -0.852974,-0.518955 -0.497273,-0.655201 0.433742,-0.166154 0.318942,-0.448241 -0.437788,-1.075781 -0.453175,-0.37581 -0.951171,-0.617359 -1.394607,-0.676453 -1.032976,-0.137645 -0.906497,-0.541694 0.242047,-0.77324 0.512474,-0.103326 1.084246,-0.267234 1.2706,-0.364241 0.186354,-0.09703 0.66913,-0.226785 1.072835,-0.288375 0.403706,-0.06159 1.118541,-0.306483 1.588524,-0.544209 0.820319,-0.41495 0.908975,-0.424932 2.215317,-0.249435 0.748438,0.100541 1.796763,0.182804 2.329604,0.182804 1.234621,0 1.453817,0.220716 1.115448,1.123166 -0.13456,0.35888 -0.528033,1.413518 -0.87438,2.343628 -0.766482,2.058378 -1.827107,4.580418 -2.453599,5.83436 -0.845163,1.691634 -2.555882,6.274224 -2.581488,6.915154 -0.03643,0.91235 0.51816,1.60866 1.499797,1.88301 0.612873,0.17129 0.85989,0.17565 1.110261,0.0196 0.226745,-0.14135 0.417818,-0.14956 0.645804,-0.0277 0.178088,0.0951 0.486413,0.17298 0.68517,0.17298 0.28886,0 0.338951,0.0706 0.249603,0.35156 -0.155248,0.48825 -1.489321,1.8469 -1.813507,1.8469 -0.28943,0 -1.994059,1.86792 -1.994059,2.18508 0,0.10692 0.113148,0.36676 0.251441,0.57745 0.16482,0.2511 0.290448,1.06483 0.364672,2.36207 0.100643,1.75897 0.07965,2.01604 -0.188743,2.31209 -0.234594,0.25876 -0.283597,0.52392 -0.219637,1.18839 0.104075,1.08122 -0.126063,1.27372 -0.269952,0.2258 z M 71.975633,92.560491 C 71.85532,92.24752 71.361768,92.110893 70.83143,92.243766 c -0.589253,0.147637 -0.552928,0.278503 0.197361,0.711062 0.569287,0.328204 0.6561,0.338735 0.835436,0.101359 0.110068,-0.1457 0.160204,-0.368762 0.111406,-0.495696 z m -8.923434,23.305179 c -0.155101,-0.5786 -0.118187,-3.09396 0.06192,-4.21934 0.373195,-2.33192 1.592718,-6.13502 2.012034,-6.27454 0.198481,-0.0661 0.219413,0.16807 0.124833,1.39633 -0.156356,2.03053 -0.584014,4.58909 -0.888741,5.3171 -0.45817,1.09461 -0.570767,1.91644 -0.371101,2.70856 0.173695,0.68905 0.158673,0.76983 -0.196535,1.05695 -0.479889,0.38789 -0.641553,0.39115 -0.742401,0.015 z m 18.692012,-14.74504 c 0,-0.18054 0.07037,-0.37166 0.156375,-0.42472 0.08601,-0.0531 0.209508,-0.34293 0.274447,-0.64415 0.06493,-0.301227 0.342563,-1.042335 0.616952,-1.646906 0.27439,-0.604582 0.565453,-1.403626 0.646803,-1.775682 0.270862,-1.23875 0.760989,-2.436782 1.102251,-2.694223 0.505956,-0.381689 0.580135,-0.323094 0.402771,0.318132 -0.178267,0.64448 -1.749707,4.572193 -2.015389,5.037313 -0.09225,0.161511 -0.167727,0.411875 -0.167727,0.556357 0,0.373649 -0.65215,1.602119 -0.850516,1.602119 -0.09128,0 -0.165967,-0.14771 -0.165967,-0.32824 z M 77.00157,97.537721 c 0.0013,-0.673239 0.331018,-1.676409 1.117491,-3.402949 0.413092,-0.906862 0.839079,-2.029389 0.946631,-2.494489 0.212338,-0.918271 0.650626,-1.451939 1.062777,-1.294061 0.418419,0.160274 0.31291,0.582321 -0.682891,2.731596 -0.517128,1.116139 -1.169374,2.575844 -1.44943,3.243783 -0.571535,1.363098 -0.996146,1.882291 -0.994578,1.21612 z m 8.077645,-4.31577 c -0.213497,-0.21311 -0.119468,-0.686186 0.222685,-1.120391 0.186354,-0.236488 0.338823,-0.613435 0.338823,-0.837675 0,-0.566939 0.490408,-2.160186 0.664917,-2.160186 0.21844,0 0.690395,-1.092082 0.690395,-1.59753 0,-0.253707 -0.186674,-0.633529 -0.431437,-0.877863 l -0.431437,-0.430672 0.407106,-0.376618 c 0.223907,-0.20714 0.440682,-0.477169 0.481726,-0.600079 0.118789,-0.355736 0.990524,0.552404 0.990524,1.031889 0,0.224429 -0.119564,0.578437 -0.265694,0.786696 -0.14613,0.208258 -0.415096,0.916834 -0.597704,1.57463 -0.182602,0.657777 -0.532483,1.588756 -0.777502,2.068819 -0.245025,0.480064 -0.609915,1.273807 -0.810881,1.763873 -0.200959,0.490076 -0.417645,0.838863 -0.481521,0.775107 z m -1.974063,-4.234085 c -0.01133,-0.402792 0.33726,-1.085404 0.502292,-0.983595 0.09335,0.0576 0.169732,0.16789 0.169732,0.245102 0,0.226836 -0.665833,0.95853 -0.672024,0.738493 z m -3.563323,-3.097304 c 0,-0.09303 0.07623,-0.169108 0.169418,-0.169108 0.09318,0 0.169411,0.07606 0.169411,0.169108 0,0.09303 -0.07623,0.169118 -0.169411,0.169118 -0.09318,0 -0.169418,-0.07606 -0.169418,-0.169118 z m 5.986738,-4.06917 c -0.108711,-0.108526 -0.147699,-0.629227 -0.0985,-1.315553 0.0966,-1.347725 -0.01998,-1.499165 -1.215309,-1.578443 l -0.828963,-0.055 -0.451792,1.099229 c -0.489237,1.190326 -0.825851,1.41193 -1.381789,0.909716 -0.225758,-0.203946 -0.757639,-0.343906 -1.619123,-0.426039 -0.705609,-0.06728 -1.362439,-0.201691 -1.459611,-0.298697 -0.122638,-0.122422 -0.08944,-0.914848 0.108538,-2.590518 0.156874,-1.327791 0.33315,-2.851732 0.391725,-3.386548 0.08692,-0.793644 0.163905,-0.972395 0.418778,-0.972395 0.460122,0 0.557544,0.666002 0.320203,2.188984 -0.11416,0.732543 -0.21837,1.887103 -0.231579,2.565673 l -0.02401,1.233778 0.720009,0.125536 c 0.396002,0.06908 1.033534,0.07207 1.416736,0.007 0.751275,-0.128022 0.720233,-0.07587 1.780128,-2.992201 0.519152,-1.428462 0.928191,-1.997237 1.568098,-2.18044 0.895452,-0.256343 1.055502,0.0573 1.211986,2.375182 0.216295,3.203834 0.254374,5.031762 0.109543,5.259117 -0.164769,0.258668 -0.493533,0.272883 -0.735056,0.03174 z m -0.178747,-4.25959 c 0.04188,-0.116272 0.04329,-0.477737 0.0032,-0.803287 -0.205519,-1.666027 -0.381071,-1.737899 -1.009382,-0.413252 -0.454737,0.958699 -0.424822,1.158283 0.195953,1.307337 0.590699,0.141837 0.732187,0.125975 0.810285,-0.09084 z m -14.057704,1.909952 c -0.906491,-0.551745 -1.141086,-1.075311 -1.114046,-2.486313 0.01441,-0.750222 -0.04021,-1.208364 -0.136878,-1.148731 -0.246184,0.151879 -0.746043,1.220503 -1.162894,2.486094 -0.326459,0.991142 -0.429951,1.141504 -0.785704,1.141504 -0.54429,0 -0.540839,-0.490116 0.01383,-1.961061 0.232943,-0.617778 0.423535,-1.305511 0.423535,-1.528313 0,-0.222803 -0.268095,-1.068773 -0.595764,-1.879926 -0.327669,-0.811163 -0.55661,-1.576687 -0.508753,-1.701175 0.193813,-0.50416 0.672127,-0.07866 1.104524,0.982447 0.24635,0.604571 0.549323,1.099229 0.673273,1.099229 0.12395,0 0.427492,-0.374262 0.674541,-0.831696 0.247048,-0.457434 0.597563,-0.8856 0.778929,-0.951493 0.376826,-0.136905 0.753286,0.09833 0.753286,0.470711 0,0.191109 0.113519,0.224329 0.465885,0.136336 1.038112,-0.259227 1.54684,-0.284023 1.904667,-0.09283 0.30871,0.164926 0.357174,0.295782 0.270234,0.729698 -0.148909,0.743204 -0.366952,0.909947 -0.744219,0.569135 -1.012019,-0.914239 -2.404808,0.66091 -2.404808,2.719667 0,0.793614 0.812097,1.620509 1.43761,1.463788 0.773308,-0.193734 0.96278,-0.161501 1.212537,0.206252 0.21609,0.318173 0.21269,0.393159 -0.02875,0.634169 -0.380309,0.379623 -1.562937,0.349167 -2.231017,-0.0575 z m 3.450834,-0.172502 c -0.542069,-0.643062 -0.687059,-1.321033 -0.537715,-2.514244 0.212159,-1.695006 1.0418,-2.901393 1.995334,-2.901393 2.165521,0 2.480307,3.774276 0.456556,5.474113 -0.716647,0.601946 -1.374412,0.581852 -1.914175,-0.0585 z m 1.61233,-1.314674 c 0.57044,-0.610511 0.814761,-1.10391 0.814761,-1.645414 0,-0.573717 -0.732591,-1.31161 -1.231862,-1.240776 -0.521245,0.07397 -0.969932,1.041092 -0.970258,2.091368 -3.4e-4,1.314185 0.587427,1.650954 1.387359,0.794822 z m -14.156286,0.93012 c -0.05615,-0.209276 -0.103191,-0.771892 -0.104465,-1.250249 -0.0026,-0.940232 -0.130744,-1.075042 -1.022649,-1.075042 -0.615518,0 -0.786844,0.271456 -0.423958,0.671732 0.260508,0.287347 0.261584,0.353579 0.01351,0.832444 -0.35987,0.694671 -0.943783,0.824669 -1.675778,0.373075 -0.358263,-0.221016 -0.859525,-0.355246 -1.326665,-0.355246 -1.139472,0 -1.489404,-0.567967 -0.841794,-1.366303 l 0.315631,-0.389095 0.194665,0.363082 c 0.116343,0.217003 0.432711,0.407672 0.786306,0.473884 0.811047,0.151889 1.361132,-0.230319 1.515779,-1.053171 0.06594,-0.350874 0.227948,-0.846529 0.360023,-1.101474 0.132069,-0.254945 0.479645,-1.132729 0.772386,-1.95063 0.637256,-1.780453 0.727686,-1.909882 1.334393,-1.909882 0.637589,0 0.842166,0.630115 0.845496,2.604193 0.0032,1.750617 0.198904,2.336501 0.512832,1.533324 0.119064,-0.304636 0.162701,-1.012513 0.111112,-1.802663 -0.0582,-0.891759 -0.01857,-1.391657 0.125999,-1.589035 0.195324,-0.266654 0.285031,-0.251471 1.21157,0.205044 0.752626,0.370819 1.141066,0.701778 1.567246,1.335358 0.532278,0.791308 0.562955,0.915017 0.506314,2.041387 -0.08367,1.663812 -0.582119,2.397582 -2.171379,3.196497 -1.437246,0.722491 -2.447594,0.804964 -2.606581,0.21277 z m 3.569214,-2.26967 c 0.65263,-0.854126 0.649543,-1.797842 -0.0087,-2.659315 -0.581806,-0.761422 -1.25084,-1.124294 -1.457498,-0.79051 -0.07576,0.122362 -0.146207,1.018942 -0.156555,1.992415 -0.01037,0.973463 -0.06384,1.842643 -0.118827,1.931494 -0.055,0.08884 -0.0095,0.270378 0.101014,0.40336 0.17415,0.209467 0.265566,0.208508 0.68348,-0.007 0.265342,-0.136966 0.696036,-0.528567 0.957088,-0.870227 z m -3.709607,-2.406007 c 0.06686,-1.416024 -0.18848,-1.676489 -0.641437,-0.654323 -0.189095,0.426709 -0.392045,1.016596 -0.450998,1.310851 -0.104907,0.523596 -0.09493,0.533858 0.46707,0.480274 l 0.574275,-0.0548 z m -8.716398,4.121466 c -0.115537,-0.300544 0.02933,-3.31204 0.207221,-4.307983 l 0.105682,-0.591665 -0.82167,0.905415 c -0.798996,0.880429 -0.829737,0.8965 -1.114416,0.582491 -0.161018,-0.177604 -0.392206,-0.760014 -0.513748,-1.294231 -0.121549,-0.534227 -0.294675,-0.986211 -0.38474,-1.004428 -0.09006,-0.01817 -0.316214,1.069282 -0.502568,2.416648 -0.270182,1.953445 -0.394574,2.4603 -0.613987,2.501846 -0.476207,0.09014 -0.488302,-0.404698 -0.07046,-2.882048 0.223517,-1.325225 0.460378,-2.967615 0.526362,-3.649778 0.194754,-2.013447 0.919406,-1.789387 1.615922,0.499659 0.194703,0.639878 0.449122,1.163414 0.565369,1.163414 0.242694,0 0.673759,-0.45951 0.820812,-0.874959 0.247727,-0.699911 0.994744,-1.661715 1.290615,-1.661715 0.640048,0 0.669476,0.729698 0.180745,4.481464 -0.469253,3.602303 -0.530485,3.874976 -0.885265,3.942556 -0.163341,0.03114 -0.345988,-0.07087 -0.405874,-0.226686 z m 1.714522,-0.256861 c -0.228256,-0.368673 0.545321,-5.046267 0.90133,-5.450066 0.488526,-0.554112 0.569365,-0.04412 0.299336,1.88843 -0.145234,1.039466 -0.264068,2.214549 -0.264068,2.611301 0,0.721792 -0.221859,1.127229 -0.61683,1.127229 -0.115633,0 -0.259528,-0.07956 -0.319768,-0.176894 z M 47.25144,71.685157 c 0.246805,-4.227227 0.718722,-6.354482 1.326518,-5.979511 0.187225,0.115504 0.136551,0.511048 -0.365242,2.850944 -0.199468,0.93011 -0.470067,2.403351 -0.601329,3.273858 -0.131269,0.870507 -0.291505,1.631509 -0.356079,1.691123 -0.06458,0.05959 -0.06632,-0.766782 -0.0038,-1.836414 z m 41.773455,1.094298 c -0.172235,-0.20716 -0.174899,-0.652915 -0.01338,-2.240732 0.110888,-1.090175 0.17924,-2.324592 0.151906,-2.743136 -0.04706,-0.721133 -0.02773,-0.758536 0.370236,-0.713866 0.622202,0.06987 0.724997,0.261753 0.529365,0.988297 -0.09711,0.360626 -0.183851,1.37864 -0.19277,2.262243 -0.01582,1.570229 -0.223505,2.705793 -0.494808,2.705793 -0.07454,0 -0.232283,-0.116373 -0.350534,-0.258599 z M 85.683079,67.32311 c -0.459476,-0.04702 -0.550597,-0.126324 -0.550597,-0.479474 0,-0.977766 0.675988,-1.395051 1.244347,-0.76814 0.329513,0.363462 0.372951,1.148731 0.06861,1.240228 -0.116472,0.03504 -0.459534,0.03833 -0.762359,0.007 z m -6.691841,-0.724856 c -0.477494,-0.277615 -0.342825,-0.493789 0.307608,-0.493789 0.775562,0 1.40863,0.309218 1.070588,0.522917 -0.313909,0.198456 -1.012154,0.183692 -1.378196,-0.02915 z m -5.040062,-0.493789 c 0.328456,-0.211882 0.508241,-0.211882 0.508241,0 0,0.09303 -0.171531,0.16794 -0.381179,0.166523 -0.308236,-0.002 -0.332555,-0.03394 -0.127062,-0.166523 z m 0.677659,0 c 0,-0.09303 0.266821,-0.169119 0.592947,-0.169119 0.326119,0 0.592947,0.07606 0.592947,0.169119 0,0.09303 -0.266828,0.169108 -0.592947,0.169108 -0.326126,0 -0.592947,-0.07606 -0.592947,-0.169108 z m -13.5531,-0.625934 c -1.375975,-0.08275 -4.297694,-0.554979 -4.466235,-0.721862 -0.485619,-0.480852 0.869936,-0.678419 2.179153,-0.317613 1.005565,0.277126 1.767411,0.21308 2.191049,-0.184201 0.497177,-0.466238 2.268885,-0.472298 4.064425,-0.01388 0.748995,0.191218 2.121979,0.367135 3.199636,0.409958 1.711763,0.06808 1.902356,0.107878 2.04531,0.427677 0.0867,0.193964 0.107981,0.402232 0.04725,0.462824 -0.0607,0.06059 -0.854088,0.008 -1.763102,-0.11741 -1.797243,-0.247469 -3.47877,-0.242308 -3.95506,0.01218 -0.28589,0.152728 -1.471592,0.166912 -3.542456,0.04242 z m 27.026751,-0.87952 c -0.0607,-0.19094 -0.372618,-0.660482 -0.693122,-1.043419 -0.320511,-0.382946 -0.582741,-0.879311 -0.582741,-1.103032 0,-0.337857 0.08482,-0.406784 0.500564,-0.406784 0.440177,0 0.514305,-0.07317 0.614474,-0.606118 0.06262,-0.333355 0.03022,-1.151446 -0.07212,-1.817947 -0.185739,-1.209891 -0.428587,-3.371334 -0.630174,-5.608752 -0.05865,-0.651089 -0.220348,-1.526237 -0.359294,-1.94479 -0.138952,-0.418554 -0.31574,-1.421604 -0.392864,-2.229003 -0.124905,-1.307567 -0.212236,-1.575529 -0.799138,-2.452125 -0.890528,-1.330077 -1.134452,-2.162143 -1.016028,-3.465817 0.05302,-0.583698 0.167504,-1.084924 0.254399,-1.113842 0.0869,-0.02885 0.297409,-0.154335 0.467806,-0.278703 0.299105,-0.21832 0.296787,-0.283903 -0.06692,-1.896416 -0.31259,-1.385858 -0.347634,-1.821161 -0.205794,-2.556409 0.150081,-0.777932 0.12833,-0.95825 -0.178132,-1.476745 -0.496152,-0.839423 -1.043919,-4.647877 -0.937123,-6.515495 0.0452,-0.7906 0.03932,-1.801865 -0.01313,-2.247251 -0.08264,-0.702057 -0.142788,-0.803296 -0.452132,-0.761002 -0.306244,0.04183 -0.354843,-0.03504 -0.342946,-0.543101 0.03073,-1.312538 0.44405,-3.632099 0.75591,-4.242301 0.182276,-0.356653 0.331415,-0.808707 0.331415,-1.004557 0,-0.195841 0.07469,-0.495376 0.165973,-0.665643 0.09128,-0.170266 0.179106,-1.05906 0.195165,-1.975096 0.03752,-2.139362 0.136699,-2.512796 0.667536,-2.512796 0.320363,0 0.396771,0.07477 0.34545,0.338226 -0.03624,0.186028 -0.124039,1.327532 -0.195113,2.536684 -0.128477,2.185681 -0.320773,3.718086 -0.689678,5.496144 -0.195094,0.940282 -0.242566,5.633399 -0.06,5.928323 0.05436,0.08784 0.237322,0.159705 0.406529,0.159705 0.411203,0 0.515912,0.592443 0.534263,3.022876 0.0082,1.081261 0.06534,2.328146 0.127062,2.770846 0.09818,0.704234 0.186386,0.841739 0.705167,1.099229 0.482398,0.239433 0.615389,0.42042 0.71333,0.970758 0.237015,1.331744 0.842147,5.102346 1.072042,6.679922 0.220572,1.513569 0.439203,2.944007 1.253612,8.201926 0.22501,1.452728 0.338158,3.00394 0.333567,4.57304 -0.0051,1.724883 0.065,2.580875 0.256038,3.128568 0.285736,0.819199 0.34351,1.810719 0.125493,2.153658 -0.138158,0.217312 -0.916723,0.327186 -1.37486,0.194043 -0.178479,-0.05191 -0.275197,0.126165 -0.349798,0.643892 -0.122644,0.851161 -0.263601,1.044636 -0.414732,0.569304 z M 52.647402,63.146542 c -0.700537,-0.303937 -0.693064,-0.462964 0.0381,-0.811013 0.708861,-0.337428 1.0421,-1.031879 1.368239,-2.851342 0.358916,-2.002308 0.584188,-2.824371 1.174862,-4.287451 0.756557,-1.873936 1.557801,-3.977832 1.704047,-4.474476 0.12313,-0.418124 0.727731,-1.522613 1.947842,-3.558341 0.362355,-0.604572 1.010233,-1.708033 1.43973,-2.452125 0.42949,-0.744092 1.022956,-1.70373 1.318808,-2.132535 0.295853,-0.428805 0.624437,-0.923462 0.730196,-1.099229 0.179817,-0.298847 0.206947,-0.288016 0.418189,0.166972 0.209988,0.452293 0.175975,0.583319 -0.482879,1.860231 -0.996299,1.930925 -3.602957,7.263041 -4.143771,8.476386 -0.248738,0.558065 -0.694537,1.54737 -0.990652,2.198448 -0.788214,1.733058 -1.663631,4.068072 -1.720356,4.588723 -0.04034,0.370518 0.03643,0.476729 0.421147,0.582351 0.449148,0.12331 0.497151,0.07636 1.057264,-1.033886 0.322713,-0.639678 0.898954,-1.946387 1.280537,-2.903789 0.381583,-0.957402 1.100138,-2.501736 1.59679,-3.431847 0.496651,-0.93012 1.239852,-2.452124 1.651555,-3.382245 0.411702,-0.93012 1.161402,-2.62288 1.665993,-3.761708 0.613796,-1.385279 1.006046,-2.070935 1.185139,-2.071624 0.147238,-5.09e-4 0.719003,0.183413 1.270606,0.408851 1.082395,0.44238 1.497702,0.351872 1.12429,-0.244993 -0.179945,-0.287627 -0.165224,-0.334004 0.106022,-0.334004 0.17324,0 0.568871,0.08834 0.879182,0.196329 0.531266,0.18487 0.542382,0.204386 0.190484,0.334334 -0.275594,0.101768 -0.352795,0.238923 -0.294047,0.522388 0.343344,1.656704 0.30935,1.967529 -0.296448,2.710683 -0.972276,1.192712 -1.723429,2.901084 -2.992422,6.805767 -0.665013,2.046259 -1.374239,4.057062 -1.57605,4.468458 -0.298906,0.609322 -0.322617,0.762739 -0.127907,0.827533 0.131467,0.04372 0.526868,0.353998 0.87867,0.68945 1.294022,1.233908 1.730152,1.501142 2.520044,1.544105 0.418278,0.02276 0.855798,0.03114 0.972269,0.01867 0.369116,-0.03953 0.228813,-0.661221 -0.230663,-1.022007 -0.508055,-0.398918 -0.503682,-0.570382 0.07369,-2.890273 0.196765,-0.790599 0.671877,-2.876498 1.05581,-4.63533 0.686245,-3.14376 0.711332,-3.459797 0.410652,-5.17317 -0.09077,-0.517247 -0.0073,-0.721053 0.662106,-1.616146 0.699129,-0.934872 1.081608,-1.251158 1.797865,-1.486707 0.160537,-0.05281 0.117425,-0.08844 -0.117061,-0.09693 -0.475297,-0.01717 -0.624366,-0.257331 -0.31745,-0.511598 0.276349,-0.228941 1.27571,-0.08974 1.728482,0.240721 0.248937,0.181696 0.339015,0.161532 0.574384,-0.128621 0.741805,-0.914458 0.892411,0.553513 0.2505,2.441564 -0.232296,0.683241 -0.422889,1.378471 -0.423536,1.544944 -6.4e-4,0.166473 -0.146392,0.586813 -0.323872,0.934083 -0.177479,0.34727 -0.374129,1.010128 -0.436994,1.472992 -0.06288,0.462874 -0.261801,1.301827 -0.442079,1.864343 -0.703675,2.195623 -1.195268,4.620516 -1.290481,6.365583 -0.145144,2.660134 0.165883,3.148013 2.059243,3.230157 0.913035,0.03963 1.372606,0.434953 0.969733,0.834191 -0.280305,0.277785 -5.372059,0.223761 -6.075913,-0.06449 -0.26125,-0.106989 -1.161133,-0.248886 -1.999726,-0.315337 -0.8386,-0.06648 -1.867792,-0.251991 -2.287089,-0.412305 -0.654179,-0.250123 -0.891124,-0.26297 -1.669727,-0.09064 -0.983065,0.217652 -0.970425,0.186597 -0.601674,1.479241 0.08917,0.312592 0.04162,0.380501 -0.266257,0.380501 -0.20614,0 -0.577158,-0.104444 -0.824475,-0.232106 -0.613603,-0.316725 -1.486139,-0.570871 -2.397931,-0.698464 -0.7259,-0.101578 -0.794393,-0.07377 -1.432046,0.581054 -0.59296,0.608953 -0.757941,0.686994 -1.440018,0.681124 -0.423683,-0.004 -1.018102,-0.114116 -1.320928,-0.245502 z M 48.592339,61.43295 c -0.06487,-0.168739 0.0097,-0.338966 0.193282,-0.441542 0.16436,-0.09184 0.637499,-0.900484 1.051405,-1.797024 0.955,-2.068549 1.979787,-4.075239 2.689269,-5.265985 0.304811,-0.511567 0.96732,-1.729164 1.472245,-2.705792 1.462979,-2.829661 2.465931,-4.683314 3.624452,-6.698678 0.594068,-1.033456 1.435241,-2.631565 1.869271,-3.551353 1.278079,-2.708478 2.288216,-3.954734 2.011336,-2.481493 -0.151663,0.80699 -0.516169,1.52436 -1.09857,2.162023 -0.522603,0.572189 -0.868393,1.173785 -2.666148,4.638404 -0.696337,1.341965 -1.443962,2.673719 -1.66139,2.959449 -0.625795,0.822383 -1.895536,3.431608 -3.026556,6.219344 -0.313045,0.771593 -0.965316,2.23043 -1.449501,3.241885 -0.484178,1.011446 -1.007806,2.324184 -1.163611,2.917185 l -0.28329,1.078177 h -0.72832 c -0.515784,0 -0.759119,-0.08016 -0.833874,-0.2746 z m 30.82497,-0.626103 c -0.737886,-0.267283 -0.727168,-0.467596 0.04854,-0.906483 0.359415,-0.203347 0.720053,-0.545806 0.801423,-0.761002 0.308089,-0.814836 -0.175667,-6.070399 -0.798753,-8.677757 -0.422389,-1.767506 -0.667792,-3.854413 -0.475784,-4.046071 0.06166,-0.06159 0.136051,-0.729389 0.165377,-1.484122 0.04124,-1.060927 0.119513,-1.420575 0.345105,-1.585232 0.344202,-0.251241 0.716282,-0.02635 0.716282,0.432978 0,0.161861 0.168035,0.932566 0.373413,1.712694 0.339431,1.28929 0.374129,1.834008 0.381185,5.984423 0.0069,4.06877 0.04002,4.611562 0.304234,4.984157 0.323949,0.456875 0.396131,1.276103 0.127062,1.442097 -0.295596,0.182364 -0.186802,0.788134 0.157694,0.878063 0.457395,0.119397 0.544105,0.45957 0.303383,1.190187 -0.32119,0.97485 -1.219472,1.281503 -2.44915,0.836068 z M 64.893777,41.420995 c -0.169322,-0.186776 -0.716474,-0.569783 -1.215886,-0.851131 -0.818148,-0.460908 -1.162087,-0.846869 -0.754662,-0.846869 0.293163,0 2.641971,1.532785 2.641971,1.724104 0,0.338226 -0.353576,0.324491 -0.671423,-0.02605 z m -2.293319,-5.93494 c 0,-0.09802 0.218094,-0.573667 0.484646,-1.056944 0.266559,-0.483288 0.577676,-1.056446 0.691381,-1.273688 0.364749,-0.696887 0.370051,-0.271945 0.0064,0.497882 -0.84086,1.779175 -1.182244,2.308391 -1.182244,1.83275 z m 1.779008,-3.584485 c 0.121619,-0.395304 0.693359,-1.708032 1.270529,-2.917185 0.57717,-1.209152 1.431892,-3.073616 1.899391,-4.143247 0.467492,-1.069632 1.111958,-2.506478 1.432148,-3.192983 1.347244,-2.888557 1.463812,-3.455595 1.513877,-7.363902 0.04207,-3.281734 0.02151,-3.568952 -0.282419,-3.954664 -0.434228,-0.5510468 -0.413495,-0.8651464 0.103217,-1.5635104 0.422607,-0.5711808 0.428716,-0.6209321 0.315043,-2.5658818 -0.125859,-2.1534878 -0.02862,-2.498053 0.705153,-2.498053 0.522584,0 0.920636,0.602505 0.920636,1.3935037 0,0.5112678 -0.120602,0.7587263 -0.592947,1.2166193 -0.520196,0.5042802 -0.592947,0.6774812 -0.592947,1.4116513 0,0.5807937 0.103678,0.9684321 0.338823,1.2668397 0.410928,0.5214795 0.428779,0.9341932 0.06294,1.4555432 -0.151727,0.216234 -0.336467,0.66135 -0.410525,0.989135 -0.117924,0.521929 -0.07648,0.651099 0.333592,1.039645 0.465117,0.440704 0.468011,0.457205 0.434043,2.473008 -0.04091,2.42669 -0.30376,3.903046 -0.918369,5.157917 -3.492159,7.130078 -6.366963,12.514282 -6.681781,12.514282 -0.03938,0 0.02798,-0.323423 0.149581,-0.718718 z M 84.96307,14.86353 c 0,-0.09303 0.118853,-0.169108 0.264119,-0.169108 0.145266,0 0.216999,0.07606 0.159416,0.169108 -0.05756,0.09303 -0.176442,0.169118 -0.264119,0.169118 -0.08768,0 -0.159416,-0.07606 -0.159416,-0.169118 z m -1.067098,-0.106899 c -0.06534,-0.06518 -0.118796,-0.252969 -0.118796,-0.417226 0,-0.164257 -0.152476,-0.346951 -0.33883,-0.405986 -0.51643,-0.163618 -0.404992,-0.444676 0.127062,-0.320458 0.566349,0.132234 0.8446,0.38115 0.918446,0.821664 0.05571,0.332227 -0.353243,0.556228 -0.587882,0.322006 z m -5.201208,-0.754384 c -0.232949,-0.09713 -0.983167,-0.239922 -1.667152,-0.317214 -0.965303,-0.109066 -1.344446,-0.233963 -1.694142,-0.558055 -0.247785,-0.22965 -0.811559,-0.551606 -1.252831,-0.715453 -0.903463,-0.335462 -1.288983,-0.685986 -1.034206,-0.940303 0.107251,-0.107059 0.750487,0.108197 1.834822,0.614005 1.716591,0.800731 3.36141,1.248203 4.607191,1.253364 0.925092,0.004 1.767847,0.306603 1.408695,0.506087 -0.443731,0.24647 -1.763019,0.340852 -2.202377,0.157569 z m 9.02274,-1.189338 c -0.158834,-0.420041 -0.152726,-0.619755 0.02977,-0.972395 0.191233,-0.369571 0.360881,-1.9526169 0.285492,-2.6639977 -0.03566,-0.33627 -0.962678,-0.6215809 -1.349031,-0.4151792 -0.188684,0.1008002 -0.528378,0.183273 -0.754886,0.183273 -0.454225,0 -1.21084,0.5238254 -1.478961,1.0239231 -0.124353,0.2319468 -0.100508,0.4926118 0.08578,0.9376578 0.350458,0.837276 0.315388,1.080142 -0.08645,0.598642 -0.183255,-0.219579 -0.333195,-0.641935 -0.333195,-0.938566 0,-0.296641 -0.0953,-0.6373831 -0.211768,-0.7572093 -0.170743,-0.1756565 -0.06751,-0.3378172 0.5329,-0.8370465 0.409564,-0.3405424 1.248163,-0.8907507 1.863546,-1.2226785 l 1.118893,-0.6035131 0.05283,-0.8215043 c 0.0479,-0.7446214 0.0045,-0.8594366 -0.465885,-1.2267612 -0.517878,-0.4045781 -0.707792,-1.0580322 -0.306975,-1.0562454 0.539757,0.002 1.518084,0.3892854 1.835931,0.7260346 0.331703,0.351423 0.345796,0.5037412 0.25185,2.7224026 -0.05475,1.2925838 -0.17527,3.0177761 -0.267871,3.8337801 -0.242732,2.138904 -0.42698,2.481083 -0.801967,1.489383 z M 76.843543,7.1837718 C 76.500597,6.7712778 74.875006,6.481395 74.223542,6.7165455 73.490285,6.9812232 73.188663,6.9670685 72.929904,6.6558538 72.754717,6.4451497 72.757816,6.3150818 72.946424,5.9633194 73.1902,5.5086406 73.238575,5.5049772 74.755903,5.8262939 c 0.443225,0.093833 0.550598,0.062988 0.550598,-0.1582077 0,-0.5056479 0.534397,-0.2823463 1.264696,0.528477 0.397929,0.4418018 0.739294,0.8774844 0.758593,0.9681726 0.0582,0.2736517 -0.264055,0.2862892 -0.486234,0.019066 z m 2.558539,0.031743 c -0.319134,-0.3185716 -0.232853,-0.4694923 0.266809,-0.4667173 0.463336,0.00299 1.036863,0.2536375 0.884515,0.3872092 -0.230727,0.202279 -0.976726,0.2537971 -1.151324,0.079558 z M 71.105025,3.3301476 c -0.32968,-0.3290929 -0.2338,-0.9657769 0.212543,-1.411312 0.461364,-0.4605582 0.637422,-0.4978617 1.123669,-0.2380852 0.232994,0.124468 0.619385,0.1196266 1.301821,-0.016271 1.670066,-0.3326665 5.145936,-0.4844656 5.629359,-0.2458514 0.465699,0.2298599 2.868369,0.6196345 3.066428,0.4974525 0.220444,-0.1359974 1.921981,0.2940753 2.227751,0.5630753 0.365601,0.3216461 0.382332,0.6934627 0.03714,0.8256868 -0.142627,0.054603 -0.809696,-0.091636 -1.482367,-0.32503 C 81.135323,2.256024 80.237688,2.1117115 77.847683,2.115924 c -3.314603,0.00599 -4.743582,0.077362 -4.743582,0.2375861 0,0.1506113 -1.455693,1.1796053 -1.668747,1.1796053 -0.06988,0 -0.218523,-0.091337 -0.330339,-0.2029279 z"
       id="bottle-outline" />
  </g>
</svg>
