<?xml version="1.0" encoding="UTF-8" standalone="no"?>

<svg
   viewBox="0 0 135.46669 135.5993"
   version="1.1"
   id="svg5"
   xmlns="http://www.w3.org/2000/svg"
   xmlns:svg="http://www.w3.org/2000/svg">
  <defs
     id="defs2" />
  <g
     id="layer1">
    <path
       style="fill:#ffffff;stroke-width:0.140712"
       d="m 66.219183,135.59465 c -4.98079,-3.11475 -13.27612,-1.63448 -16.69516,-5.95515 2.61808,-1.55707 6.1544,1.16912 9.1549,0.97968 2.98046,2.42888 7.28806,2.23232 9.47334,3.48416 3.5751,-1.47937 6.01028,-2.67269 9.88674,-3.72858 3.49965,0.93303 7.23934,-1.03068 10.66317,-2.09906 1.78044,-1.22912 3.36417,1.84029 7.30421,-1.08023 4.193887,-3.07434 7.426597,-3.335 11.148907,-7.72603 3.28925,-4.34577 5.71841,-4.85837 9.01673,-8.87764 3.88522,-3.82465 7.34913,-8.76029 8.8793,-13.27408 1.40329,-1.71084 2.92996,-3.63781 4.43696,-5.4583 1.73618,-2.61757 0.005,-4.03705 -0.33035,-3.41699 -0.16179,-2.75122 -4.1418,-1.29124 -5.49263,-3.34289 3.35097,1.22622 7.51953,2.58276 4.94783,-2.45625 -4.12347,-0.86745 1.16906,0.66304 1.06641,-2.22146 0.28952,-2.06669 2.9524,-5.08403 3.34154,-2.77187 -4.32885,4.55747 1.96991,9.70747 -2.91854,14.64176 -2.43749,3.48518 -4.93888,7.45267 -6.57829,9.65919 -3.26297,8.56756 -11.26848,14.05077 -17.39737,20.40028 -3.76303,3.70333 -9.991227,9.17767 -15.467317,7.67756 -4.9085,-0.44134 -9.51549,2.95383 -14.64579,3.16956 -3.19043,0.8576 -6.46688,2.49971 -9.79459,2.39634 z m 0.73874,-1.65458 c -0.58058,-1.06838 0.0215,0.42173 0,0 z m -1.9348,-0.61037 c -0.82269,-0.6719 -0.17846,0.57363 0,0 z m -6.93007,-2.48531 c -0.77488,-0.22839 -0.14063,0.2463 0,0 z M 127.60806,95.04666 c -0.65673,-0.59426 0.0315,0.91841 0,0 z m -58.293207,37.65478 c 0.89795,-1.53993 1.60034,-0.0157 0,0 z m -6.68872,-0.34991 c -1.73935,-1.24027 4.98742,0.63619 0,-2e-5 z m 2.35463,-0.16115 c 3.60243,-0.69037 4.29666,0.61055 0,0 z m 3.58362,-0.0802 c -0.29474,-0.82341 0.82341,0.29474 0,0 z m 2.86115,-0.0469 c 0.35951,-0.50481 0.35953,0.5048 0,0 z m -26.23711,-0.83501 c -4.0117,0.17725 -6.714485,-2.37846 -9.383054,-5.25119 -2.613775,-3.62105 -8.683471,-5.26979 -11.822345,-9.22491 -4.443037,-4.69696 -9.737459,-8.4906 -14.1214863,-13.19346 C 6.7738312,99.38122 8.8069907,92.8812 6.3067872,87.99757 3.4369002,87.16503 4.0684812,79.62206 1.6098292,76.27449 c -1.718936,-3.89925 1.082515,-1.2511 -0.107908,-3.24715 -1.235485,-2.6225 -2.253357,-5.99164 -0.753714,-9.35018 1.640959,-5.16947 3.738358,-10.41653 5.383822,-15.68257 0.8663175,-6.43776 -0.464939,-14.33861 6.9388118,-17.520091 6.592428,-6.096177 11.545248,-13.902876 18.669007,-19.417321 4.244736,-1.8358147 7.796556,-6.0339547 12.744885,-4.2671117 4.86964,-3.1374802 11.1746,-3.0000392 16.58662,-5.0122602 5.56747,-2.74972298 11.58294,-2.22858498 16.68627,1.002412 1.67494,2.6219382 5.61842,1.388396 8.76233,2.2099852 4.16953,1.225391 9.27946,1.863079 13.107402,3.80918 2.217085,4.5912467 6.956515,5.3422167 10.772335,8.2899947 1.44544,2.986924 6.77728,5.875151 9.40234,10.089246 3.14699,3.381419 5.6765,7.368664 8.47129,10.888905 -3.57945,-3.007204 -1.17463,-0.475309 0.28142,2.332001 -3.56654,-1.954219 -6.72947,-8.015913 -10.34237,-11.399607 -1.84013,-1.970247 -7.16171,-8.101701 -2.26105,-3.095681 2.65474,3.00125 3.88512,3.557241 0.59549,0.08433 -4.02022,-3.744729 -7.32511,-9.57076 -13.16026,-10.361755 -5.228725,-1.430239 -2.37677,8.480986 -5.858895,5.504366 -2.602542,2.878524 0.15937,-3.271191 -1.843192,-2.530712 -0.56269,-1.849827 -4.95874,-0.394231 -2.44554,-2.910668 1.05631,-1.931064 2.06079,-3.397442 3.26903,-5.36273 6.766967,3.221807 -2.1534,-2.9985127 -5.15044,-2.1536327 -3.85843,-1.164347 -2.9332,0.0333 -1.64291,1.8554517 -2.08447,-0.05831 -10.00644,-2.2053607 -3.23286,-0.08195 5.77548,2.14164 1.03825,2.797662 -0.0237,1.943642 -1.51419,-1.271601 -6.84534,-1.736462 -2.08701,0.31641 1.66019,1.581173 7.50506,3.283465 5.63599,5.731746 -5.05709,-3.891011 -12.99244,-2.842361 -17.45582,-5.996428 2.99627,-0.404502 4.30609,-1.102157 0.0803,-1.535382 2.87668,0.154114 10.9687,0.1578 3.36135,-0.951329 -1.40234,-3.122886 9.78489,1.210947 2.15292,-1.500486 -1.61933,-1.818009 2.47854,-2.152965 -1.87439,-3.09567 -2.98138,-0.406891 -4.20366,-3.8406352 -7.75534,-2.8481582 -8.06582,1.355026 10.95547,1.108287 1.15761,1.449095 3.8919,0.370999 -8.18185,0.0283 -7.04265,0.417466 8.26665,-2.533342 -3.74864,0.195697 -6.08038,1.3880712 -6.01284,1.128745 -11.6378,4.24692 -17.823911,4.308083 -5.448215,2.836357 -9.943372,7.006755 -14.02095,11.603766 -4.057969,4.609032 -9.350647,9.149581 -12.608101,13.471549 3.361261,-4.775082 -5.7789698,4.672404 -1.3985,1.180653 3.258284,-2.013795 -4.4556538,2.610845 -1.6212183,5.37997 -0.246719,6.60211 -2.8482525,12.88511 -4.4401395,19.26176 -0.894723,1.35944 -0.506144,7.36273 -1.04691,2.67257 -2.305508,3.68261 1.024578,7.28823 0.918389,12.03609 -1.648756,-1.03742 0.379691,3.40823 0.716023,3.98754 0.618833,-0.64129 3.3167805,7.30502 3.0904775,7.41826 -2.1291595,-2.2385 2.7158123,8.84309 0.525237,4.87236 0.422881,2.92061 4.2140183,12.55599 0.798755,6.3335 1.3592883,5.5347 6.9756453,9.36507 10.1903943,13.33368 3.652761,4.09514 7.985647,7.69922 12.597715,10.52486 3.619298,-1.53571 3.868321,4.40976 4.382107,0.70356 1.796614,-1.336 0.370762,-3.08356 1.609007,-4.06579 -2.161883,-2.56568 -3.763955,-1.79861 -3.776517,-1.30356 -3.206441,-2.46201 -7.190168,-3.69317 -10.017322,-7.25935 -2.73316,-0.73312 -8.593997,-12.1828 -9.204613,-7.91529 -1.495622,-6.42051 5.67154,2.83799 7.533329,4.54967 3.530106,3.39968 -3.113867,-6.37852 -4.408352,-8.06747 -3.22194,-2.62357 -4.061836,-5.97209 -0.142147,-4.68323 6.14336,8.9201 13.65624,17.03363 22.064917,23.84052 2.73034,-3.63536 0.73577,2.23539 0.42292,3.35667 4.98345,1.46676 2.28044,2.70074 -0.99015,0.87943 -2.847304,1.39386 -1.984146,5.77535 1.81551,6.5172 0.826,-0.9988 -1.45064,-2.58626 1.20253,-0.3911 2.36211,1.99011 2.85065,-0.80382 3.66547,0.66477 4.85686,2.16166 -5.95111,1.15865 -0.2064,2.61553 -0.41268,-0.0974 -0.88734,0.39172 -1.1898,0.13615 z M 34.981061,122.5652 c -0.596358,-0.83855 -0.10151,0.74151 0,0 z m -2.954958,-10.16904 c -2.2484,-1.24796 -7.462341,-8.51095 -7.758057,-7.1904 1.591802,3.3332 4.285873,6.05149 7.758057,7.1904 z M 8.8903067,99.875 c -0.638909,0.2329 0.439772,1.17374 0,0 z M 6.1288382,84.75001 c -0.158857,-2.49457 -0.260042,2.05662 0,0 z m 0.52447,-0.41456 c -0.270869,0.061 0.201568,0.61679 0,0 z m -0.0201,-0.85307 c -1.005688,-6.6594 -0.810853,0.10982 0,0 z m -0.498177,0.17589 c -0.347032,-0.50126 -0.17019,0.51447 0,0 z m -0.28032,-0.98499 c -0.329727,-1.6215 0.115353,1.96281 0,0 z m -1.618739,-3.90157 c -1.809038,-6.08447 0.498826,3.26933 0,0 z m -0.830611,0.31997 c -0.627693,-1.28395 0.198195,1.38861 0,0 z m 1.418672,0.17813 c -0.270886,0.061 0.201572,0.61679 0,0 z m -2.258601,-2.66596 c -0.72064,-1.24587 0.613807,1.77917 0,0 z m 0.333216,-1.66974 c -0.347038,-0.50125 -0.170163,0.51446 0,0 z m -0.97179,-3.13875 c -0.671765,0.069 0.603325,1.13696 0,0 z m 1.253216,0.3162 c 1.300782,-3.81329 -2.722571,-8.92173 -0.827627,-2.05849 0.493396,0.53148 0.366906,2.24666 0.827627,2.05849 z m -1.255301,-4.71728 c 0.203099,-0.37475 0.06273,0.60667 0,0 z M 125.0157,35.815847 c -0.93085,-1.728636 0.37646,1.441477 0,0 z m -0.93801,-0.311655 c -0.61482,-0.124617 0.43578,0.636 0,0 z M 18.113518,26.986409 c 0.488328,-0.599718 -0.919511,0.725617 0,0 z m 94.681412,-6.978623 c -0.72871,-0.833164 -0.72606,-0.475829 0,0 z m -15.056205,-1.99178 c -1.850012,-1.666544 -0.0363,0.86245 0,0 z m -0.75445,-0.56285 c 0.10866,-1.679763 -4.873182,-1.793128 -1.270652,-0.106624 0.432,-0.114824 0.93917,0.652696 1.270652,0.106624 z m 1.56355,-1.144031 c -0.20287,-2.210282 -6.141512,-2.511572 -0.81144,-6.91e-4 z m 1.598125,-1.705392 c 2.29819,-1.638453 -5.598277,-5.2244067 -1.250065,-1.489233 4.295235,2.872162 -6.281192,-2.407141 -0.80426,1.237666 0.67897,0.439639 1.47153,1.587672 2.054325,0.251567 z m -2.688655,-2.145862 c -0.17017,-0.514469 -0.34703,0.501258 0,0 z M 79.228033,12.32811 c -1.72562,-0.725476 -0.75489,0.391042 0,0 z m 4.39644,-0.226466 c -3.87922,-2.2952137 -1.27989,0.213845 0,0 z m 4.88932,-0.13179 c -1.25254,-0.820104 0.61547,0.761602 0,0 z m -0.62492,-0.07483 c -0.54094,-0.504482 -0.36067,0.521181 0,0 z m -0.56285,-0.281425 c -0.34704,-0.501257 -0.17018,0.514466 0,0 z m -6.54312,-0.844273 c -1.47962,-0.399144 -0.85421,0.223115 0.18067,0.101037 z m 16.252262,0 c -0.347042,-0.501258 -0.170182,0.514469 0,0 z M 80.955863,10.262175 c -0.55719,-0.2956877 -0.1315,0.317092 0,0 z M 38.52894,9.4481033 c 3.490063,0.05363 4.834653,-1.599696 0.724926,-0.619541 -1.185131,0.469473 -2.610201,1.9710887 -0.724926,0.619541 z m 42.031163,-0.176469 c -1.95212,-0.130471 -0.25155,0.382252 0,0 z m 6.97599,0.09218 c -0.35611,-0.257335 -0.56021,0.453285 0,0 z m -5.55714,-0.21268 c -1.16935,-0.774694 0.13891,0.557347 0,0 z m 6.47276,-0.132408 c -0.32837,-0.483315 -0.40528,0.268139 0,0 z m -0.50234,-0.516741 c -1.52053,-0.746409 -0.0716,0.888988 0,0 z m -1.22431,-0.209782 c -0.55717,-0.295703 -0.13152,0.317073 0,0 z m -0.80617,-0.196411 c -0.68149,-0.703703 -0.14131,0.548286 0,0 z m -1.96997,-0.422137 c -1.98702,-0.399131 -0.38009,0.181933 0,0 z m 0.59803,0.04752 c -0.77488,-0.228385 -0.14063,0.246277 0,0 z m -36.33894,-0.508351 c 3.58635,-0.731685 7.81086,-2.501865 1.8421,-0.886548 -0.43365,-0.06759 -4.00893,1.685858 -1.8421,0.886548 z m 6.15323,-1.734865 c -0.55717,-0.295698 -0.13152,0.317066 0,0 z M 70.727003,129.53753 c -0.53456,-4.14845 2.57011,0.9363 0,0 z m 3.26266,-0.36682 c -0.45119,-2.69861 6.00961,-1.54153 1.11194,-2.90219 2.30644,-0.98585 9.39063,-3.59523 10.22789,-1.44985 -2.62259,0.95832 -11.60378,2.64406 -4.0541,1.45663 3.23424,-0.84326 13.68733,-2.3102 5.20635,0.5099 -4.4453,1.66463 -8.5358,1.61372 -1.7408,-0.0274 -4.96761,-0.0477 -5.85031,3.27245 -10.75128,2.41293 z m -16.96819,-0.02 c -2.21786,0.31342 -11.70968,-2.47831 -4.70418,-2.22152 2.26413,0.149 13.82591,2.12039 5.94782,2.07187 l -1.24364,0.14967 z m -9.85697,-0.41408 c -0.009,-0.49323 1.13063,0.75756 0,0 z m 13.40069,-2.44321 c -5.88068,-1.68692 11.65437,-1.51704 2.96502,0.0715 -0.98868,0.0194 -1.97879,0.0117 -2.96502,-0.0715 z m -4.26623,-0.70514 c -3.09882,0.30104 -10.7684,-3.45571 -3.69294,-1.51752 1.51192,0.41527 8.66035,1.54293 3.69294,1.51752 z m 4.42921,-0.89043 c -5.75717,-1.29463 -13.84918,-0.42093 -17.6533,-5.00573 5.97728,0.31616 12.02693,3.03277 18.25101,3.30233 5.88805,0.39446 2.74919,1.73365 -0.59771,1.7034 z m 15.07009,-0.42727 c 2.22655,-0.92824 9.69257,-3.34611 12.03226,-2.85785 -3.71808,1.5066 -8.02552,3.7894 -12.03226,2.85785 z m -1.4178,-1.52455 c 4.90673,-1.11144 11.44829,-2.56239 15.7598,-3.93255 -4.16609,2.76023 -10.71977,4.30928 -15.7598,3.93255 z m -4.06228,-0.70777 c -2.95517,-1.46315 -8.62821,-0.15515 -12.67178,-1.37268 -3.05859,-1.66918 -10.16393,-2.55855 -9.28344,-4.07537 5.70107,1.68347 11.80688,3.87217 18.0502,3.1275 3.91895,1.48584 2.19123,-4.43483 -0.0944,-2.66267 -5.86315,-0.29547 -11.51242,-1.7138 -16.99846,-3.68447 -3.39898,-1.75822 -3.01433,-3.29067 -3.15602,-3.06192 -0.95963,-2.35675 3.56583,-2.2529 -0.76109,-3.60572 -4.0243,-2.58353 -8.666693,-4.46077 -11.727016,-8.04384 -3.92155,-4.05525 -1.755754,0.86347 0.563667,1.95921 0.131621,0.66424 0.700473,0.73917 2.155835,1.96109 2.443623,1.08781 10.477814,9.66936 3.103736,5.25311 -4.262754,-3.3597 -8.401279,-6.25662 -11.302347,-9.85728 -2.003468,-2.30526 -7.094955,-11.17595 -2.247118,-4.12169 1.566892,2.42758 8.136733,10.45554 7.009518,6.86608 -2.578771,-2.19684 -9.659952,-9.10595 -7.14741,-10.9606 2.464274,1.00837 1.126115,-0.76381 0.480047,-2.306 0.585737,-1.2578 -0.781326,-4.8373 -2.893707,-7.56007 2.543941,-4.03908 2.906014,6.61205 5.494889,7.85447 2.493997,5.11625 7.731067,8.76242 10.476937,13.21845 -2.85056,-1.79206 -10.407694,-10.8214 -5.11892,-3.50707 4.123507,3.57395 8.626259,7.13336 13.513079,9.25761 0.35195,2.8303 5.62149,-0.17155 6.46011,3.50881 1.74429,-0.17701 5.37813,-1.20286 8.30104,-0.9549 4.90267,0.85129 8.06737,-0.78185 11.25656,-2.75912 2.98861,2.35483 4.519,-2.07951 8.96681,-2.27177 7.71662,-3.38828 15.375602,-8.00006 19.765557,-15.44015 0.37931,4.57729 -7.967427,8.95142 -11.080127,13.01008 -1.10771,1.06933 -7.48455,4.45191 -4.05612,1.29005 -1.94614,0.44251 -3.36416,4.58393 -4.23833,1.93696 -4.11977,0.82223 1.7795,1.7435 -3.59617,2.55034 -3.8008,1.96134 -4.92054,-0.80699 -6.88934,0.21996 -2.34883,3.6992 -10.79147,1.75095 -15.39752,1.88058 0.0311,2.68323 5.15545,0.80287 5.56877,1.82511 5.8734,-0.0208 11.95786,0.0712 17.74628,-1.78844 5.80184,-1.93031 10.83848,-5.72999 15.72681,-9.30446 2.669342,-1.17655 6.721067,-8.35862 7.573907,-6.86365 -2.00027,2.12517 -8.515147,10.38223 -2.33459,4.88604 6.52086,-7.26499 11.53124,-16.15996 12.48821,-25.99242 0.10149,-4.75075 -0.007,-10.81362 -1.38601,-14.86689 -0.0634,-2.10254 -1.38436,-3.92627 -2.12793,-7.29116 2.65937,-1.90211 1.70939,6.50123 4.13336,7.83863 1.3753,2.3283 -0.52642,9.05707 2.4189,8.25087 -0.83288,-1.58371 -1.72632,-6.06492 -1.71696,-9.42584 -0.66543,-2.68728 -2.95522,-9.51511 0.22918,-8.29195 1.81495,2.82086 1.60415,7.09658 3.69464,9.10366 1.17442,5.60116 0.0455,11.44517 0.0181,17.65939 -0.8268,5.08035 1.13851,-4.34009 0.69536,1.4968 -0.0525,7.04771 2.69299,-7.88543 1.45205,0.32546 -0.11593,4.55901 1.80611,-4.58041 0.92181,1.04322 0.89492,1.9963 3.54267,0.48867 4.43674,2.4971 2.1583,-0.006 -4.33473,3.13096 -3.81823,0.12524 -1.02705,1.21811 -4.14855,-0.72181 -2.85752,-1.26474 -4.5897,-0.41189 -1.50996,-7.38036 -2.8307,-10.30887 -0.10653,4.71041 -2.18796,10.93595 -1.19867,12.52621 -2.32608,6.08983 -4.66805,9.4788 -8.7756,15.03726 -2.68272,4.40179 -5.69153,5.04741 -9.224175,8.40036 -2.612132,1.93418 -4.756892,0.35343 -6.162542,3.69442 -3.49721,2.10065 -9.21096,4.6669 -3.14639,3.5465 -1.14319,2.32765 -4.80291,1.31316 -7.30605,1.71392 -4.52586,3.06223 -6.89807,-1.91463 -10.40179,0.77769 -2.27173,4.31809 3.2156,4.31124 6.78195,3.10017 5.99122,-2.55759 2.04545,3.44786 -2.95942,2.08987 -3.91367,-0.78936 -1.64891,2.92438 -4.57813,1.81152 z m 1.81091,-2.41972 c -0.32838,-0.48331 -0.40528,0.26814 0,0 z m 1.36901,-0.4451 c -0.55718,-0.2957 -0.13148,0.31706 0,0 z m 7.45776,-1.26641 c -0.55719,-0.2957 -0.1315,0.31707 0,0 z m -30.28539,-0.47784 c -1.14925,-1.0161 -0.19794,0.71567 0,0 z m 16.07345,-0.50715 c -0.55717,-0.2957 -0.13151,0.31706 0,0 z m 0.79693,-0.45341 c -1.43701,-2.46605 -13.79151,-2.36292 -5.76579,-1.55446 0.5446,2.28575 3.61937,0.82741 5.76579,1.55446 z m -9.97548,-1.57226 c -0.82871,-0.99475 -2.20759,0.096 0,0 z m -1.96996,-0.28142 c -0.17017,-0.51447 -0.34705,0.50125 0,0 z m 16.81511,-1.06583 c 3.50576,0.0591 4.52924,-3.43797 0.29068,-1.64448 -4.75519,-0.51909 -4.87827,2.07572 -0.29068,1.64448 z m -5.43509,-0.20619 c 0.0593,-3.00228 -4.60582,0.15589 -5.47306,-1.30171 -5.21902,1.11908 4.66456,1.54615 5.47306,1.30171 z m -15.81247,-0.12005 c -1.06494,-1.15251 -0.44994,0.59851 0,0 z m 4.56612,-0.55929 c -1.60077,-0.67234 -0.40767,0.33883 0,0 z m 22.15976,-0.84521 c 6.26904,-1.63973 0.13301,-1.93062 -0.21523,0.2452 z m 5.81225,-2.23068 c 3.0253,-1.64785 8.07261,-2.94712 10.22021,-6.12181 3.144932,-0.27443 5.194102,-3.72059 0.91099,-0.88583 -3.59935,2.16595 -5.40562,3.73377 -7.96839,4.97039 -0.27302,0.4201 -7.14331,2.28247 -3.16281,2.03725 z m -42.52869,-1.21263 c -0.72871,-0.83318 -0.72607,-0.47584 0,0 z m 48.40501,-2.40562 c -0.32838,-0.48332 -0.40529,0.26813 0,0 z m 8.724162,-1.134 c 0.20137,-0.80475 -1.17753,0.82253 0,0 z m -13.508372,-0.20666 c -0.56397,-0.24977 -0.54937,0.4588 0,0 z m 3.09567,-1.69296 c -0.35952,-0.5048 -0.35952,0.5048 0,0 z m -52.65904,-0.56284 c -0.949825,-1.03192 0.537489,1.00598 0,0 z m -1.585538,-1.54784 c -0.170179,-0.51446 -0.347038,0.50125 0,0 z m 69.697095,-0.36823 c -0.54249,-0.398 -0.61973,0.94785 0,0 z m -69.486029,0.0247 c -0.328376,-0.48332 -0.405278,0.26812 0,0 z m 70.192829,-0.43707 c 0.46534,-1.39398 -1.01736,1.15153 0,0 z m -71.59995,0.077 c -0.347038,-0.50125 -0.170158,0.51447 0,0 z m 72.48326,-1.17577 c 0.38555,-1.47721 -1.37391,1.54956 0,0 z m 0.59781,-0.98164 c 1.99511,-2.09357 6.86516,-10.1484 2.37836,-3.51788 -0.21584,0.30037 -3.96913,5.09888 -2.37836,3.51788 z m 1.06983,-2.41573 c -0.95735,0.51366 -0.58785,1.29516 0,0 z m -0.72628,-0.14444 c -0.39823,0.272 -0.16715,0.61205 0,0 z m 1.92171,-1.57678 c 1.15238,-2.18494 -1.39537,1.9308 0,0 z m 0.0681,-1.27842 c 0.45114,-1.73223 -1.14541,2.28031 0,0 z m 0.40232,-1.22545 c -0.39822,0.272 -0.16714,0.61206 0,0 z M 28.717623,90.94798 c -0.770312,-0.42639 -0.47926,0.70632 0,0 z M 27.5719,90.75816 c -0.450855,-0.5541 0.153937,0.69766 0,0 z m 85.8396,-3.80047 c -0.13948,-0.51754 -0.2896,0.71636 0,0 z m 2.74245,-11.49592 c 0.7213,-2.64012 0.63114,-9.41446 -0.1199,-3.06046 -0.24785,1.2028 -0.51065,7.26404 0.11992,3.06049 z m -0.78786,0.58698 c 0.57467,-2.62324 -0.11502,-6.38937 -0.17793,-1.34817 -0.46,0.29207 -0.62144,3.46654 0.17793,1.34817 z m -0.80584,-0.6343 c 0.0825,-1.57635 -0.55509,2.33319 0,0 z m 1.10265,-4.63867 c -0.13949,-0.51753 -0.28961,0.71636 0,0 z m -0.20551,-1.73147 c -0.22459,-0.21931 0.0126,-3.10852 -0.82214,-0.4516 0.43491,-0.90602 0.1024,1.75674 0.82214,0.4516 z M 115.28319,65.48 c -0.27088,0.061 0.20158,0.61679 0,0 z m -0.16252,-2.60522 c -0.57704,-1.60483 0.29511,2.48533 0,0 z M 112.0357,51.19184 c -0.68799,-0.003 0.38354,0.72818 0,0 z m -20.769707,70.89625 c -0.9737,-2.10152 11.211237,-5.42395 4.52122,-1.96429 -1.53254,0.35129 -2.99445,2.05973 -4.52122,1.96429 z m -57.481569,-2.12707 c 0.569665,-1.18927 0.632495,0.74427 0,0 z m 57.200139,-0.70256 c 0.4406,-0.42177 0.73217,0.55474 0,0 z m 2.77907,-0.0812 c 1.09156,-1.9936 8.876437,-5.11545 11.491607,-8.57453 2.93676,-1.08592 7.13039,-9.1523 7.81753,-6.68409 -3.89153,5.15574 -9.36173,9.44809 -14.675935,13.28455 -1.619042,0.45553 -3.034852,1.57875 -4.633202,1.97407 z m -3.27156,-0.20018 c -0.68672,-0.50191 1.11581,0.38957 0,0 z m 10.927417,-0.14071 c 0.12313,-0.63425 0.12314,0.63423 0,0 z m -17.189117,-0.98715 c 4.23047,-2.22788 9.91238,-4.62528 14.120992,-7.96286 5.464015,-3.91674 9.375075,-8.55327 13.525225,-13.77505 3.41027,-2.47289 4.42881,-13.21116 7.68583,-11.44755 0.55265,4.99354 -5.02887,11.03413 -8.37801,15.40305 -4.38951,6.21683 -10.87666,10.32773 -17.237747,14.24923 -2.83911,-0.83262 -6.47613,4.01845 -9.71629,3.53318 z m 6.95954,-0.13348 c 1.51537,-0.85666 -0.85841,0.95639 0,0 z m 0.77964,-0.27071 c 1.48226,-1.24657 0.69686,0.20832 0,0 z m -0.45966,-0.31468 c 0.75546,-0.41923 -0.34287,0.43246 0,0 z m -17.69222,-0.12325 c -0.77731,-1.30889 -0.25788,-0.35868 -2.87897,-1.07364 1.49176,-0.0715 7.40314,-0.94905 2.87897,1.07364 z m -29.05178,-0.778 c -3.05411,-2.27114 -1.49313,-1.98566 0.52235,-0.55968 -2.00763,-0.82419 1.59014,1.76266 -0.52235,0.55968 z m 46.21867,0.42981 c 2.79995,-2.9906 2.93067,-0.66176 0,0 z m 2.2514,-0.0162 c 0.56502,-0.66217 0.96855,0.32835 0,0 z m 0.85111,-0.4913 c 2.44997,-1.77978 -0.25059,0.85226 0,0 z m 1.11886,-0.4036 c 2.166002,-2.92541 11.045147,-6.97964 3.706972,-2.31778 -1.07972,0.75192 -2.608392,2.04422 -3.706972,2.31778 z m 0.84427,-0.51464 c -0.56397,-0.24978 -0.54936,0.45881 0,0 z m -54.72009,-0.30761 c -4.926489,-2.55532 -9.186329,-6.79855 -12.614516,-10.72939 2.517275,4.65961 -9.112719,-10.14425 -1.777138,-2.91092 4.746019,4.64237 9.912845,8.92886 15.485764,12.50697 -0.11581,0.74136 -0.0343,1.29637 -1.09411,1.13334 z M 27.953445,103.3189 c -0.813864,-0.52574 0.975028,1.14411 0,0 z m 61.623968,8.43286 c 2.65462,-2.36633 5.7587,-1.99459 0.89924,-0.0312 l -0.73442,0.22086 -0.16485,-0.18967 z m 12.945527,-1.21745 c 0.54093,-0.50447 0.36066,0.52117 0,0 z m -38.670457,-1.69655 c -1.76287,-3.72451 6.16544,-0.47686 0,0 z m -2.02194,-0.31922 c -0.90926,-3.77899 2.77247,-0.61821 0,0 z m -3.24994,-0.46659 c -0.52546,-3.68876 0.44259,0.35463 1.64346,-1.89335 0.18913,0.90181 -0.5004,2.44493 -1.64346,1.89335 z m -2.40124,-0.65419 c -1.2274,-5.16556 4.34415,0.88032 0,0 z m 1.08954,-0.74454 c 0.27073,-1.32961 -0.83691,0.67941 0,0 z m 10.97555,0.42213 c 2.81433,-1.3476 3.52536,1.21999 0,0 z m -14.73156,-0.36108 c -0.23896,-5.2086 3.62232,0.7993 0,0 z m -1.70466,-0.82957 c -2.8016,-1.41102 -7.74663,-2.91162 -9.25958,-5.06281 2.66489,0.74071 9.6244,3.33578 9.75067,5.19755 l -0.49109,-0.13473 z m 0.97293,-0.55674 c -0.17474,-0.55474 -0.50493,0.53571 0,0 z m 60.507517,-2.568 c 1.10367,-3.33776 3.76778,-2.33703 0,0 z m -72.056187,-2.75128 c -2.222878,-0.68552 -7.987211,-7.14817 -2.753981,-3.17767 0.639228,0.38796 6.759551,5.4301 2.753981,3.17767 z m 49.47062,-0.1685 c 0.34703,-0.50127 0.17018,0.51447 0,0 z m 25.328897,-0.23452 c -0.98007,-2.16184 2.95931,-2.54344 0,0 z M 12.044258,98.89037 c -2.3751563,-4.86202 1.679772,1.82588 0,0 z m 10.517957,-2.4097 c -1.653596,-1.2476 -5.734508,-10.12714 -2.012621,-3.51422 -0.06301,-0.0197 4.285197,4.43944 2.012621,3.51422 z m -1.452284,-3.34845 c -2.261137,-3.1282 -1.891816,-3.9469 0.0226,-0.27206 l 0.425928,0.8905 -0.448557,-0.61844 z M 126.72545,92.80457 c 0.36065,-0.52118 0.54093,0.50447 0,0 z M 15.936361,91.14012 c -4.003037,-5.00517 1.975659,-3.37071 0,0 z M 10.818915,89.71199 C 9.2747207,87.55756 7.0150147,76.49374 9.7361807,84.56441 c -0.01989,0.9889 3.0017003,5.55145 1.0827343,5.14758 z M 129.26042,89.60336 c 0.23318,-1.03272 0.66581,0.31407 0,0 z M 45.989803,88.31419 c -3.81078,-2.15646 1.17871,-7.30134 -1.20006,-11.6185 -1.15863,-3.03767 -1.45905,-11.09595 1.77636,-4.59213 1.61186,3.34756 -1.79384,12.78092 2.41604,12.73912 2.65195,-2.08443 13.02952,-0.97426 6.04734,0.75915 -3.28247,0.1185 -6.869,1.87072 -9.03968,2.71236 z m 57.658837,0.0579 c -2.00042,-2.11897 2.74825,0.3236 0,0 z M 24.315075,87.85146 c -2.526289,-3.07259 -5.720983,-5.29743 -5.1394,-10.63843 -1.275419,-2.03473 -4.182246,-11.0276 -1.298921,-10.78397 2.489334,2.4012 1.135289,7.81998 3.635253,9.97584 -0.222489,-5.48478 -1.051962,-11.90537 -0.447106,-17.08988 1.128859,-3.76646 1.913558,-9.99516 4.896494,-13.78978 1.903692,-2.77049 3.978786,-7.668461 0.295493,-2.13096 -3.887258,7.89492 -2.292126,-3.55147 0.723645,-5.608239 1.377286,-2.767047 3.243617,-5.07306 5.435005,-6.588507 -1.795045,0.822093 -3.879425,2.804215 -0.854341,-0.859683 2.389664,-4.761623 3.441397,0.05893 7.086994,-4.371657 2.304432,-1.527298 5.622052,-4.627739 0.634984,-1.431622 -5.409275,3.852548 -2.83795,-0.171541 0.938338,-1.438195 4.07036,-2.816537 -4.43046,2.039872 -4.011137,0.975226 4.016987,-4.624089 9.408767,-8.681971 15.515447,-10.202834 2.61788,-1.365925 5.43784,-1.894668 6.33674,0.09722 -2.01528,-0.340443 -3.91081,0.485513 -4.84117,1.153516 -2.71261,-0.668865 -12.07042,5.324782 -4.49006,2.067144 3.16618,-0.596996 7.48025,-0.967473 9.458,-1.317875 0.98572,1.609371 3.26998,-2.808134 5.08926,-0.287663 -3.33542,-0.336121 -2.89651,0.594311 0.68921,0.842306 -5.03685,1.152989 -11.54642,1.246498 -16.06028,3.969365 1.40159,-0.218466 3.88665,0.887009 5.94339,-0.512399 2.0056,-1.8893 4.58337,-0.433307 0.85576,-0.09826 -4.65278,2.065493 -8.59503,5.10149 -13.52561,8.360646 -2.775826,2.943002 -7.648973,3.582723 -7.286613,6.628073 5.404595,-4.372178 10.523693,-9.380245 17.303703,-11.339644 -0.0274,-3.040424 4.4783,-1.456652 6.67066,-3.1658 3.12995,-1.136677 4.87197,-2.170605 6.45499,-2.741958 5.45502,1.443201 11.26679,0.219744 16.88121,1.686699 4.74332,1.826162 9.24097,3.94435 13.12486,7.079627 3.065202,3.492841 8.533337,6.348099 10.856767,11.410234 2.83909,1.103555 3.71545,4.07921 6.48257,5.43307 0.70002,4.56651 2.59096,-2.81063 2.30432,2.67114 -3.16252,-0.24877 -4.65179,-2.52283 -3.06605,1.6479 -4.27402,1.55867 -4.02089,-7.799809 -7.22627,-8.22052 -4.643555,-1.218876 -7.428297,-7.499054 -12.029727,-9.900769 3.13939,-2.201233 9.726407,8.289741 9.941587,6.223539 -3.841265,-3.542333 -8.807137,-9.816612 -13.093537,-9.195813 -3.10636,-0.257188 -7.9134,-5.558022 -8.65441,-1.342026 -2.08347,1.084413 -3.64649,0.431595 -4.93413,-1.160877 -1.42276,-2.38422 8.91801,0.352802 2.9857,-2.042173 -3.5269,0.05689 -11.31708,-0.73593 -12.30606,-0.301316 -1.93896,0.701873 -6.89489,-0.158502 -6.44833,1.821737 -2.05223,1.216773 -9.46408,1.552794 -9.70454,3.401315 -0.42142,0.881868 6.86939,-1.485622 0.9512,1.45523 -3.36214,1.395241 -7.14344,3.930114 -9.56106,5.532027 -2.093184,1.139958 -4.609465,6.635676 -7.501198,3.394714 -2.024864,3.645702 -3.691542,7.822902 -5.553071,11.922632 -1.229709,2.14976 -3.682558,8.73161 -3.672757,7.64125 -0.501857,1.85765 -0.639106,8.40671 -0.985372,11.71005 -1.624957,-0.19748 -1.104087,5.58906 -0.296387,8.55809 -0.369454,2.87155 0.696485,6.53323 -0.165259,6.0671 0.02398,1.07778 4.734494,5.54139 1.661216,4.83516 z M 23.81727,55.48061 c -0.246272,0.14063 0.228382,0.77487 0,0 z m 2.844125,-7.81993 c 1.005991,-4.0234 -2.001154,1.83045 0,0 z m -0.26378,-0.36151 c 0.06413,-0.37782 0.832068,0.12612 0,0 z m 84.708775,-2.96171 c -0.32838,-0.48331 -0.40529,0.26814 0,0 z m -1.40713,-0.2366 c 1.13991,-0.42486 -1.34869,-0.43815 0,0 z m 0.69351,-1.02806 c -1.19011,-2.13949 0.9495,2.46541 0,0 z M 26.809849,39.81921 c 1.897613,-3.479177 -2.183645,2.74065 0,0 z m 3.457352,0.64036 c -0.373257,-0.54268 -0.701925,0.5108 0,0 z m 0.07035,-0.3135 c 1.660281,-2.403351 4.216406,-7.288943 0.04015,-2.306607 0.351404,0.352984 -1.826917,2.959717 -0.04015,2.306607 z m 7.277361,-4.994774 c 2.604981,-1.97101 4.482811,-4.52017 0.406081,-0.95342 -1.713457,0.986814 -2.374341,2.890702 -0.406081,0.95342 z m -7.822259,-0.425748 c 0.457099,-0.699398 -0.800451,0.888389 0,0 z m 5.579342,-4.942663 c 0.191394,-1.64723 -3.281126,4.281083 0,0 z m 53.897908,-3.438124 c 0.14227,-2.797886 -8.59362,-4.562566 -2.01657,-1.367265 0.79249,0.207701 1.33764,1.258952 2.01657,1.367265 z m -13.69336,-3.052046 c -0.17018,-0.514465 -0.34703,0.501256 0,0 z m -31.98887,-0.637928 c 2.45075,-0.256672 6.06672,-2.867288 1.2857,-0.398415 3.04718,-1.807186 -1.47959,-0.409135 -2.08279,0.543742 z m 9.26384,0.05965 c 0.12218,-0.706227 -1.48995,-0.08259 0,0 z m 5.10083,-0.328105 c 1.42069,-1.462869 -4.27975,1.027687 0,0 z m 26.55943,0.124161 c -0.43173,-0.498832 -0.0829,0.693441 0,0 z m -41.51758,-0.439545 c 6.51003,-3.127671 -2.78363,0.583401 0,0 z m -0.13324,-0.951049 c -0.74242,-0.05027 -0.7608,0.642617 0,0 z m -0.47922,-0.455179 c 3.6375,-2.319674 -2.911275,1.467473 0,0 z m 3.92666,0.235888 c -0.1785,-0.573753 -0.8227,0.671984 0,0 z m 0.56285,-0.281425 c -0.17475,-0.554741 -0.50491,0.535714 0,0 z m -0.0515,-0.582034 c 5.31725,-2.816549 0.90708,-1.173275 -1.98886,0.514422 l 0.61824,0.01749 z m 3.38172,-1.367745 c 3.9849,-0.923286 7.86341,-2.078854 1.92587,-0.852209 -0.37443,-0.111363 -4.12824,1.581309 -1.92587,0.852209 z m 28.40037,0.12052 c -0.54094,-0.504482 -0.36067,0.521182 0,0 z m -21.03649,-1.969972 c -0.35951,-0.504798 -0.3595,0.504799 0,0 z M 103.46047,86.35714 c 1.91502,0.12898 -0.30232,-3.72284 3.00238,-1.70235 -0.70405,2.15605 -1.46713,1.76503 -3.00238,1.70235 z m 2.22847,-1.15104 c -0.70192,-0.51079 -0.37325,0.54269 0,0 z M 15.656558,83.56446 C 12.584445,74.99457 11.93649,65.55826 14.065506,56.68977 10.269737,55.70698 11.460963,66.186 11.193689,69.64588 c 0.345559,2.28035 2.719369,15.17135 0.0367,7.31218 -1.6676153,-5.04125 -0.671548,-10.7895 -1.5943723,-15.66273 0.12433,2.81014 -2.384361,9.2315 -1.872984,2.65602 0.577265,-5.54137 1.699343,-11.06937 4.5344273,-15.89212 1.70447,1.12277 -2.4590513,6.97987 2.515063,5.76493 1.719738,-4.15609 3.934096,-8.19313 5.862247,-12.32092 1.185365,-1.96477 3.226183,-5.855858 5.02193,-8.360657 1.705539,-2.655966 8.47949,-10.759902 9.095935,-8.567413 -5.78133,4.618509 -10.193969,11.797819 -13.700089,17.52573 0.135009,-0.45479 -2.021305,5.45646 -0.812864,1.3402 -0.532874,2.4941 -5.651586,12.2928 -1.835656,10.54047 0.733027,-1.16074 5.20047,-8.87958 3.254993,-2.22619 -1.093557,1.95343 -1.553469,8.273 -2.249895,2.96477 -3.355406,3.94811 1.900661,0.23649 -0.620598,4.81575 1.250471,4.51007 -2.965105,6.57532 -1.934155,1.448 1.615123,-6.64798 -1.66846,-2.55025 -1.753159,1.49942 -2.405076,3.91128 0.07594,5.05956 -0.01207,10.48084 -0.335997,3.0457 2.358961,9.05635 0.527428,10.6003 z M 14.108105,67.44119 c -0.246273,0.14063 0.228382,0.77488 0,0 z m 1.1257,-6.33206 c -0.246273,0.14064 0.228382,0.77489 0,0 z m -4.511639,-2.91978 c 2.102638,-6.07166 -1.6465223,0.22463 -0.265056,1.68855 l 0.09912,-0.75721 0.16593,-0.93134 z m 6.955245,-1.96997 c 0.382213,-1.07013 -0.832254,1.29217 0,0 z m 88.733699,26.94414 c -4.22185,-1.84652 2.84899,-0.0644 0,0 z m -46.172217,-0.0518 c -5.09174,-1.08949 -5.04644,-9.62776 -2.05003,-11.62992 3.60144,-2.03683 10.17858,-3.22744 10.34186,3.73373 -0.109,4.00196 -3.90325,8.88845 -8.29183,7.89619 z m 1.95365,-2.43138 c 6.55991,-1.61937 1.98318,-12.8485 -2.02406,-6.45561 -2.38227,0.99763 -2.40934,7.43438 2.02406,6.45561 z m 4.0027,-4.69089 c -0.15866,-0.52356 -0.3176,1.63927 0,0 z m -0.0466,-2.0589 c -1.10779,-2.32832 0.18199,1.31034 0,0 z m 5.83979,8.33572 c -4.98858,-1.00198 -0.17842,-5.35376 2.3972,-2.1581 6.62859,0.0577 4.83684,-7.67897 -1.15702,-7.11306 -9.93503,-2.68669 5.31846,-13.13057 5.70393,-5.46119 -0.92754,0.7249 -7.38093,-0.78633 -6.25606,2.74002 9.4576,-0.22972 11.41397,13.0076 0.68184,12.21025 z M 23.864841,81.54758 c 0.359503,-0.5048 0.35953,0.50481 0,0 z m 105.182399,0 c 0.34703,-0.50126 0.17019,0.51447 0,0 z m -22.05557,-0.49462 c -3.3028,-3.37549 5.21392,-1.95533 0,0 z m 1.01909,-0.29435 c -0.56397,-0.24978 -0.54936,0.45881 0,0 z m -23.534117,0.35346 c -2.78011,-3.58006 0.0371,-9.19431 -1.86057,-13.91714 -2.85886,-5.28793 6.33839,-1.81879 9.58796,-3.30865 5.525572,4.57951 -8.46088,0.52472 -7.29497,4.83092 -1.38239,5.59651 7.79872,-0.79888 7.1093,3.69884 -1.86878,1.65279 -9.69652,0.9202 -5.50735,5.14595 2.52029,-0.0882 10.928392,-1.31568 5.6768,2.27809 -2.96325,0.26035 -5.72297,-0.33104 -7.71117,1.27199 z m 5.94509,-16.16854 c -4.11317,-0.4415 -0.6185,0.18141 0,0 z m 0.73874,0.0476 c -0.77488,-0.22838 -0.14063,0.24627 0,0 z M 108.4914,81.01998 c 0.62918,-2.27301 1.02103,-7.11508 0.0129,-3.5138 -0.36762,-4.31238 1.73274,-10.91512 0.6135,-16.27482 1.82725,-1.90719 0.29771,-4.26813 -0.54583,-5.91701 -0.2471,-2.8419 -1.54609,-6.03186 -3.45333,-9.41041 -4.07077,-6.973467 4.3397,5.36178 3.96746,8.05334 3.12439,5.64736 0.65101,11.75954 1.37595,17.42629 -1.36806,3.20087 2.05679,5.02862 -1.97065,9.63641 z m 18.79694,-0.74704 c 0.40528,-0.26815 0.32838,0.48332 0,0 z M 97.416525,79.02899 c -1.707652,-6.33965 6.009705,1.22516 0,0 z m 19.980345,0.45059 c -0.67742,-2.1691 1.34737,0.18772 0,0 z m -0.80266,-1.12141 c 0.0961,-1.15022 0.60976,1.36689 0,0 z M 24.236066,77.81876 c -0.76401,-2.08913 0.806727,0.62361 0,0 z m -0.509808,-1.434 c 0.126952,-0.91131 0.546504,-0.0101 0,0 z m 107.502002,-0.0435 c 0.35952,-0.50479 0.35949,0.5048 0,0 z m 1.82605,-0.62348 c -1.06446,-0.63897 0.57159,-9.79966 -1.55196,-13.67741 -0.51758,-3.73649 -1.50911,-8.34254 -1.9272,-10.57978 2.15278,5.16005 1.03562,-12.94725 0.60471,-3.10365 -0.11882,-0.0426 -1.38541,-6.88622 0.15743,-6.65546 -0.63644,-3.053715 3.13051,6.26732 1.90441,8.20832 -1.10619,6.93091 2.75231,13.18633 2.95837,20.0667 0.78974,1.3404 -0.24845,8.18231 -2.14576,5.74128 z m 1.75697,-3.91449 c -0.26062,-5.66296 -0.8341,-0.66902 0,0 z M 130.89931,46.6158 c -0.24628,0.14063 0.22838,0.77487 0,0 z M 23.545263,75.27124 c -0.612829,-2.1291 0.485216,-0.0163 0,0 z M 131.08753,75.13688 c 0.43707,-0.51032 0.26701,0.70854 0,0 z m -8.63589,-0.23953 c -0.43275,-4.27026 1.2278,-0.82283 0,0 z m 3.16341,-0.27984 c -0.84785,-3.20987 1.71126,1.30675 0,0 z M 23.224013,72.95188 c 0.04643,-1.03734 0.478675,0.50135 0,0 z M 123.73531,72.74266 c -1.07394,-1.67154 1.32738,-4.30165 0,0 z M 0.9990532,72.542 c 0.347038,-0.50125 0.170158,0.51447 0,0 z M 130.1047,71.73291 c 0.19587,-1.04063 0.48325,0.32276 0,0 z m 0.41998,-0.1842 c 0.40528,-0.26812 0.32837,0.48332 0,0 z m -7.79006,-0.62489 c 0.33456,-0.75981 0.49324,0.74471 0,0 z m 7.71493,-0.38697 c -0.3417,-3.81429 0.21216,-5.95907 0.33324,-0.88514 0.23602,0.13491 -0.40495,2.59792 -0.33324,0.88514 z m -5.60866,0.23474 c 0.80437,-5.20108 0.0851,-9.46305 -1.20069,-14.60192 -0.89162,-2.27811 -1.46186,-11.34419 0.24849,-5.04264 0.38296,6.56458 2.5214,13.09912 1.92212,19.59343 l -0.65332,0.2638 -0.3166,-0.21269 z m 3.18614,-0.57417 c -1.8312,-3.26169 0.55284,-5.6938 -0.46402,-9.40905 -0.34204,-3.53614 -1.05882,-7.15927 -0.55637,-1.40934 -0.12058,5.96475 -1.88395,-6.46945 -1.82343,-8.64146 3.01671,-5.62235 2.9986,5.52519 3.43165,8.56553 0.0376,3.30249 1.0607,8.43225 -0.58783,10.89432 z m -1.21528,-15.20927 c 0.0745,-3.43 -1.32678,-5.20202 -0.27431,-0.73874 -0.48704,-0.31571 0.51241,2.0323 0.27431,0.73874 z M 23.585522,68.50483 c 0.126963,-0.91133 0.546509,-0.0101 0,0 z m 24.741351,-2.81872 c -3.89417,-2.03934 1.61367,-9.91117 -5.20986,-10.56136 -3.30357,-0.64816 -7.599367,-6.88874 -2.8879,-6.54954 0.30332,3.1281 7.56717,8.62058 8.44291,3.74773 1.53259,-2.28131 4.65177,-11.03227 6.95471,-5.45994 -3.24094,4.59982 -8.45102,10.40384 -5.04151,16.02816 -0.11043,1.00088 -0.55181,3.39839 -2.25835,2.79495 z m 1.99182,-13.82881 c 0.34503,-0.99874 -0.66901,1.00977 0,0 z m 1.69432,-2.68163 c 0.93082,-1.71669 -1.17697,1.52351 0,0 z m 78.266447,15.2402 c -0.14606,-2.62362 -1.26924,-11.24735 0.0422,-3.95652 0.43634,0.26471 0.25255,6.67955 -0.0422,3.95652 z M 5.0104242,63.88949 C 5.2203092,59.40394 6.6583232,56.23228 7.9551707,52.30544 8.0728587,49.93529 12.5655,41.97037 10.871162,48.28789 8.4509067,53.0584 7.2704027,60.03825 5.0104242,63.88949 Z m 2.1096095,-8.37367 c -0.170168,-0.51446 -0.3470375,0.50125 0,0 z M 28.20452,61.49609 c 0.04574,-3.38576 0.226914,3.0055 0,0 z m 32.844143,-0.78316 c -6.18789,-0.90115 -5.32604,-10.28618 -3.07221,-13.25162 6.60897,-3.07254 15.62351,2.66795 10.2189,9.83995 -1.49844,2.21748 -4.42011,3.95417 -7.14669,3.41167 z m 2.59691,-2.64348 c 8.02089,-2.27022 0.69672,-14.24032 -3.99857,-6.05307 -2.46452,2.84419 0.0119,7.93142 3.99857,6.05307 z m -36.30828,-1.44082 c 0.477893,-4.20562 0.101222,3.47254 0,0 z m 48.63415,0.58768 c -4.36047,-1.79384 -5.54141,-11.56958 -2.43522,-13.02783 2.30264,2.20198 -0.79214,13.64297 5.95418,10.34717 4.94442,-2.9891 0.0289,-13.05177 6.14707,-12.94539 1.78279,4.59615 -0.76038,11.24565 2.38986,14.94615 -2.61431,3.81471 -5.68859,-2.32037 -5.0634,-2.6265 -1.53536,2.40612 -3.89923,4.78706 -6.99249,3.3064 z m 10.65101,-1.89433 c -0.37521,-0.71184 -0.52235,0.0833 0,0 z m 18.294847,0.72846 c -1.09239,-2.93021 -3.37874,-9.32096 -0.22433,-3.53865 0.70628,0.73991 1.56906,7.37564 0.22433,3.53865 z m 16.03894,0.30965 c 0.35952,-0.50479 0.35952,0.5048 0,0 z m -93.130625,-2.8846 c -0.157245,-3.43001 4.850927,-12.58273 1.928028,-4.47423 -0.601931,0.22393 -1.834629,7.58906 -1.928028,4.47423 z m 90.131545,-0.67553 c -0.99245,-5.25583 1.39395,4.37752 0,0 z m 2.83766,-5.83241 c -4.78374,-3.96562 2.73455,-4.26904 5.31758,-3.62513 3.68759,-1.3623 -0.15351,2.70265 -1.85447,0.9486 -3.03867,-0.79795 -1.94874,2.59843 -3.46311,2.67653 z m -9.61207,-0.5883 c 0.0603,-0.70965 0.56856,0.49734 0,0 z M 99.956485,45.55711 c -1.94346,-1.97392 0.321585,-1.41507 0.243285,0.20316 z m 16.102975,-0.90427 c -0.0833,-3.2755 3.20874,0.11974 0,0 z M 97.857105,42.76957 c -3.155812,-3.474688 0.19564,-1.35268 0.87945,0.92642 z m -66.217958,0.69252 c -0.294903,-3.46986 4.201631,-3.0225 0,0 z m 82.422193,-0.45794 c 0.47563,-0.99121 0.51339,0.86289 0,0 z m 2.63158,-0.0927 c -1.79126,-2.82641 -0.90139,1.39536 -2.9743,-3.196709 -1.68404,-2.301519 1.57227,-0.158213 -1.18646,-3.335771 -4.01178,-1.706113 -7.84622,-7.927805 -12.2879,-10.974138 -4.060237,-4.856319 4.16049,1.915357 2.00664,0.842854 2.95918,1.70167 4.02824,1.443284 3.63177,2.328937 2.17262,2.257332 7.37869,8.155075 2.69093,2.481289 -4.00856,-4.771649 4.82645,4.050148 5.49042,6.874101 0.39725,0.783241 3.89335,5.490617 2.6289,4.979437 z m -1.50588,-1.74826 c -0.34705,-0.50125 -0.17015,0.51447 0,0 z m 0.20858,-0.62396 c -1.4416,-1.691626 1.21911,1.93204 0,0 z m -0.61325,0.0236 c -0.46769,-0.36419 0.44495,0.76752 0,0 z m -0.54198,-0.956759 c -0.65673,-0.594268 0.0315,0.918409 0,0 z m 3.97558,2.408399 c -3.47046,-5.706783 -4.69552,-5.551325 -8.04703,-10.423591 -1.96972,-3.58533 -9.64983,-6.757252 -8.19367,-10.690218 5.13948,2.484241 9.40725,7.172675 12.71777,12.241965 0.30654,1.589351 8.89328,10.560114 3.52293,8.871844 z m -7.46037,-0.84966 c 0.63924,-0.55891 1.28408,0.24472 0,0 z m -91.954453,-0.9191 c 2.632379,-3.277176 1.924875,-0.592004 -0.331189,0.5439 l 0.331216,-0.54389 z m 14.627232,0.49239 c -0.604117,-3.14657 1.809787,0.28759 0,0 z m 2.115529,-0.11029 c 1.164757,-2.49394 10.838045,-9.827181 4.401205,-4.302839 -1.540179,1.360203 -2.876195,2.928744 -4.401205,4.302839 z m 85.510782,-0.54627 c -2.7251,-4.628423 -4.63991,-8.067485 -8.47083,-11.723146 -1.05786,-2.543344 -9.432,-7.281046 -6.66739,-8.284712 6.66505,5.567756 12.44811,12.542715 16.01473,20.385918 -0.29363,0.30855 -0.79656,-0.0634 -0.87651,-0.37806 z m -3.0534,-6.024274 c -0.9988,-0.79859 0.49085,0.730718 0,0 z m 6.27134,5.994194 c -1.32897,-1.749964 -3.11536,-4.336254 -4.38815,-5.656044 -0.39577,-1.178111 -5.86397,-5.603281 -6.94035,-8.650377 4.15155,2.939691 7.97198,8.133065 10.9319,12.713766 0.37448,0.06044 1.82357,3.381815 0.3966,1.592655 z m -2.1476,-3.340867 c -0.39706,-1.219312 -0.72713,0.280495 0,0 z m -2.72651,-3.181 c -0.2926,-1.804827 -0.5798,0.841673 0,0 z M 9.5960877,40.20017 c 0.06367,-0.72008 0.7107903,0.0982 0,0 z M 129.29994,39.93194 c -2.70916,-3.813388 1.67691,1.18357 0,0 z M 93.489863,38.064375 c -3.60619,-2.896409 -2.87927,-3.512683 0.22062,-0.974932 1.59171,0.626283 1.69979,3.837717 -0.22062,0.974932 z m -80.319198,0.276831 c 4.278246,-8.140817 10.797314,-14.810582 17.377962,-21.191429 3.952562,-1.560257 -4.407262,5.00783 -5.321327,6.589492 -3.602838,3.975511 -5.961491,6.235487 -8.609186,10.159905 -1.112197,1.392165 -1.877558,3.806586 -3.447449,4.442032 z m 5.711607,-7.695239 c -0.625507,-0.01687 -0.340267,0.728618 0,0 z m 89.824428,7.32829 c -1.69274,-1.723711 2.06043,1.705986 0,0 z M 12.097945,37.874024 c 0.463891,-2.142487 1.587469,-2.736802 0.176184,0.07035 z m 8.868813,0.031 c 1.006433,-1.186881 0.829446,0.211236 0,0 z m 0.08245,-0.782741 c 2.063824,-1.158449 -0.148114,0.828941 0,0 z M 107.8187,37.021476 c -0.7494,-1.487321 0.93894,1.117254 0,0 z M 21.894821,36.238245 c 0.347032,-0.501267 0.17019,0.514467 0,0 z M 106.6974,35.722299 c -0.43339,-0.637255 0.61911,0.120374 0,0 z m -2.38038,-0.972534 c -3.18162,-4.55132 4.27597,1.923481 -2e-5,0 z m -14.458177,0.258462 c -4.16854,-2.25074 1.79445,-1.497143 0.3477,0.07819 l -0.34772,-0.07819 z M 28.713887,34.55575 c 0.969832,-0.889436 -0.567225,0.867605 0,0 z m -4.849093,-0.850326 c 1.758573,-2.950449 0.408107,0.0078 0,0 z m 5.065641,0.18139 c 0.530284,-0.952729 0.383213,0.01606 0,0 z m -3.855109,-1.705801 c 0.49388,-0.679007 0.662628,0.349649 0,0 z m 0.51026,-0.753374 c 0.511329,-0.738178 0.473086,0.626131 0,0 z m 77.630264,-0.219862 c -1.13428,-1.182776 1.38416,1.182825 0,0 z m 0.86632,0.12684 c -0.60807,-1.262581 0.76525,0.844886 0,0 z m -3.10394,0.01505 c 0.68937,-1.381217 0.9886,-0.322575 0,0 z m -75.267474,-0.44519 c 0.779439,-2.608335 2.407044,0.376186 0,0 z m 55.494277,-3.195566 c -4.70175,-2.221134 4.85235,0.758172 0,0 z m -26.0135,-0.03393 c 0.98838,-2.177849 6.13703,-1.198349 2.47197,-0.387701 -0.79687,-0.782789 -1.78689,1.38546 -2.47197,0.387701 z m 20.25028,-0.423461 c -3.83108,-0.891372 -5.62844,-2.007473 -0.35849,-0.982196 4.99821,0.953703 2.19108,1.173271 0.35849,0.982196 z M 27.875091,26.810529 c -1.745325,-2.434911 10.586488,-9.274514 4.768212,-3.517804 -1.574657,1.025166 -3.058711,3.173945 -4.768212,3.517804 z m 34.263432,-0.216947 c 1.86313,-2.171999 9.50789,-0.161081 3.0508,-0.218351 -1.02248,0.0061 -2.02454,0.259526 -3.0508,0.218351 z m 35.039512,-0.513484 c 0.14108,-1.215581 0.5356,0.278451 0,0 z M 86.403323,25.766693 c -0.80001,-0.942104 1.25271,0.777727 0,0 z m 13.376722,-0.08025 c 0.356095,-0.257344 0.560215,0.453288 0,0 z M 27.22913,24.80095 c -1.321056,-3.09874 9.73913,-9.467289 4.12859,-3.643504 -1.313923,0.821334 -2.871891,3.832648 -4.12859,3.643504 z m 70.368885,-1.075782 c -1.039802,-0.620938 0.86603,0.111115 0,0 z m -1.512662,-0.718263 c -1.64677,-2.109549 1.610252,0.72906 0,0 z m -1.02016,-0.699176 c 0.54923,-0.514044 0.54923,0.514044 0,0 z m -1.68855,-0.703561 c -2.44904,-2.012392 -3.99869,-1.721934 -4.9895,-2.964317 1.92568,-0.973678 6.33299,1.077351 4.98952,2.964315 z m -37.71088,-1.125164 c 0.52342,-0.726368 0.82487,0.09871 0,0 z m 33.27986,-0.284254 c 0.5676,-0.271303 0.3188,0.488825 0,0 z m -0.97735,-0.686622 c -4.47398,-0.0065 -1.13081,-2.331463 0.28303,0.02864 z m -30.51633,-0.9489 c -0.0671,-0.826987 0.71343,0.306172 0,0 z m 23.82345,-0.197871 c 0.0321,-0.319207 1.29513,0.461331 0,0 z m -1.06482,-0.450886 c -0.65772,-1.372963 1.94035,-0.378298 0,0 z m -1.1918,-0.463616 c -1.87171,-1.765855 -10.37251,0.4166 -9.04102,-2.592193 2.90522,-1.468872 7.76842,-1.656095 9.97462,1.043296 0.44265,0.314453 -0.36487,2.088524 -0.9336,1.548897 z m -0.91777,-1.61189 c 5.60776,0.847221 -7.20679,-1.722335 -0.68993,0.60252 l 0.30458,-0.254064 z m 1.48584,-0.550457 c -0.85494,-0.363734 -1.27011,0.463933 0,0 z m -20.86059,0.879403 c 0.77487,-0.228387 0.14063,0.24628 0,0 z m -0.38696,-0.477963 c 0.40529,-0.268135 0.32838,0.483313 0,0 z m -3.23638,-0.527539 c 1.91392,-1.358386 3.05184,-0.794565 0,0 z m -1.61819,-0.308429 c 0.50491,-0.535719 0.17474,0.554738 0,0 z m -12.13643,-0.382709 c 2.3873,-4.288411 10.34037,-5.0353707 15.20958,-6.8383617 7.74717,-0.372265 -1.41294,1.672251 -4.12849,2.4368827 -3.99346,1.160133 -7.61451,3.583949 -11.08109,4.401479 z m 8.19047,-3.688223 c 10e-4,-0.652245 -0.37856,0.459781 0,0 z m 4.34863,-1.4872017 c -0.33399,-0.738315 -0.12178,0.7432557 0,0 z m 2.62264,-0.80206 c -1.05261,-0.425226 -1.3297,0.419154 0,0 z m 2.95496,5.9517697 c 2.23998,-0.644913 7.83915,-1.319605 3.20123,-0.16927 -1.06769,-0.08156 -2.13749,0.449086 -3.20123,0.16927 z m 1.26641,-1.072617 c 3.56349,-0.354943 -3.0006,0.640883 0,0 z M 39.539154,13.22028 c 0.0567,-1.223436 0.607319,0.859726 0,0 z m 18.731209,-2.171826 c 0.56759,-0.271303 0.31878,0.488826 0,0 z m 36.10222,-0.599313 c -1.06751,-1.2931987 2.42059,1.196997 0,0 z m 3.647572,-2.9161977 c 0.35951,-0.504798 0.3595,0.504799 0,0 z M 59.887133,7.3922313 c 0.9255,-0.520832 0.9255,0.520831 0,0 z"
       id="path1188" />
  </g>
</svg>
