<?xml version="1.0" encoding="UTF-8" standalone="no"?>

<svg
   viewBox="0 0 135.46669 135.5993"
   version="1.1"
   id="svg5"
   xmlns="http://www.w3.org/2000/svg"
   xmlns:svg="http://www.w3.org/2000/svg">
  <defs
     id="defs2" />
  <g
     id="layer1">
    <path
       style="fill:#ffffff;stroke-width:0.139022"
       d="m 51.883759,129.85179 c -5.95577,-1.85009 -9.56376,-8.34456 -16.03949,-8.73531 -5.86764,-0.69026 -11.42934,-1.21352 -15.33222,-6.28332 -4.39005,-2.1822 -2.12795,-8.9559 -0.6619,-10.51478 -0.19919,2.00567 -1.20166,8.22496 1.07707,7.63282 -2.41236,-3.45668 1.77117,-6.35596 -0.68482,-9.0057 4.58129,3.20958 8.81421,8.2772 13.99952,11.27028 2.8712,1.67153 5.35563,3.2547 6.62732,5.42183 2.57624,0.0531 8.78822,3.41575 13.32282,2.99168 4.16446,-0.36685 8.88916,-0.22185 10.04218,3.0519 5.15265,1.40877 -1.65817,-2.75171 4.49566,-1.79724 4.6848,0.38807 12.37206,-3.37096 14.87535,-2.60719 -1.64313,4.37268 -7.86881,4.90036 -11.78211,5.5316 2.85299,2.7647 4.65587,-0.2076 6.20104,-0.1632 1.90949,1.64524 2.77928,-1.97264 1.85324,0.79718 1.06718,-2.28323 8.90112,-10.26298 4.31257,-4.10459 -3.03097,7.12115 -10.50566,7.58185 -16.32324,3.64103 -4.06909,0.45234 -9.12321,-0.46517 -8.89945,2.3303 -2.35954,-0.004 -4.78402,0.57766 -7.08354,0.54271 z m 5.7939,-1.94233 c 0.36372,-0.55341 -1.2043,0.58287 0,0 z m -7.41441,-0.13929 c 5.33878,-1.77056 0.65822,-0.39136 -1.60561,-1.7723 -0.88883,-0.81604 1.47913,2.3168 1.60561,1.7723 z m 1.20187,-0.92883 c 0.60939,-0.19913 0.0603,0.26762 0,0 z m 2.8065,-0.3221 c 0.0433,-0.9128 -2.25338,0.41645 0,0 z m 0.97316,-0.22475 c -0.73511,-0.23859 -0.73358,0.42819 0,0 z m 2.15484,-0.0595 c 3.64594,-0.50828 5.30125,-1.54927 0.58302,-0.94587 -1.38518,0.23644 -4.03859,1.7095 -0.58302,0.94587 z m 13.41561,0.0757 c -2.05994,-1.06524 -0.16037,0.5073 0,0 z m -33.68095,-7.93873 c -0.55048,-0.29215 -0.12993,0.31325 0,0 z m -7.6462,-0.55609 c -0.55049,-0.29216 -0.12993,0.31325 0,0 z m 5.84652,-0.0335 c -3.21202,-3.03961 -8.43662,-5.47955 -11.68881,-9.06631 0.32239,2.59418 7.58835,7.20356 11.23913,8.91565 -0.0184,0.33805 -0.0577,0.32008 0.44968,0.15066 z m -7.55461,-1.19184 c -1.03344,-0.58594 0.62256,0.65323 0,0 z m 37.59461,5.29689 c -4.41915,-0.52405 -9.57337,-0.12897 -13.51699,-2.43737 2.98179,1.40855 12.31887,-0.19595 4.43326,-0.80244 -5.38837,-2.04253 -4.38789,0.73741 -3.00124,0.84169 -4.86929,-1.81023 -10.09085,-1.7681 -14.72637,-4.29903 -5.03695,-1.57479 -9.34664,-7.07107 -12.6594,-9.86383 -2.05783,-0.76845 -8.13353,-6.681737 -7.44406,-6.924397 -0.0869,-0.92809 -4.83173,-8.83022 -6.4595,-11.87868 -3.63923,-4.559514 -2.92766,-10.704254 -4.18149,-15.886424 -1.01929,-10.35627 0.78911,-21.03021 4.86953,-30.57755 2.71459,-4.60534 5.84082,-10.083 8.77412,-13.77497 -3.2794,1.46425 -3.71415,4.29953 -5.94791,7.51723 -2.60205,2.48563 -3.29128,11.517 -6.51822,10.35857 -1.43001,-1.20688 1.06206,-7.74946 -0.55188,-3.98588 -0.1302,-8.626 -0.35811,3.44181 -0.5458,6.26824 0.30314,2.18101 -4.3112,12.19661 -0.73937,7.16942 -0.56442,8.26169 -1.29534,16.80459 0.48352,24.95667 1.29821,6.62498 4.41752,12.400414 7.14685,18.627954 2.50054,0.69008 3.80799,5.900267 0.59097,1.32051 -6.72058,1.994167 -10.17074,-4.26751 -11.05613,-10.20262 0.29895,-5.594184 0.79311,-11.337634 -1.50462,-16.631354 -0.73663,-4.86462 -6.1148099,-13.19326 0.26173,-15.59039 4.31071,-5.1204 4.25409,-12.72482 4.11394,-19.14746 -0.50485,-4.17039 3.07135,-14.0082 8.66704,-10.52705 5.29397,0.7249 8.83228,-5.02095 11.9105,-8.50379 3.94282,-4.86727 7.00686,-11.4902604 13.88066,-12.6253804 2.48645,1.4003 5.28432,2.22277 7.80339,2.19926 -4.34733,2.33162 -7.5925,-3.28094 -11.37744,2.06495 -5.03507,0.6803104 -7.90114,7.9038904 -10.65005,11.2744804 2.39463,-2.62785 4.68201,-7.19609 8.35229,-9.20527 3.21796,-1.8756904 7.88467,-5.2513404 10.4614,-2.6424604 -6.11181,2.1273904 -11.27128,6.2158604 -16.09646,10.3253904 5.73342,-3.00775 10.73419,-7.56891 16.85466,-9.9104204 3.10209,-0.27195 5.48033,-2.07933 7.44159,-1.53019 3.28801,-0.89866 7.6256,-1.81061 11.80027,-2.16034 2.98039,-0.51095 9.54755,0.97098 2.75246,0.89684 -1.95574,1.44235 -6.52089,0.60833 -8.29188,0.73117 -4.34021,0.58619 -6.13721,2.20916 -9.97844,3.3532904 -4.49619,1.75689 -9.98387,5.55041 -13.62972,6.76204 -5.89147,4.06788 -11.318,8.59311 -15.22185,14.65644 -5.08592,6.79163 -8.28768,14.50147 -10.06788,22.67921 -0.55237,3.45311 -0.53616,11.78441 -0.0972,12.13061 0.0294,-11.77475 3.78831,-23.79164 11.14392,-33.03783 -3.11831,6.56344 -7.48973,13.59359 -8.95766,21.1903 -1.43339,6.9114 -2.52503,14.16856 -1.38862,21.18518 1.67789,5.04191 -0.10042,1.78028 1.27058,1.13977 2.76315,8.503624 -1.93519,-11.18729 0.34717,-4.18763 -0.65747,-19.46031 7.56513,-40.25862 24.47422,-50.98169 6.52394,-3.11062 -4.08519,3.64132 -3.37459,4.80624 -3.17023,3.33479 -6.58621,6.91847 -9.31263,10.83056 -4.47586,6.5542 -7.66188,14.04286 -7.96115,22.03865 -0.79497,2.66379 -0.52068,9.22951 0.007,2.72917 0.15015,-4.57916 2.21823,-10.70835 3.90962,-13.75106 -0.73042,5.20616 -2.46226,10.42539 -2.60547,15.77829 2.51128,-1.95527 1.21385,4.99319 2.3792,-0.57185 2.31518,-3.31009 2.9681,-10.0266 4.48951,-14.74088 1.81514,-3.87255 2.88416,-3.27006 3.40476,-6.79174 5.02703,-7.4408 11.43163,-14.38337 19.47333,-18.66071 2.11971,1.35404 9.87155,-2.70943 3.54401,-0.86618 0.94431,-3.36429 10.15429,-3.33333 13.79983,-4.74534 4.67157,-1.25582 8.25302,2.1978 12.61498,1.73368 3.15006,2.11871 5.26226,0.73551 7.27942,3.02632 6.40303,0.96897 11.01078,6.37799 14.635731,11.33547 0.28045,3.44253 1.39151,2.43359 1.89519,1.00563 2.99677,3.32873 5.8347,9.77364 7.89302,12.1216 -2.46913,-6.06794 2.44082,0.26262 2.94996,3.46035 0.6142,3.57118 4.62003,3.62219 5.87076,6.95107 1.45364,-0.46329 -0.80182,-7.34638 -1.19728,-9.31446 -0.47886,0.783 -4.91787,-11.40985 -1.65538,-4.1751 1.12031,4.6753 5.19983,6.50829 5.37315,11.62774 2.56476,-2.7919 -2.28999,-9.66168 -3.5537,-13.56104 -1.61423,-2.16389 -3.6084,-6.09715 -5.75544,-8.92435 -2.77834,-3.20468 -5.55644,-6.68745 -8.72248,-9.46061 -4.175071,-3.28437 -8.852871,-7.57722 -14.347981,-9.10909 -5.74519,-2.14892 -11.63547,-4.63789 -17.94799,-4.69354 -3.37735,-0.5659304 -7.11214,0.10301 -11.25558,0.48472 -9.10982,1.79798 -17.93465,5.33563 -25.52335,10.77614 -2.46238,1.086 -9.61855,8.62962 -8.38148,6.32086 2.22073,-2.61132 8.18994,-8.20705 8.91044,-7.56605 4.12515,-2.69708 9.75681,-5.49258 13.3461,-7.62572 5.77083,-2.53519 8.73737,-4.8575204 15.03437,-4.8961304 3.33469,-0.26303 7.6487,0.10954 10.45297,0.97243 6.05564,1.6757804 13.09894,2.9389404 18.87524,6.2521304 3.87475,2.10038 5.71571,2.93005 8.639121,5.05928 2.25601,2.25666 8.55221,6.49612 3.22763,1.1546 -2.37554,-2.28533 -5.441811,-4.63496 -1.3805,-0.75427 -2.66085,-2.13554 -8.983181,-6.45907 -13.867971,-8.17193 -5.03416,-2.15867 -10.09364,-4.2048404 -15.54247,-5.1087004 -3.1276,1.08761 6.0375,-1.90629 5.98348,0.31468 -5.05972,-0.77021 6.56635,2.43671 8.44129,3.0149804 5.38554,2.17086 10.38052,4.91648 14.818281,8.63995 5.3599,4.61186 8.74207,11.39828 13.73171,16.08938 3.56431,4.77999 6.6416,10.9692 8.04728,17.04511 1.71024,5.84351 1.40804,11.71739 0.69115,17.64379 -1.7052,5.32024 -2.5463,10.54699 -4.60454,15.87948 1.51178,3.302364 2.96475,-8.20909 4.40448,-4.95632 2.52488,-5.3578 2.23908,-12.41121 1.83188,-18.46842 -0.54036,-8.12315 -2.77838,-16.11046 -6.22941,-23.40286 -1.08763,-3.72821 -5.41534,-7.40165 -5.74729,-10.43742 2.941,5.13003 11.09423,3.16941 12.22673,9.40019 0.85388,5.61556 2.09503,10.72945 5.08375,15.22748 3.88022,6.79508 2.42113,14.73946 1.64271,22.09371 -4.66109,1.60699 -10.44507,5.25589 -10.40026,10.772004 0.96425,5.52692 2.44377,10.99708 -2.71749,15.023667 -3.13163,5.88762 -10.52995,5.92315 -14.39894,11.69717 -3.33831,4.20212 -8.131911,12.45383 -13.809051,6.53323 -1.13557,-0.12381 -7.70124,-0.16194 -1.51884,-1.79027 1.87715,2.1074 9.349771,1.98056 8.646291,-0.007 -0.851321,0.82782 -8.772891,2.20426 -4.433271,-0.87637 6.773441,-3.31571 11.805841,-9.07816 16.057021,-15.15275 -0.34221,-2.699777 -5.98474,5.08916 -8.54982,5.92081 -3.19711,2.4727 -7.935071,6.04519 -12.125311,8.2177 -1.74184,2.16763 -6.57102,2.87269 -9.65965,4.62844 -5.16705,0.0951 -10.0418,1.80436 -15.25009,1.58475 -0.40865,-0.0666 -0.6868,0.84172 -1.00632,0.0544 z m 6.99768,-1.20711 c -0.2679,-0.71492 -3.48328,0.56765 0,0 z m -3.512,-0.97315 c 0.62263,-2.68914 -3.50826,1.74813 0,0 z m 2.75433,0.0587 c 0.77793,-1.23172 -4.99095,0.94239 0,0 z m -10.29052,-0.55977 c -0.55048,-0.29215 -0.12993,0.31326 0,0 z m 1.45336,-0.22417 c -0.60743,-0.12313 0.43052,0.62837 0,0 z m -0.51305,0.0317 c -0.35184,-0.25423 -0.55345,0.44784 0,0 z m 12.22195,-0.0808 c 3.30091,-0.55597 5.74483,-1.40182 0.86664,-0.56613 -0.74577,-0.21919 -3.40056,1.33345 -0.86664,0.56613 z m 24.76254,-0.0329 c -0.60468,0.16512 -0.26876,0.39346 0,0 z m -35.10671,-0.19776 c -0.94643,-0.15254 -0.33453,0.58375 0,0 z m 2.12273,0.21875 c -0.92664,-0.25363 -0.16695,0.25247 0,0 z m -15.27953,-0.53441 c -0.12031,-0.73433 -0.32998,0.72944 0,0 z m 19.13284,-0.10427 c -0.4884,-2.51982 -1.41784,0.58384 0,0 z m -7.40102,-0.13902 c 3.60247,0.86986 5.29386,-0.63982 7.92763,-1.1213 3.40937,2.60187 11.36099,-0.86633 15.97512,-2.08474 4.77172,-2.11013 8.0123,-3.76107 12.16435,-7.08098 3.481581,-2.38406 9.238101,-8.215977 10.087931,-10.018397 -5.27384,5.270917 -10.886051,10.496077 -17.833901,13.494177 -4.24908,-0.34632 -10.78355,3.7114 -16.43525,3.69688 -5.02206,1.11482 -9.98545,1.35961 -15.05201,0.83719 -4.65758,-0.71807 -4.93341,-0.38279 -9.2847,-1.71008 -13.48049,-3.69762 -24.99411,-14.11186 -30.06808,-27.120097 -1.82761,-2.879754 -2.07668,-6.891534 -2.75698,-9.237284 -1.7336,-5.94144 -0.60477,-11.39895 -0.29079,-17.32989 0.24964,-1.05217 1.73876,-7.53952 -0.41085,-5.10874 -2.11895,6.8631 -2.26676,14.24055 -1.69062,21.31526 1.19938,3.35178 3.59033,11.059504 0.51617,5.87845 1.53793,5.714024 4.0721,11.035414 8.15747,15.229964 4.72582,6.674337 11.61108,12.240947 18.65007,15.539787 3.8665,1.15966 10.33107,4.22434 13.77084,3.84069 2.09808,0.31412 4.91152,0.43059 6.5736,0.97911 z m 16.85641,-1.89203 c 1.71551,-1.80585 2.32244,0.56608 0,0 z m -28.29667,-0.44589 c 0.73565,-0.29575 0.13859,-0.13634 0,0 z m -4.30396,0.7103 c -3.80723,-1.75669 2.29686,1.48702 0,0 z m 36.09518,0.16258 c -0.79501,0.13244 -0.15538,0.33874 0,0 z m -30.39446,-2.1743 c -2.02332,-1.00856 1.36077,1.13478 0,0 z m -10.91683,-0.0134 c -0.81171,-0.5345 0.49237,0.67553 0,0 z m 47.47778,-0.0646 c -0.35184,-0.25423 -0.55347,0.44785 0,0 z m -46.41825,-0.17536 c -1.21888,-0.81014 -0.83953,0.30878 0,0 z m -6.20056,-1.49449 c -1.56755,-0.65989 0.48701,0.53026 0,0 z m 69.149641,-1.59875 c 1.36248,-2.60793 -3.23283,3.8839 0,0 z m -15.539281,-0.0414 c 5.75378,-3.06611 12.068131,-7.30205 16.568421,-12.629077 6.40299,-6.9264 10.99502,-15.602724 12.57469,-24.935024 2.52256,-2.62886 1.78256,-10.75058 0.61236,-14.04963 -3.29547,1.4674 0.12459,8.43271 -1.49267,11.86166 -2.12819,14.899664 -11.48579,28.439404 -24.346281,36.256241 -0.51104,1.60783 -8.102,3.10642 -3.91652,3.49583 z m -24.69423,-1.10561 c 1.16838,-1.06462 3.65302,-0.38513 0.12518,-0.58073 -0.76843,0.89137 -2.19296,1.57635 -0.12518,0.58072 z m 3.79142,-0.82105 c -0.92664,-0.25363 -0.16695,0.25247 0,0 z m 0.8981,0.007 c -0.55048,-0.29216 -0.12993,0.31325 0,0 z m 37.782101,-0.055 c -0.16813,-0.50828 -0.34287,0.49523 0,0 z m -47.267451,-0.27779 c -1.13547,-1.00393 -0.19556,0.70708 0,0 z m -28.46723,-0.29613 c -1.90046,-1.71664 -0.0816,0.35748 0,0 z m 76.251681,0.0528 c 4.50109,-3.40338 10.0548,-5.06454 12.73477,-10.530907 3.25588,-1.29015 2.98659,-8.53126 0.76524,-3.16339 -2.81167,4.44819 -5.59445,8.755247 -10.49232,10.348727 -0.0559,1.4383 -4.49337,3.01545 -3.00769,3.34557 z m -55.951981,-0.0648 c -2.10119,-1.77947 -8.76836,-3.26933 -2.46764,-0.73947 0.72617,-0.24572 1.86372,1.28199 2.46764,0.73947 z m 6.74256,0.077 c -0.76557,-0.22563 -0.13894,0.24332 0,0 z m 14.80293,0.008 c -0.55049,-0.29215 -0.1299,0.31325 0,0 z m -23.03998,-0.19405 c -1.20815,-0.60098 0.33942,0.55184 0,0 z m 6.91345,-0.084 c -0.55049,-0.29216 -0.12993,0.31325 0,0 z m 8.11565,-0.73026 c 0.66238,-2.00867 7.87217,0.90539 11.45458,-1.23123 5.0163,-1.34479 9.60106,-4.31056 13.75169,-6.434427 4.68701,-3.34023 7.09971,-8.05512 11.193591,-12.11357 -0.26038,-0.5091 2.42452,-4.825444 1.81643,-1.09395 4.13434,-2.792224 -1.34216,-5.635714 2.03882,-8.818034 -1.9701,0.76477 -3.37823,5.15377 -5.20959,7.955054 -0.24014,4.14875 -5.172731,9.73394 -9.437451,12.25567 -3.87554,3.109847 -8.94181,5.572247 -13.44828,6.541277 -5.27978,1.84921 -10.27914,1.39865 -15.75176,1.01365 -4.47432,2.87291 1.62404,2.41667 3.59197,1.92556 z M 105.01462,83.422279 c 0.34288,-0.49523 0.16811,0.5083 0,0 z M 77.172589,108.08419 c -0.55049,-0.29215 -0.12991,0.31326 0,0 z m -4.87848,-0.29076 c -0.82072,-0.45078 -0.32305,0.40307 0,0 z m -42.16927,-1.11526 c -1.52609,-2.61459 -6.92546,-5.16702 -2.15063,-1.17816 0.44159,0.73173 4.63328,3.66217 2.15063,1.17816 z m 20.74075,0.0998 c -0.70675,-0.55376 0.19495,0.50525 0,0 z m 6.29769,-0.30584 c -2.06801,-2.17988 -4.64635,-0.40951 0,0 z m -10.74639,-0.11122 c -0.49886,-0.52929 -0.17264,0.54808 0,0 z m 0.60104,-0.32432 c -6.16826,-3.65193 -12.44375,-7.618827 -16.84533,-13.546707 1.70117,3.51642 7.27432,8.290257 11.2695,10.844177 0.22734,0.39508 2.1587,1.06772 2.2396,1.48455 -0.13297,0.0491 2.3111,1.45625 3.33623,1.21798 z m 56.998491,-0.53632 c 2.25575,-1.51045 8.84275,-9.146407 3.24452,-3.63623 -0.12398,0.35984 -6.0371,5.28866 -3.24452,3.63623 z m -56.626381,-0.11251 c -0.70675,-0.55378 0.19492,0.50525 0,0 z m 6.51763,-0.11249 c -1.03906,-0.90114 -1.08977,0.29174 0,0 z m -7.07371,-0.16556 c -0.70677,-0.55377 0.19494,0.50525 0,0 z m 39.23603,0.055 c -0.55049,-0.29215 -0.12991,0.31326 0,0 z m -36.87267,-0.19405 c -0.49884,-0.52928 -0.17264,0.54807 0,0 z m 37.56778,0.055 c -0.55048,-0.29215 -0.12993,0.31325 0,0 z m -35.13489,-0.18103 c -1.46146,-0.66642 -1.30312,0.32195 0,0 z m 1.03304,0.003 c -0.64615,-0.57746 -1.02581,0.28672 0,0 z m -4.50859,-0.34825 c -0.0634,-0.37329 -0.82209,0.12461 0,0 z m 13.78119,-0.36618 c -5.2902,-1.3035 1.38106,1.16999 1e-5,-1.2e-4 z m 26.18761,-0.41331 c -0.16812,-0.50828 -0.34287,0.49523 0,0 z m -39.48816,-0.54648 c 0.30024,-0.76865 -3.38737,-0.14812 0,0 z m 40.38411,-0.8662 c -0.72865,-0.38697 -1.7838,1.91406 0,0 z m -63.27786,0.30319 c -1.14209,-1.2779 0.49793,1.0007 0,0 z m 37.85074,-0.78893 c -0.34844,-2.852947 6.6838,-0.20084 1.14817,-2.031997 -2.19826,-0.89263 -10.04029,0.345467 -3.7534,2.145827 0.46923,-0.0142 3.78817,1.0928 2.60523,-0.11383 z m 26.12992,0.21394 c -0.89765,0.0958 -0.26589,-0.008 0,0 z m -47.08191,-0.89408 c -3.85066,-4.810637 -8.99302,-9.024317 -11.71116,-14.382117 -1.2442,-1.606724 -1.99524,-5.046634 -4.08659,-5.153654 2.13395,4.660294 5.00909,9.144224 8.20722,13.267334 1.65608,1.63059 8.39405,7.386837 7.59053,6.268437 z m 3.22096,0.49397 c -0.96539,-0.99275 -0.3973,0.34643 0,0 z m 29.095,-0.052 c 2.64533,0.0997 8.87612,-2.345977 2.6355,-1.09977 -2.71648,1.24844 -7.11936,-0.522167 -9.01452,1.10749 2.11881,0.14381 4.26211,0.1571 6.37902,-0.008 z m 35.275931,-0.78557 c 6.39409,-6.020837 9.08543,-14.784567 12.07215,-22.796951 1.60665,-5.5279 3.1105,-10.95414 2.39493,-16.7869 -0.0186,-2.01308 -2.46191,-2.92596 -2.5428,-2.16425 1.44113,8.32176 -0.38694,16.96775 -2.95853,24.6858 -2.40975,5.685334 -5.35678,11.259284 -9.65147,15.778984 3.27399,-2.75374 -1.14415,2.530597 0.68572,1.283317 z m -76.893791,-0.25747 c -1.0979,-0.761067 0.75995,0.86457 0,0 z m 23.89196,-0.43118 c -4.41709,-1.221677 -10.26237,-7.082397 -12.1906,-8.318947 3.28323,3.59387 7.62093,7.76467 12.1906,8.318947 z m -33.26551,0.21291 c -0.32444,-0.477507 -0.40042,0.26493 0,0 z m -0.27805,-0.408247 c -0.46979,-0.56396 -0.65735,-0.38396 0,0 z m 58.66725,-0.29896 c 2.0896,-2.6348 -2.54105,0.794307 0,0 z m 34.411051,-0.57672 c 2.09456,-2.02863 7.57127,-13.300694 2.93583,-5.55985 -0.1824,1.06347 -3.9418,6.46744 -2.93583,5.55985 z m -68.054351,0.25666 c -3.18563,-2.61627 -7.74899,-7.54973 -10.35327,-8.68705 2.96648,3.28215 6.61145,6.58153 10.35327,8.68705 z m -25.42376,-0.47773 c -0.46205,-0.35982 0.43961,0.75828 0,0 z m 11.78803,-0.002 c -0.59494,-0.65217 -0.66092,-0.11061 0,0 z m 54.58339,-0.78065 c 2.79687,-1.63321 8.63495,-7.41576 2.56619,-2.16963 -0.54274,0.61939 -6.20964,4.204607 -2.56619,2.16963 z m -55.26692,0.21141 c -0.46978,-0.56397 -0.65736,-0.38397 0,0 z m -11.81272,-0.63513 c -0.88556,-1.2768 0.2459,0.95429 0,0 z m 88.483291,-0.008 c -0.16814,-0.50828 -0.34285,0.49525 0,0 z m -14.171471,-0.44077 c 1.48178,-1.43137 -1.87371,1.42639 0,0 z m -75.78413,-0.56714 c -1.10682,-2.49415 -4.01731,-4.96117 -1.16441,-0.99604 0.0269,0.29813 2.6833,2.98552 1.16441,0.99604 z m -7.8275,0.0988 c -2.17689,-0.70371 1.11068,0.67584 0,0 z m 84.29701,-0.2015 c -0.35183,-0.25425 -0.55349,0.44784 0,0 z m -83.75972,-0.0562 c -0.54276,-0.4533 -0.55719,0.24679 0,0 z m 85.0519,-0.38143 c -0.38471,0.16549 -0.001,0.71254 0,0 z m -85.81674,0.0517 c -0.82135,-1.69483 -5.81632,-11.502594 -3.27493,-5.5183 1.23503,1.60631 1.87176,5.19544 3.27493,5.5183 z m -3.10755,-0.98638 c -1.78999,-3.4627 -4.70423,-6.93645 -4.14505,-11.131104 -0.29047,-5.87073 -0.27853,2.933964 -1.00165,3.596354 1.29374,1.27814 3.64023,6.56453 5.1467,7.53475 z m -1.57997,-0.63751 c -3.55381,-7.23122 -0.75847,0.56582 0,0 z m 83.49392,-1.39771 c -0.80143,-0.81351 -0.076,0.70695 0,0 z m 4.55471,-0.70838 c 1.72047,-1.49011 4.707071,-5.98111 1.23393,-1.72654 -0.10838,0.24981 -3.46131,3.76179 -1.23393,1.72654 z m 27.784311,0.25656 c -0.18963,-4.67736 -1.2482,-0.60205 0,0 z m -94.417391,-0.66407 c -2.89115,-4.7163 -0.69695,0.30905 0,0 z m 93.263961,-0.0921 c -0.26763,0.0603 0.19917,0.60939 0,0 z m -78.715331,-0.24632 c -0.31157,-1.96592 -1.58156,0.56528 0,0 z m -16.05354,-1.79754 c -0.6141,-1.4771 -0.69742,-0.16107 0,0 z m 12.66605,-0.44791 c -1.34148,-0.75487 0.95154,1.14375 0,0 z m 78.317521,-1.96562 c 1.23247,-2.175464 4.92515,-12.692904 1.70953,-4.741724 -0.26534,0.81778 -4.26512,9.719584 -1.70953,4.741724 z m -91.800451,0.97084 c -0.46206,-0.35982 0.4396,0.75828 0,0 z m -12.5611,-0.58853 c -0.43183,-1.21491 -0.003,1.20846 0,0 z m 0.52044,0.17378 c -0.92013,-2.261954 -0.12062,0.55915 0,0 z m 88.596441,-0.90364 c 0.56176,-4.289404 -1.45303,3.08784 0,0 z m -76.851071,0.59904 c -0.32444,-0.4775 -0.40042,0.26492 0,0 z m 7.76088,-0.65834 c -1.50521,-2.203964 0.71462,2.11085 0,0 z m 62.44729,0.41843 c 2.855141,-3.005564 0.0459,-0.81386 0,0 z m -82.44662,-0.81939 c -0.45473,-1.059024 0.0192,1.284 0,0 z m 18.78475,-1.547484 c -1.79954,-2.45378 1.95452,3.541864 0,0 z m 66.10866,-0.76826 c -1.04642,0.28474 -1.67461,2.637644 0,0 z m -74.16079,0.34568 c -0.44956,-0.17798 0.50314,0.9035 0,0 z m 7.2643,-1.26546 c -1.89644,-2.24266 -3.96651,-13.51847 -2.41333,-5.15453 0.51832,1.15296 1.27231,5.79064 2.41333,5.15453 z m 67.778271,-0.68898 c 1.84083,-3.9521 -2.369371,3.478074 0,0 z m -69.620471,-0.45644 c -1.44494,-2.51461 0.89612,2.49453 0,0 z m 76.803321,0.48518 c 1.5609,-2.85481 4.78496,-6.62497 5.51242,-10.40133 0.62619,-2.50707 0.8573,-7.49685 -0.75126,-2.27199 -0.708,4.04245 -4.1338,10.1068 -4.76116,12.67332 z m -93.351581,-1.62718 c -0.79503,0.13245 -0.15539,0.33874 0,0 z m 0.87563,0.12409 c -0.48502,-0.83407 -0.73245,0.36427 0,0 z m 86.552521,-1.06189 c 1.32306,-3.19978 -2.587281,1.1577 -0.99071,-2.00465 -1.452601,0.91697 0.93877,3.70365 0.99071,2.00465 z m 5.46811,0.0765 c -1.32106,1.16875 0.10905,0.4611 0,0 z m -72.353971,-1.80958 c -1.61371,-3.39385 2.00193,2.17658 -0.0179,-3.1477 -2.46964,-2.75803 0.28365,7.76891 0.0179,3.1477 z m 16.19862,1.30583 c 2.2351,-3.39735 4.3939,-7.97874 6.13857,-1.71652 4.35178,2.89487 4.07979,-0.54096 4.30953,-4.00036 0.68568,-3.30317 1.75212,-5.05233 2.21574,-8.2064 3.00924,-0.38382 -0.94314,-6.61467 -2.59273,-3.58365 1.13086,3.33604 -1.28602,9.00655 -3.01148,11.3223 -0.16934,-3.59194 -4.0115,-7.61994 -5.83936,-2.12541 -2.825,6.88429 -2.97866,-3.7483 -3.20065,-6.38817 -2.4651,-3.85363 -5.41875,-1.09729 -3.53752,1.76921 2.28937,1.79093 0.82935,9.58277 4.37152,12.61712 l 0.54437,0.36463 0.60189,-0.053 z m 6.47589,-4.98992 c 0.53278,-0.74811 0.53281,0.74811 0,0 z m -7.71452,-1.21585 c -0.59405,-3.52025 0.78048,1.74482 0,0 z m -0.33777,-1.99324 c 0.20066,-0.37025 0.062,0.5994 0,0 z m 36.81579,7.76391 c 3.69455,-1.5335 1.65907,-6.97703 2.22538,-10.7462 -0.60313,-2.3262 0.3675,-11.55391 -3.21281,-8.08083 0.34763,3.65405 0.50317,11.40925 -1.17514,12.67537 -2.1398,-3.4817 -3.55481,-13.10212 -8.88185,-8.90989 2.18679,4.57183 -3.59607,10.85543 0.59825,14.49997 1.71169,-0.38982 1.94745,-6.1183 1.59569,-4.41031 -0.10287,-2.30642 1.92501,-7.83191 3.01341,-2.07265 1.40433,2.51626 1.80581,8.04193 5.83707,7.04454 z m -57.03642,-1.68728 c -1.27229,-3.07101 -0.95988,-12.27902 -1.34589,-12.06551 -0.13408,4.21454 -0.21381,9.9501 1.5039,13.08064 l -0.158,-1.01513 z m 41.34098,0.5385 c -1.0113,-3.34034 0.50859,-9.48289 -1.15285,-12.70759 -1.88415,0.61285 -1.25581,-3.6888 -1.79436,0.97672 0.73068,3.4543 -2.628,11.45586 2.94721,11.73087 z m 32.531131,-0.77283 c -0.42981,-0.75152 -0.24702,0.94356 0,0 z m -84.600431,-1.43659 c -0.74689,-4.87084 -0.36671,4.06446 -2.2e-4,0 z m 87.687571,0.77941 c 1.95897,-4.37708 1.10615,-7.17701 1.36528,-11.96061 -0.81931,-5.06021 -0.4162,8.76095 -1.93576,10.72633 -0.8684,0.32961 0.24612,2.24092 0.57048,1.23428 z m 7.92999,0.0531 c 2.23378,-2.14527 1.68708,-11.49832 0.11613,-4.22636 0.0869,1.09063 -2.08657,4.51605 -0.11613,4.22636 z m 16.56598,-1.54657 c 4.91353,-0.34601 0.37983,-7.00398 2.60989,-10.89175 1.03134,-4.66776 -4.05154,-14.23294 -5.27208,-14.60332 -2.55093,-0.31527 -2.41344,-10.62788 -6.17889,-13.42249 2.33801,6.21028 5.0231,13.00382 6.1586,19.8433 1.03509,1.87847 1.27229,11.32689 2.39979,4.65909 3.24714,3.63285 3.19762,11.30601 -0.45326,13.83348 -2.70191,0.79555 -2.30671,3.87702 0.73595,0.58169 z m -119.659671,0.11693 c -0.26762,0.0603 0.19917,0.60938 0,0 z m 12.96446,-0.50973 c -0.72438,-2.48842 0.46486,2.76436 0,0 z m 2.9159,-0.99224 c -1.2169,-5.47698 -1.46286,-11.30263 -0.26872,-16.87641 0.75678,-4.46418 3.57751,-10.23308 4.55407,-13.40887 -2.7223,5.21207 -4.96658,10.92428 -5.7352,16.59042 -2.26374,3.57832 0.72813,5.37491 -0.14804,10.42665 -0.74451,1.06966 1.239,7.33734 1.59789,3.26821 z m 77.210511,1.23556 c 0.53773,-3.40891 -0.7062,-0.1872 0,0 z m -82.416941,-0.5764 c -0.6331,-2.9236 -0.43004,1.1083 2e-5,0 z m 12.0522,-0.17703 c 1.31778,-2.11895 -1.85265,-5.96544 -0.27614,-0.6571 l 0.23689,1.24456 z m -19.67054,-0.51808 c -0.24333,0.13894 0.22566,0.76557 0,0 z m 3.93617,-0.97316 c -0.23758,-3.90096 -0.95004,-1.01175 0,0 z m 102.835541,-0.5474 c -0.26762,0.0603 0.19914,0.60939 0,0 z M 11.827259,71.920799 c -0.23054,0.17798 0.20582,0.9163 0,0 z m 98.468051,-0.0469 c 0.74968,-2.95623 3.0039,-5.12587 1.39235,-7.55722 0.35648,2.13716 -2.19605,6.45157 -1.39235,7.55722 z m 19.8504,-1.31118 c 0.41696,-3.35137 -0.3232,-8.83553 -0.27791,-1.90615 -0.0431,0.66598 -0.0388,5.81414 0.27791,1.90615 z m -5.01698,-0.0956 c -0.26763,0.0603 0.19916,0.60939 0,0 z M 17.332079,69.798079 c 0.0753,-0.94559 -0.63865,0.95984 0,0 z m 108.007991,-2.05057 c 0.01,-7.40758 -0.64524,5.03442 -0.0268,0.96923 z M 9.601539,69.493959 c -0.26762,0.0603 0.19917,0.60938 0,0 z m 14.09876,-0.31453 c 0.48373,-4.28089 -1.03352,1.57288 0,0 z m -4.74024,0.0626 c -0.35518,-0.49874 -0.35521,0.49874 0,0 z m 0.19083,-0.9384 c 0.0208,-2.07814 -0.53344,2.12239 0,0 z m -7.325,0.21722 c -0.26761,0.0603 0.19915,0.60939 0,0 z m -2.35858,-0.91042 c -0.20537,0.31968 0.19746,1.52552 0,0 z m 95.761411,0.61626 c 0.52712,-3.98511 -1.58211,0.72559 0,0 z m -90.900431,-0.1229 c -0.26762,0.0603 0.19914,0.60938 0,0 z m 6.95669,-1.12087 c -0.19885,0.39753 0.19734,2.00608 0,0 z m 23.54337,0.49894 c -0.93009,-4.05557 -2.35891,1.78802 0,0 z m -34.11464,-0.0732 c -0.26762,0.0603 0.19917,0.60938 0,0 z m 8.84208,-0.55337 c -0.34668,-2.35666 -0.19824,2.68115 0,0 z m 1.1675,0.1363 c -0.26761,0.0603 0.19915,0.60938 0,0 z m -17.51676,-0.13902 c -0.26762,0.0603 0.19917,0.60939 0,0 z m 6.26431,-0.007 c -0.0948,-0.70384 -0.18739,0.94201 0,0 z m 106.709021,-0.0789 c 2.61508,-2.82462 -1.19557,-0.55162 -1.24557,0.22328 l 0.58522,0.15723 z M 5.213359,66.704769 c -2.3e-4,-2.11582 -0.18228,-10.48539 -0.90954,-4.16616 0.17409,0.68583 -0.56498,5.0608 0.90954,4.16616 z m 29.37214,-1.91155 c 0.57121,-4.20965 -0.18295,-4.77548 -0.19095,-0.21046 -0.0203,2.53388 0.0692,3.55701 0.19095,0.21046 z m -28.18146,1.78121 c -0.26762,0.0603 0.19914,0.60938 0,0 z m 27.10328,-7.96769 c -1.17123,2.14196 -0.10786,11.2746 -0.0387,3.27889 0.046,-1.09208 0.15358,-2.18647 0.0387,-3.27889 z m 55.51978,6.81207 c -0.3041,-1.21308 -0.0903,1.21092 0,0 z m -86.35264,-2.78031 c -1.99736002,-3.38883 5.36625,-8.53405 1.49591,-6.04758 0.37417,0.92453 -5.38217,1.95882 -2.79414,6.3255 0.86129,2.7143 1.5813,3.14039 1.29823,-0.27792 z m 62.04154,2.3285 c 0.48247,-0.59252 -0.90846,0.71689 0,0 z m -45.94191,-0.48658 c -0.24332,0.13894 0.22564,0.76557 0,0 z m -9.45059,0.009 c -0.26762,0.0603 0.19914,0.60938 0,0 z m 15.33433,-0.28673 c -0.53827,-0.40579 -0.14526,1.06193 0,0 z m -5.61956,-1.04229 c -0.15338,-3.44445 -0.33016,2.23744 0,0 z m 50.43725,-0.0298 c -1.59311,-1.17567 0.8037,1.35492 0,0 z m -40.77043,-0.48489 c 0.96781,1.74236 0.77012,-5.37535 0.0694,-0.94753 -0.53087,-0.5452 -0.43023,2.43935 -0.0694,0.94753 z m -19.2417,-0.31975 c -0.22362,0.20674 0.21634,1.07678 0,0 z m 59.54456,0.3377 c -0.67348,-0.21974 -0.82921,0.68999 0,0 z m 38.369031,-0.60302 c -0.27903,-2.36772 -1.80254,-10.45071 -0.79156,-3.2701 0.0524,0.0824 0.4616,5.71048 0.79156,3.2701 z m 2.20946,0.22074 c -0.6858,-0.29747 0.21744,0.66619 0,0 z m 5.20998,0.0793 c -0.12032,-0.73432 -0.32997,0.72946 0,0 z m -5.6575,-0.85464 c 1.66622,-3.722 -2.10178,-8.05281 -1.63677,-11.06568 -1.10924,-1.69266 -4.2502,-10.73164 -5.42194,-6.25133 1.18607,5.03423 3.56646,7.10968 4.74983,11.9701 0.53221,0.8913 0.44944,8.13999 2.30888,5.34691 z m 5.43022,-0.22428 c -0.60284,-3.46248 -1.526,-6.89525 -0.73388,-1.52813 -0.53276,0.41117 1.54214,3.46311 0.73388,1.52813 z m 2.54058,0.52296 c 2.45357,-0.86028 -1.23174,-9.40249 0.50538,-2.1936 -1.16973,1.69106 -1.94924,-2.64442 -1.19788,1.5318 -0.1047,0.24048 0.35909,0.96237 0.6925,0.6618 z m -12.17459,-0.76474 c -0.84815,-8.34372 -0.66693,2.12244 0,0 z m 7.89991,-0.71551 c -0.22423,0.59912 0.28716,0.85228 0,0 z m -0.22838,-0.93302 c -0.71699,-4.72062 -0.95245,0.40304 10e-6,0 z m 5.84902,-0.87994 c -0.26763,0.0603 0.19916,0.60939 0,0 z m 3.17204,-0.11295 c -0.17262,-0.54808 -0.49885,0.52928 0,0 z m -103.640811,-0.0613 c -0.32444,-0.4775 -0.40041,0.26492 0,0 z m 17.13477,-0.29176 c -0.23004,-1.10431 -0.44479,1.21893 0,0 z m -15.66015,-0.12948 c -0.23054,-0.99527 -0.30071,0.78184 0,0 z m -9.29015,-0.97718 c -0.0357,-1.40441 -0.4068,2.8404 0,0 z m 112.220971,0.6256 c 3.01847,-1.23972 -1.83406,-1.11724 0,0 z m -1.80729,-0.69511 c -0.67321,-0.695 -0.13967,0.54152 0,0 z m -86.572981,-1.0166 c 2.59563,-3.49897 -1.16564,-2.92392 -0.39844,0.80659 l 0.39845,-0.80659 z m 77.770631,0.009 c -0.161,-3.44981 -2.46503,-8.46044 -0.76341,-2.30735 0.27059,0.27603 0.7993,4.9772 0.76341,2.30735 z M 10.300009,55.584919 c -0.21459,0.25225 0.20203,1.21909 0,0 z m 44.24942,0.45044 c -0.18994,-5.52956 4.96663,-10.22253 5.30757,-14.80972 -4.08973,-0.74058 -4.56598,10.39066 -8.38903,3.07401 -0.58761,-4.35429 -6.45574,-0.6 -1.47385,1.44416 5.08266,2.33745 1.16465,7.20142 3.02631,10.1523 0.43518,0.23737 1.06809,0.71111 1.529,0.13925 z m 49.308961,-0.0263 c -0.26761,0.0603 0.19915,0.60939 0,0 z m 9.73801,-0.15615 c -0.48861,-0.67595 -0.3081,0.75228 0,0 z M 10.435669,54.896889 c -0.26762,0.0603 0.19917,0.60938 0,0 z m 55.21915,-0.50041 c 6.18851,-2.42551 3.83664,-12.75367 -2.36654,-11.71736 -4.16146,-0.79048 -0.0483,3.73616 -3.64994,4.0399 -2.06186,4.28379 0.746,9.82815 6.01648,7.67746 z m -2.87377,-2.25272 c -4.96908,-3.62574 6.14491,-9.40318 3.52275,-2.09577 -0.84615,0.85766 -2.14635,2.95625 -3.52275,2.09577 z m 16.64259,2.58481 c 4.59917,-0.0339 -0.82998,-3.19253 2.09051,-6.68717 2.48747,-4.5757 -4.82224,-5.70633 -3.39527,-0.28236 -0.80052,5.28881 -7.34005,3.96009 -4.89899,-1.32855 1.77085,-4.27542 -4.38729,-4.31898 -2.57867,0.26938 -1.51914,5.0729 4.16635,8.71445 7.63512,6.69388 0.004,0.33821 0.46922,2.03155 1.1473,1.33482 z m 45.289401,-0.32427 c -0.23055,0.17799 0.20582,0.91631 0,0 z m -0.16859,-1.31348 c -0.24895,-2.75215 -2.15208,-6.28116 -0.613,-1.42463 0.0756,0.17562 0.89439,3.93766 0.613,1.42463 z m -22.04301,-2.19779 c -1.75018,-4.68024 -0.5845,0.55218 0.44048,1.84859 l -0.0188,-0.5058 z m -66.441681,0.34257 c 2.67274,-2.65237 5.79163,-9.52289 8.0138,-11.64343 -2.28519,1.22558 -8.49213,8.06895 -8.15282,11.92478 z m 65.406011,-0.71599 c -1.721061,-3.60586 0.94226,3.16467 0,0 z M 123.13,48.076169 c -2.0932,-5.92155 -1.5015,-2.62913 0,0 z m -115.891831,0.009 c -0.26762,0.0603 0.19915,0.60938 0,0 z m 21.04496,-0.0661 c 0.13871,-2.48022 -0.59121,1.6917 0,0 z m -0.15647,-1.64563 c -0.63679,0.31832 -0.26653,0.90263 0,0 z m 92.388851,-1.69468 c -0.64431,-0.61062 0.77859,1.70152 0,0 z m -22.591011,-0.44528 c -0.64569,-1.10366 -0.14262,0.82586 0,0 z m 23.691621,-0.0645 c -0.61397,-0.83816 0.1606,0.96657 0,0 z m -2.149,-1.9527 c -2.4008,-4.65065 2.15706,5.01014 0,0 z m -38.225251,1.29806 c -0.15421,-2.1849 -3.8678,-1.37022 -0.13465,0.14817 z m -48.24059,-0.28531 c -0.48248,-0.23967 -0.22942,0.64906 0,0 z m 68.210461,-0.35456 c 2.37471,-4.40386 -5.219951,-5.53727 -6.463471,-8.50069 -2.76209,-0.77087 -7.83853,-4.88047 -2.86658,-0.33838 -2.2701,-0.92253 -5.73147,-1.4132 -1.69961,1.00722 3.06619,0.97242 3.81418,3.50626 6.11562,4.8607 2.34297,-1.29918 3.08906,5.12612 4.914041,2.97115 z m -5.094521,0.23194 c -0.16813,-0.50828 -0.34287,0.49525 0,0 z m -80.42417,-0.86513 c -0.42537,-0.46083 -0.42139,0.73817 0,0 z m 17.93382,0.031 c -0.70675,-0.55378 0.19493,0.50525 0,0 z m 0.33409,-0.33132 c -0.33146,-0.96787 -0.65454,0.44297 0,0 z m 92.507231,-2.65765 c -1.41148,-1.85867 -1.78885,-6.82104 -4.1222,-4.72358 2.2289,-0.0703 5.12555,9.69005 4.24977,4.97197 z m -91.072771,1.91069 c 4.76207,-6.19981 10.86889,-12.06555 18.1811,-14.8439 2.51942,2.13347 -1.46327,-2.08978 3.39035,-1.79209 2.33761,-0.50121 15.05068,-2.76246 6.57794,-2.33558 -4.1813,0.91789 -11.48283,1.12678 -13.0844,4.4108 -6.34327,3.2533 -12.13449,8.05224 -15.9986,14.0368 0.0185,0.25703 0.68534,1.44049 0.93361,0.52397 z m 84.332341,-0.49728 c -1.71504,-2.62762 1.46549,2.89453 0,0 z m -24.861741,0.32438 c -1.2101,-1.53675 0.84765,1.45788 0,0 z m -78.79761,-0.30585 c -0.64282,-0.26682 0.27154,1.05829 0,0 z m 102.458551,-0.63255 c -0.40322,-0.84023 0.22391,1.2421 0,0 z m -0.37509,-1.55853 c -1.14523,-3.02437 -4.71836,-7.85375 -1.21635,-1.74416 0.31727,0.15748 1.80742,4.22996 1.21635,1.74416 z m -83.502911,-0.87248 c -0.88834,-10e-4 -1.75014,2.62137 0,0 z m -24.94918,0.79751 c 0.10054,-1.13902 -0.44265,1.51685 0,0 z m 94.202661,0.13902 c -0.56963,-0.74816 -0.32579,0.70819 0,0 z m -11.907801,-0.59759 c -2.62242,-3.06512 -8.12776,-4.56016 -2.18987,-1.2919 0.61895,0.67259 2.62392,2.66099 2.18987,1.2919 z m -82.96231,-1.10251 c 0.95937,-2.65051 2.80025,-8.79812 5.6908,-8.2071 -0.86605,-3.42841 -6.54636,4.67514 -6.03921,8.09284 -0.10176,0.88279 0.077,1.82883 0.34841,0.11426 z m 1.03766,0.70767 c 0.38105,-1.46566 -0.64107,1.31078 0,0 z m 37.63138,-0.3459 c 4.22238,-3.70691 -3.42928,2.33568 0,0 z m 42.02084,-0.17604 c -0.0634,-0.37329 -0.82208,0.12461 0,0 z m -78.04278,-2.7258 c 2.22728,-4.06853 1.5422,-3.59713 -0.29489,0.2496 -1.45014,3.3304 -0.67785,2.03997 0.29489,-0.2496 z m 8.80561,-1.18169 c -0.48716,0.18901 -0.11325,0.77657 0,0 z m 76.6685,-1.2146 c -2.62111,-2.33023 -0.0845,0.47087 0,0 z m -43.77556,-0.0588 c 4.04066,-1.94038 8.00734,-3.29994 12.68813,-4.05462 5.36015,-0.65689 9.44123,0.14275 14.2269,2.31162 2.71257,0.29178 9.6881,1.56732 3.44296,-0.74153 -8.3445,-3.66735 -18.12209,-3.96673 -26.60204,-0.47687 1.52819,1.48794 -6.48201,3.11236 -3.75595,2.9614 z m 7.02139,-1.0205 c 1.86913,-2.14371 6.05028,-0.90799 8.7476,-2.30162 -1.03038,-0.61067 -10.86915,0.72948 -8.7476,2.30162 z m 17.9578,-0.78074 c -0.81818,-2.04247 -6.3526,-0.36027 -1.28595,-0.26844 0.80152,-0.63586 0.57752,1.02961 1.28595,0.26844 z m -11.99064,-0.0534 c -1.20815,-0.60099 0.33942,0.55185 0,0 z m 28.45215,-0.17378 c 0.8365,-0.33298 -1.79621,-0.56034 2e-5,3e-5 z m -80.30732,-0.3823 c -0.16811,-0.5083 -0.34288,0.49523 0,0 z m 57.05632,-0.2231 c 5.79533,-0.52697 -4.82785,-0.53881 0,0 z m -23.67171,-2.42617 c 0.74605,-0.72651 -1.48176,1.0048 0,0 z m 1.29317,-0.62217 c 0.60808,-0.75245 -1.23749,0.81025 0,0 z m 6.95928,0.0739 c -0.16813,-0.50828 -0.34287,0.49523 0,0 z m 0.97217,-0.41547 c -0.35183,-0.25424 -0.55349,0.44783 0,0 z m 1.84302,-0.65676 c 0.44381,-0.98382 -3.66277,1.72974 0,0 z m 48.831451,0.60267 c -0.4698,-0.56396 -0.65736,-0.38396 0,0 z m -44.246621,-0.30954 c -0.55048,-0.29217 -0.12993,0.31327 0,0 z m 3.18974,-0.51108 c -1.24912,-0.16749 -1.48802,0.6009 0,0 z m 1.39798,-0.18403 c -0.55049,-0.29215 -0.12991,0.31326 0,0 z m -7.05246,-0.19405 c -0.34287,-0.49523 -0.16813,0.50828 0,0 z m 42.957761,-1.99427 c -0.71718,-0.81987 -0.71921,-0.47275 0,0 z m -27.526331,-0.36174 c -2.93924,-1.79882 -10.4564,-0.0856 -3.10389,-0.25737 1.03608,-0.13591 2.11802,0.55328 3.10389,0.25737 z m -17.76005,-0.23846 c -0.76557,-0.22565 -0.13894,0.24334 0,0 z m 2.05057,-0.47784 c 2.41768,0.02 9.56756,-1.60675 3.40604,-0.87867 -0.63471,-0.414 -7.23591,1.58652 -3.40604,0.87867 z m 7.22914,0.15285 c -0.16812,-0.50828 -0.34287,0.49523 0,0 z m 0.90266,-0.13743 c -0.35182,-0.25425 -0.55349,0.44784 0,0 z m -0.20755,-1.25279 c -2.26167,-2.09671 -1.27979,0.94979 0,0 z m 4.53808,0.0695 c 1.92782,-0.86412 -1.58583,-0.15191 0,0 z m -2.67048,-1.3356 c 1.44051,-0.57815 -1.9165,0.2828 0,0 z m -0.47738,-0.40217 c -0.34286,-0.49525 -0.16813,0.50828 0,0 z m -33.28637,-2.37854 c -0.42928,-0.009 -1.25723,1.023 0,0 z m 0.71119,-0.42797 c -0.26762,0.0603 0.19917,0.60938 0,0 z m 5.26556,-3.93164 c 1.94011,-1.08336 8.07649,-3.2855704 2.51163,-1.49558 -0.25757,-0.0845 -4.08303,2.04564 -2.51163,1.49558 z m 39.5059,0.12012 c -0.55049,-0.29215 -0.12993,0.31326 0,0 z m -2.04768,-0.9438 c -0.54276,-0.45329 -0.55719,0.2468 0,0 z M 58.477039,9.4649386 c 1.34693,-0.59837 -2.55066,0.41602 0,0 z m 10.21521,0.0531 c -0.55049,-0.29215 -0.12992,0.31325 0,0 z m -28.52767,-1.83547 c -0.6047,0.16514 -0.26874,0.39345 0,0 z m 37.49748,-0.53598 c -0.76557,-0.22564 -0.13894,0.24331 0,0 z M 53.646029,119.01797 c -2.88923,-1.33397 3.37501,0.7508 0,0 z m -1.94631,-0.70081 c 0.36877,-0.53617 0.69349,0.50466 0,0 z M 13.326259,70.175539 c -0.2965,-3.46434 0.89247,0.51137 0,0 z m -0.0759,-2.07184 c -0.26875,0.0219 -0.13877,-2.66557 -0.28629,-3.64639 0.64217,-1.18302 0.53708,4.31248 0.28629,3.64639 z m 9.22322,-18.04329 c 0.23003,-0.93677 0.33807,0.75456 0,0 z m 0.14141,-0.52434 c 1.01712,-3.16334 2.01533,-4.77227 0.45136,-0.59084 l -0.3703,0.69511 z m 86.602331,-6.04478 c -0.97526,-2.16187 1.18212,1.87416 0,0 z m -98.218911,0.0209 c 0.42053,-0.57675 -0.16058,0.72656 0,0 z m 17.88355,-3.1516 c 0.79841,-4.10272 5.88677,-7.25025 6.5476,-10.78789 2.97075,-2.35152 7.18497,-4.63055 10.88552,-6.48559 -2.67652,4.10207 -8.41282,6.52985 -11.62517,10.57574 -2.19736,1.68957 -3.80886,5.65252 -5.80795,6.69774 z m 78.817761,-1.11218 c -0.61209,-1.62988 1.06726,1.1951 0,0 z m 3.78126,-1.9442 c -3.78067,-5.75663 -8.57501,-10.79088 -13.661881,-15.33766 5.797881,4.20523 10.714091,9.86307 14.248421,16.07943 z m -6.46896,-0.62101 c -1.88125,-1.98438 -5.691851,-7.75338 -1.15713,-2.58631 0.42559,0.58838 3.24044,5.36953 1.15713,2.58631 z m -81.881331,-3.31667 c 0.40042,-0.26491 0.32444,0.47752 0,0 z m 91.814361,-5.15112 c -5.11801,-3.67478 -1.84884,-12.41618 -9.53179,-14.3235 -1.79291,-2.35462 -7.042851,-3.68354 -7.767061,-2.44452 4.729901,0.77968 11.299971,3.42638 12.064091,8.68656 1.26442,2.34317 4.18392,7.88528 0.95906,3.42919 -1.01656,-0.035 -4.74008,-3.39143 -7.67058,-6.23973 -3.904941,-2.89812 -7.389911,-4.76184 -11.582791,-6.37811 0.95939,-1.1102804 6.58453,0.27714 2.20081,-1.2756004 -6.24082,-1.23699 6.15061,-0.99774 9.242951,0.3682104 6.23338,2.64359 11.14229,7.59116 10.11801,14.66932 -0.16594,0.65819 3.04738,3.66049 1.9673,3.50818 z m -71.795211,-7.35261 c 0.3552,-0.49874 0.3552,0.49873 0,0 z m 67.213761,-0.42755 c -0.0449,-1.67606 0.85772,1.37014 0,0 z m -56.370051,0.097 c 0.37977,-0.75194 0.6134,0.20078 0,0 z m -10.75886,-0.47878 c 0.20881,-0.89925 1.04694,-0.20054 0,0 z m 3.31219,-1.84666 c 2.70364,-1.99358 13.83993,-5.06683 13.70614,-3.70947 -4.7438,0.57494 -9.29909,2.10561 -13.70614,3.70947 z m 43.52285,-9.8560004 c 0.51725,-0.52204 0.75982,0.50896 0,0 z m -0.90364,-0.23923 c -1.63208,-0.70862 2.18125,0.2305 0,0 z m -1.3207,-0.31685 c 0.51723,-0.52204 0.75983,0.50894 0,0 z m -1.18169,-0.14317 c -8.35037,-1.86738 3.93798,-0.0912 0,0 z m -20.36671,-0.13488 c -0.64454,-0.45479 1.03273,0.3749 0,0 z m 14.5973,-1.15251 c -3.66448,-2.44178 -6.34579,-6.86011997 -11.18692,-3.47616 2.9165,-2.32524997 12.17702,3.15339 5.37355,2.55755 -5.53404,-0.27133 -10.55232,-1.29015 -16.10489,0.12309 -5.74184,0.25924 5.30659,-2.62177 6.90389,-3.33672 5.53673,-3.84921 11.74106,-2.60644997 15.30401,2.855 2.2335,0.99703 1.45827,1.85275 -0.28964,1.27724 z m 0,-0.58163 c -2.30042,-1.27043 1.62589,1.23203 0,0 z m -11.67624,-2.68979 c -2.56623,0.6056 -0.38159,0.41788 0,0 z"
       id="path1220" />
  </g>
</svg>
